<svg width="953" height="764" viewBox="0 0 953 764" fill="none" xmlns="http://www.w3.org/2000/svg">
<g filter="url(#filter0_d_945_40261)">
<g clip-path="url(#clip0_945_40261)">
<rect x="9.83252" y="9" width="934" height="746" rx="24" fill="white"/>
<path d="M117.052 49.3828C200.274 147.779 -136.226 362.244 21.3267 262.775C141.04 187.196 128.045 -45.4526 110.474 -12.5327C92.9026 20.3871 -314.65 434.405 -159.124 187.958C-133.731 220.817 71.7581 -4.16923 117.052 49.3828Z" fill="#AA9EE2"/>
<path d="M64.3949 1.25364C195.525 -5.81489 183.381 -34.1719 198.957 -62.4743C229.809 -64.1374 256.179 -40.2744 257.855 -9.17482C259.532 21.9248 288.421 93.209 257.569 94.8721C202.064 126.399 23.162 89.6737 64.3949 1.25364Z" fill="#ECE8FF" fill-opacity="0.61"/>
<path d="M457.585 584.192C456.731 584.192 455.942 584.037 455.217 583.728C454.502 583.419 453.873 582.987 453.329 582.432C452.795 581.877 452.379 581.227 452.081 580.48C451.782 579.733 451.633 578.917 451.633 578.032C451.633 577.147 451.777 576.331 452.065 575.584C452.363 574.827 452.779 574.176 453.313 573.632C453.857 573.077 454.491 572.651 455.217 572.352C455.942 572.043 456.731 571.888 457.585 571.888C458.438 571.888 459.201 572.032 459.873 572.32C460.555 572.608 461.131 572.992 461.601 573.472C462.07 573.941 462.406 574.459 462.609 575.024L460.657 575.936C460.433 575.339 460.054 574.848 459.521 574.464C458.987 574.069 458.342 573.872 457.585 573.872C456.838 573.872 456.177 574.048 455.601 574.4C455.035 574.752 454.593 575.237 454.273 575.856C453.963 576.475 453.809 577.2 453.809 578.032C453.809 578.864 453.963 579.595 454.273 580.224C454.593 580.843 455.035 581.328 455.601 581.68C456.177 582.032 456.838 582.208 457.585 582.208C458.342 582.208 458.987 582.016 459.521 581.632C460.054 581.237 460.433 580.741 460.657 580.144L462.609 581.056C462.406 581.621 462.07 582.144 461.601 582.624C461.131 583.093 460.555 583.472 459.873 583.76C459.201 584.048 458.438 584.192 457.585 584.192ZM468.499 584.192C467.646 584.192 466.867 583.995 466.163 583.6C465.47 583.205 464.915 582.667 464.499 581.984C464.094 581.301 463.891 580.523 463.891 579.648C463.891 578.773 464.094 577.995 464.499 577.312C464.915 576.629 465.47 576.091 466.163 575.696C466.856 575.301 467.635 575.104 468.499 575.104C469.352 575.104 470.126 575.301 470.819 575.696C471.512 576.091 472.062 576.629 472.467 577.312C472.883 577.984 473.091 578.763 473.091 579.648C473.091 580.523 472.883 581.301 472.467 581.984C472.051 582.667 471.496 583.205 470.803 583.6C470.11 583.995 469.342 584.192 468.499 584.192ZM468.499 582.272C468.968 582.272 469.379 582.16 469.731 581.936C470.094 581.712 470.376 581.403 470.579 581.008C470.792 580.603 470.899 580.149 470.899 579.648C470.899 579.136 470.792 578.688 470.579 578.304C470.376 577.909 470.094 577.6 469.731 577.376C469.379 577.141 468.968 577.024 468.499 577.024C468.019 577.024 467.598 577.141 467.235 577.376C466.872 577.6 466.584 577.909 466.371 578.304C466.168 578.688 466.067 579.136 466.067 579.648C466.067 580.149 466.168 580.603 466.371 581.008C466.584 581.403 466.872 581.712 467.235 581.936C467.598 582.16 468.019 582.272 468.499 582.272ZM474.88 584V575.296H476.848V577.008L476.688 576.704C476.891 576.181 477.222 575.787 477.68 575.52C478.15 575.243 478.694 575.104 479.312 575.104C479.952 575.104 480.518 575.243 481.008 575.52C481.51 575.797 481.899 576.187 482.176 576.688C482.454 577.179 482.592 577.749 482.592 578.4V584H480.496V578.896C480.496 578.512 480.422 578.181 480.272 577.904C480.123 577.627 479.915 577.413 479.648 577.264C479.392 577.104 479.088 577.024 478.736 577.024C478.395 577.024 478.091 577.104 477.824 577.264C477.558 577.413 477.35 577.627 477.2 577.904C477.051 578.181 476.976 578.512 476.976 578.896V584H474.88ZM488.533 584.096C487.551 584.096 486.789 583.829 486.245 583.296C485.711 582.752 485.445 581.989 485.445 581.008V577.168H483.941V575.296H484.101C484.527 575.296 484.858 575.184 485.093 574.96C485.327 574.736 485.445 574.411 485.445 573.984V573.312H487.541V575.296H489.541V577.168H487.541V580.896C487.541 581.184 487.589 581.429 487.685 581.632C487.791 581.835 487.951 581.989 488.165 582.096C488.389 582.203 488.671 582.256 489.013 582.256C489.087 582.256 489.173 582.251 489.269 582.24C489.375 582.229 489.477 582.219 489.573 582.208V584C489.423 584.021 489.253 584.043 489.061 584.064C488.869 584.085 488.693 584.096 488.533 584.096ZM491.374 584V575.296H493.47V584H491.374ZM491.374 574.32V572.08H493.47V574.32H491.374ZM495.605 584V575.296H497.573V577.008L497.413 576.704C497.616 576.181 497.947 575.787 498.405 575.52C498.875 575.243 499.419 575.104 500.037 575.104C500.677 575.104 501.243 575.243 501.733 575.52C502.235 575.797 502.624 576.187 502.901 576.688C503.179 577.179 503.317 577.749 503.317 578.4V584H501.221V578.896C501.221 578.512 501.147 578.181 500.997 577.904C500.848 577.627 500.64 577.413 500.373 577.264C500.117 577.104 499.813 577.024 499.461 577.024C499.12 577.024 498.816 577.104 498.549 577.264C498.283 577.413 498.075 577.627 497.925 577.904C497.776 578.181 497.701 578.512 497.701 578.896V584H495.605ZM508.394 584.192C507.722 584.192 507.135 584.043 506.634 583.744C506.143 583.445 505.764 583.029 505.498 582.496C505.242 581.963 505.114 581.339 505.114 580.624V575.296H507.21V580.448C507.21 580.811 507.279 581.131 507.418 581.408C507.567 581.675 507.775 581.888 508.042 582.048C508.319 582.197 508.628 582.272 508.97 582.272C509.311 582.272 509.615 582.197 509.882 582.048C510.148 581.888 510.356 581.669 510.506 581.392C510.655 581.115 510.73 580.784 510.73 580.4V575.296H512.826V584H510.842V582.288L511.018 582.592C510.815 583.125 510.479 583.525 510.01 583.792C509.551 584.059 509.012 584.192 508.394 584.192ZM519.102 584.192C518.206 584.192 517.422 583.989 516.75 583.584C516.078 583.179 515.555 582.629 515.182 581.936C514.809 581.243 514.622 580.475 514.622 579.632C514.622 578.757 514.809 577.984 515.182 577.312C515.566 576.629 516.083 576.091 516.734 575.696C517.395 575.301 518.131 575.104 518.942 575.104C519.625 575.104 520.222 575.216 520.734 575.44C521.257 575.664 521.699 575.973 522.062 576.368C522.425 576.763 522.702 577.216 522.894 577.728C523.086 578.229 523.182 578.773 523.182 579.36C523.182 579.509 523.171 579.664 523.15 579.824C523.139 579.984 523.113 580.123 523.07 580.24H516.35V578.64H521.886L520.894 579.392C520.99 578.901 520.963 578.464 520.814 578.08C520.675 577.696 520.441 577.392 520.11 577.168C519.79 576.944 519.401 576.832 518.942 576.832C518.505 576.832 518.115 576.944 517.774 577.168C517.433 577.381 517.171 577.701 516.99 578.128C516.819 578.544 516.755 579.051 516.798 579.648C516.755 580.181 516.825 580.656 517.006 581.072C517.198 581.477 517.475 581.792 517.838 582.016C518.211 582.24 518.638 582.352 519.118 582.352C519.598 582.352 520.003 582.251 520.334 582.048C520.675 581.845 520.942 581.573 521.134 581.232L522.83 582.064C522.659 582.48 522.393 582.848 522.03 583.168C521.667 583.488 521.235 583.739 520.734 583.92C520.243 584.101 519.699 584.192 519.102 584.192Z" fill="white"/>
<path d="M156.877 93C195.086 232 80.9303 134 47.4384 209C11.9369 288.5 -62 157.065 -62 93C-62 28.935 -13.0028 -23 47.4384 -23C107.88 -23 54.9859 48.5 156.877 93Z" fill="#ECE8FF" fill-opacity="0.61"/>
</g>
</g>
<defs>
<filter id="filter0_d_945_40261" x="0.83252" y="0" width="952" height="764" filterUnits="userSpaceOnUse" color-interpolation-filters="sRGB">
<feFlood flood-opacity="0" result="BackgroundImageFix"/>
<feColorMatrix in="SourceAlpha" type="matrix" values="0 0 0 0 0 0 0 0 0 0 0 0 0 0 0 0 0 0 127 0" result="hardAlpha"/>
<feMorphology radius="5" operator="dilate" in="SourceAlpha" result="effect1_dropShadow_945_40261"/>
<feOffset/>
<feGaussianBlur stdDeviation="2"/>
<feComposite in2="hardAlpha" operator="out"/>
<feColorMatrix type="matrix" values="0 0 0 0 1 0 0 0 0 1 0 0 0 0 1 0 0 0 0.1 0"/>
<feBlend mode="normal" in2="BackgroundImageFix" result="effect1_dropShadow_945_40261"/>
<feBlend mode="normal" in="SourceGraphic" in2="effect1_dropShadow_945_40261" result="shape"/>
</filter>
<clipPath id="clip0_945_40261">
<rect x="9.83252" y="9" width="934" height="746" rx="24" fill="white"/>
</clipPath>
</defs>
</svg>
