<svg width="170" height="195" viewBox="0 0 170 195" fill="none" xmlns="http://www.w3.org/2000/svg">
<path d="M24.8974 181.439C-8.29913 163.353 -8.29913 134.061 24.8974 116C58.0939 97.9392 111.912 97.9266 145.104 116C178.296 134.074 178.301 163.378 145.104 181.451C111.908 199.525 58.0939 199.512 24.8974 181.439Z" fill="#F5F5F5"/>
<path d="M102.039 161.77L103.954 162.813L41.0312 172.045V170.721L102.039 161.77Z" fill="#E0E0E0"/>
<path d="M19.4274 177.604C15.144 179.963 15.144 183.785 19.4274 186.144C23.7108 188.503 30.6558 188.503 34.9437 186.144C39.2316 183.785 39.2271 179.963 34.9437 177.604C30.6603 175.244 23.7108 175.228 19.4274 177.604Z" fill="#E0E0E0"/>
<path d="M84.9199 143.24C74.5579 148.947 74.5579 158.196 84.9199 163.899C95.2819 169.602 112.078 169.602 122.435 163.899C132.793 158.196 132.793 148.947 122.435 143.24C112.078 137.533 95.2952 137.554 84.9199 143.24Z" fill="#E0E0E0"/>
<path d="M129.173 144.255C132.123 144.012 135.393 143.836 137.726 145.554C138.824 146.354 139.583 147.481 140.419 148.525C141.316 149.644 142.316 150.687 143.405 151.642C143.959 152.166 144.6 152.602 145.302 152.933C146.088 153.239 146.936 153.382 147.786 153.352C151.341 153.352 154.642 151.5 157.379 149.338C158.112 148.759 158.859 148.081 159.05 147.209C159.37 145.755 158.068 144.435 156.739 143.639C152.998 141.393 148.341 140.102 144.085 139.029C139.547 137.827 134.854 137.231 130.141 137.257C127.207 137.309 124.288 137.665 121.437 138.317C119.713 138.711 117.215 139.197 115.882 140.383C115.577 140.627 115.353 140.949 115.238 141.31C115.122 141.671 115.119 142.056 115.229 142.419C115.562 143.257 116.584 143.588 117.5 143.789C121.294 144.636 125.329 144.569 129.173 144.255Z" fill="#E0E0E0"/>
<path d="M31.6211 63.6193V65.2201C31.6211 65.7272 31.9988 65.9325 32.4609 65.6769L34.1005 64.7843V61.3523L32.4609 62.2449C32.2166 62.396 32.0133 62.5991 31.8675 62.8378C31.7216 63.0765 31.6372 63.3442 31.6211 63.6193Z" fill="#E0E0E0"/>
<path d="M34.1006 116.147L27.2578 119.877C27.0131 120.026 26.8094 120.229 26.6635 120.467C26.5175 120.705 26.4334 120.972 26.418 121.247V122.852C26.418 123.355 26.7912 123.56 27.2578 123.309L34.1006 119.583V116.147Z" fill="#E0E0E0"/>
<path d="M26.4219 62.2425V63.8475C26.4219 64.3503 26.7951 64.5557 27.2617 64.3042L34.1045 60.5747V57.1427L27.2617 60.8722C27.017 61.0219 26.8133 61.2242 26.6674 61.4623C26.5214 61.7005 26.4373 61.9678 26.4219 62.2425Z" fill="#E0E0E0"/>
<path d="M30.1196 80.3813L22.3437 84.6179C22.0998 84.7684 21.8967 84.9707 21.7508 85.2087C21.6049 85.4468 21.5204 85.7137 21.5039 85.9882V87.5932C21.5039 88.096 21.8816 88.3013 22.3437 88.0499L30.1196 83.8175C30.3644 83.6669 30.568 83.4639 30.714 83.2251C30.8599 82.9863 30.944 82.7183 30.9594 82.443V80.8423C30.9594 80.3143 30.5862 80.109 30.1196 80.3813Z" fill="#E0E0E0"/>
<path d="M34.1006 99.2905L27.2578 103.02C27.0131 103.17 26.8094 103.372 26.6635 103.61C26.5175 103.848 26.4334 104.116 26.418 104.39V105.995C26.418 106.498 26.7912 106.703 27.2578 106.452L34.1006 102.723V99.2905Z" fill="#E0E0E0"/>
<path d="M26.4219 45.3838V46.9845C26.4219 47.4916 26.7951 47.6969 27.2617 47.4455L34.1045 43.7159V40.2839L27.2617 44.0135C27.0165 44.1627 26.8125 44.3648 26.6664 44.603C26.5204 44.8413 26.4366 45.1089 26.4219 45.3838Z" fill="#E0E0E0"/>
<path d="M34.1006 141.436L27.2578 145.166C27.0131 145.316 26.8094 145.518 26.6635 145.756C26.5175 145.994 26.4334 146.261 26.418 146.536V148.141C26.418 148.644 26.7912 148.849 27.2578 148.598L34.1006 144.868V141.436Z" fill="#E0E0E0"/>
<path d="M18.6289 96.0635V97.6643C18.6289 98.1713 19.0022 98.3766 19.4687 98.121L27.2402 93.8886C27.4855 93.7391 27.6898 93.5371 27.8365 93.2989C27.9832 93.0608 28.0682 92.7933 28.0844 92.5183V90.9134C28.0844 90.4105 27.7067 90.2052 27.2402 90.4566L19.4687 94.689C19.2239 94.8396 19.0203 95.0426 18.8744 95.2815C18.7284 95.5203 18.6443 95.7882 18.6289 96.0635Z" fill="#E0E0E0"/>
<path d="M26.4219 79.099V80.7039C26.4219 81.2068 26.7951 81.4121 27.2617 81.1607L34.1045 77.4353V73.9991L27.2617 77.7287C27.017 77.8784 26.8133 78.0806 26.6674 78.3187C26.5214 78.5569 26.4373 78.8243 26.4219 79.099Z" fill="#E0E0E0"/>
<path d="M25.7563 106.362V104.761C25.7563 104.254 25.3786 104.049 24.9165 104.305L17.1406 108.537C16.8966 108.688 16.6935 108.89 16.5477 109.128C16.4018 109.366 16.3172 109.633 16.3008 109.907V111.512C16.3008 112.015 16.6785 112.22 17.1406 111.969L24.9165 107.737C25.1608 107.586 25.3641 107.382 25.5099 107.144C25.6558 106.905 25.7402 106.637 25.7563 106.362Z" fill="#E0E0E0"/>
<path d="M22.3437 147.035L30.1196 142.803C30.3644 142.652 30.568 142.449 30.714 142.21C30.8599 141.972 30.944 141.704 30.9594 141.428V139.828C30.9594 139.321 30.5862 139.115 30.1196 139.371L22.3437 143.603C22.0998 143.754 21.8967 143.956 21.7508 144.194C21.6049 144.432 21.5204 144.699 21.5039 144.974V146.591C21.5039 147.081 21.8816 147.287 22.3437 147.035Z" fill="#E0E0E0"/>
<path d="M25.7954 40.6307L18.0195 44.8631C17.7748 45.0128 17.5711 45.215 17.4252 45.4531C17.2792 45.6913 17.1951 45.9587 17.1797 46.2333V47.8383C17.1797 48.3412 17.5529 48.5465 18.0195 48.2951L25.7954 44.0627C26.0397 43.9116 26.243 43.7085 26.3888 43.4697C26.5347 43.231 26.6191 42.9633 26.6352 42.6882V41.0874C26.6352 40.572 26.2575 40.3751 25.7954 40.6307Z" fill="#E0E0E0"/>
<path d="M30.1196 46.6441L22.3437 50.8765C22.0994 51.0276 21.8962 51.2307 21.7503 51.4695C21.6044 51.7082 21.52 51.9759 21.5039 52.251V53.8518C21.5039 54.3588 21.8816 54.5641 22.3437 54.3085L30.1196 50.0761C30.3643 49.9264 30.568 49.7242 30.7139 49.486C30.8599 49.2479 30.944 48.9805 30.9594 48.7058V47.1009C30.9594 46.598 30.5862 46.3927 30.1196 46.6441Z" fill="#E0E0E0"/>
<path d="M30.1196 63.5029L22.3437 67.7395C22.0993 67.8894 21.8958 68.0917 21.7499 68.3298C21.6039 68.5679 21.5197 68.8351 21.5039 69.1098V70.7147C21.5039 71.2176 21.8816 71.4229 22.3437 71.1715L30.1196 66.9349C30.3643 66.7852 30.568 66.583 30.7139 66.3448C30.8599 66.1067 30.944 65.8393 30.9594 65.5646V63.9597C30.9594 63.4568 30.5862 63.2515 30.1196 63.5029Z" fill="#E0E0E0"/>
<path d="M22.3437 113.319L30.1196 109.083C30.3648 108.934 30.5689 108.732 30.7149 108.493C30.8609 108.255 30.9447 107.987 30.9594 107.713V106.108C30.9594 105.605 30.5862 105.399 30.1196 105.651L22.3437 109.887C22.0993 110.037 21.8958 110.24 21.7499 110.478C21.6039 110.716 21.5197 110.983 21.5039 111.258V112.863C21.5039 113.366 21.8816 113.571 22.3437 113.319Z" fill="#E0E0E0"/>
<path d="M34.1006 124.58L27.2578 128.309C27.0126 128.459 26.8085 128.661 26.6625 128.899C26.5165 129.137 26.4327 129.405 26.418 129.68V131.28C26.418 131.787 26.7912 131.993 27.2578 131.741L34.1006 128.012V124.58Z" fill="#E0E0E0"/>
<path d="M106.737 27.9511V29.5519C106.723 29.8285 106.639 30.098 106.493 30.3384C106.347 30.5787 106.143 30.7831 105.897 30.9348L104.258 31.8273V28.3869L105.897 27.4944C106.36 27.2429 106.737 27.4441 106.737 27.9511Z" fill="#E0E0E0"/>
<path d="M104.258 83.189L111.105 79.4636C111.549 79.208 111.945 79.4133 111.945 79.9204V81.5211C111.929 81.7963 111.844 82.0639 111.698 82.3027C111.553 82.5414 111.349 82.7445 111.105 82.8956L104.258 86.621V83.189Z" fill="#E0E0E0"/>
<path d="M111.945 20.916V22.5167C111.929 22.7919 111.844 23.0595 111.698 23.2983C111.553 23.537 111.349 23.7401 111.105 23.8912L104.258 27.6166V24.1846L111.105 20.4592C111.567 20.2036 111.945 20.4089 111.945 20.916Z" fill="#E0E0E0"/>
<path d="M108.238 43.0865L116.014 38.8499C116.459 38.5985 116.854 38.8038 116.854 39.3067V40.9117C116.838 41.1863 116.754 41.4535 116.608 41.6916C116.462 41.9297 116.259 42.132 116.014 42.2819L108.238 46.5185C107.772 46.7699 107.398 46.5646 107.398 46.0618V44.4568C107.414 44.1821 107.498 43.9148 107.644 43.6766C107.79 43.4384 107.994 43.2362 108.238 43.0865Z" fill="#E0E0E0"/>
<path d="M104.258 66.3324L111.105 62.607C111.549 62.3514 111.945 62.5568 111.945 63.0638V64.6646C111.929 64.9397 111.844 65.2074 111.698 65.4461C111.553 65.6848 111.349 65.8879 111.105 66.0391L104.258 69.7644V66.3324Z" fill="#E0E0E0"/>
<path d="M111.945 4.05243V5.65738C111.933 5.93561 111.85 6.20703 111.704 6.44903C111.558 6.69103 111.352 6.89661 111.105 7.04862L104.258 10.7781V7.32519L111.105 3.59567C111.567 3.34424 111.945 3.54957 111.945 4.05243Z" fill="#E0E0E0"/>
<path d="M104.258 108.48L111.105 104.755C111.549 104.499 111.945 104.705 111.945 105.212V106.813C111.929 107.088 111.844 107.355 111.698 107.594C111.553 107.833 111.349 108.036 111.105 108.187L104.258 111.912V108.48Z" fill="#E0E0E0"/>
<path d="M119.733 46.2496V47.8545C119.716 48.129 119.632 48.396 119.486 48.634C119.34 48.872 119.137 49.0744 118.893 49.2248L111.117 53.4572C110.651 53.7128 110.277 53.5075 110.277 53.0004V51.3997C110.293 51.1244 110.377 50.8565 110.523 50.6176C110.669 50.3788 110.872 50.1758 111.117 50.0252L118.893 45.7928C119.355 45.5414 119.733 45.7467 119.733 46.2496Z" fill="#E0E0E0"/>
<path d="M111.945 37.7724V39.3732C111.929 39.6484 111.845 39.9162 111.699 40.155C111.553 40.3938 111.35 40.5968 111.105 40.7477L104.258 44.473V41.041L111.105 37.3157C111.567 37.06 111.945 37.2654 111.945 37.7724Z" fill="#E0E0E0"/>
<path d="M112.625 64.2949V62.6941C112.641 62.4189 112.725 62.1511 112.871 61.9123C113.017 61.6736 113.22 61.4705 113.465 61.3196L121.241 57.0873C121.707 56.8358 122.081 57.037 122.081 57.544V59.149C122.065 59.4237 121.981 59.691 121.835 59.9292C121.689 60.1673 121.485 60.3696 121.241 60.5193L113.465 64.7516C112.98 65.0073 112.625 64.8019 112.625 64.2949Z" fill="#E0E0E0"/>
<path d="M116.014 101.277L108.238 105.526C107.772 105.777 107.398 105.572 107.398 105.069V103.431C107.414 103.156 107.498 102.888 107.644 102.65C107.79 102.412 107.994 102.21 108.238 102.06L116.014 97.8279C116.459 97.5723 116.854 97.7776 116.854 98.2846V99.8854C116.841 100.163 116.757 100.434 116.612 100.676C116.466 100.918 116.261 101.124 116.014 101.277Z" fill="#E0E0E0"/>
<path d="M108.238 9.34917L116.014 5.11678C116.459 4.86536 116.854 5.07069 116.854 5.57355V7.1785C116.837 7.45296 116.753 7.71994 116.607 7.95794C116.461 8.19595 116.258 8.39833 116.014 8.54879L108.238 12.7812C107.772 13.0368 107.398 12.8315 107.398 12.3244V10.7236C107.414 10.4484 107.498 10.1804 107.644 9.94161C107.79 9.70278 107.993 9.4998 108.238 9.34917Z" fill="#E0E0E0"/>
<path d="M108.238 26.2079L116.014 21.9755C116.459 21.7241 116.854 21.9295 116.854 22.4323V24.0373C116.837 24.3117 116.753 24.5787 116.607 24.8167C116.461 25.0547 116.258 25.2571 116.014 25.4076L108.238 29.6441C107.772 29.8956 107.398 29.6902 107.398 29.1832V27.5824C107.414 27.3071 107.498 27.0392 107.644 26.8004C107.79 26.5615 107.993 26.3586 108.238 26.2079Z" fill="#E0E0E0"/>
<path d="M116.014 67.5555L108.238 71.7921C107.772 72.0435 107.398 71.8382 107.398 71.3311V69.7304C107.414 69.4551 107.498 69.1872 107.644 68.9483C107.79 68.7095 107.993 68.5065 108.238 68.3559L116.014 64.1235C116.459 63.8721 116.854 64.0774 116.854 64.5803V66.1852C116.837 66.4597 116.753 66.7267 116.607 66.9647C116.461 67.2027 116.258 67.405 116.014 67.5555Z" fill="#E0E0E0"/>
<path d="M104.258 91.621L111.105 87.8914C111.549 87.64 111.945 87.8453 111.945 88.3482V89.9532C111.928 90.2276 111.844 90.4946 111.698 90.7326C111.552 90.9706 111.349 91.173 111.105 91.3234L104.258 95.0488V91.621Z" fill="#E0E0E0"/>
<path d="M41.0312 109.112L97.1245 139.669V11.8093L41.0312 42.3705V109.112Z" fill="#344054"/>
<path opacity="0.4" d="M41.0312 109.112L97.1245 139.669V11.8093L41.0312 42.3705V109.112Z" fill="black"/>
<path d="M97.1245 139.67L41.0312 109.113V170.201L97.1245 139.67Z" fill="#E0E0E0"/>
<path d="M97.125 139.668L99.7466 141.089V10.3796L97.125 11.8086V139.668Z" fill="#344054"/>
<path opacity="0.4" d="M97.125 139.668L99.7466 141.089V10.3796L97.125 11.8086V139.668Z" fill="white"/>
<path opacity="0.1" d="M97.125 139.668L99.7466 141.089V10.3796L97.125 11.8086V139.668Z" fill="black"/>
<path d="M99.7446 141.088L104.255 138.633V1.41138L36.6797 38.2038L36.6841 175.425L41.0298 173.058V42.3691L99.7446 10.379V141.088Z" fill="#344054"/>
<path opacity="0.7" d="M99.7446 141.088L104.255 138.633V1.41138L36.6797 38.2038L36.6841 175.425L41.0298 173.058V42.3691L99.7446 10.379V141.088Z" fill="white"/>
<path d="M104.254 1.41219L36.6793 38.2046L34.0977 36.7882L101.673 0L104.254 1.41219Z" fill="#344054"/>
<path opacity="0.85" d="M104.254 1.41219L36.6793 38.2046L34.0977 36.7882L101.673 0L104.254 1.41219Z" fill="white"/>
<path d="M36.6802 175.425V38.2031L34.0986 36.7867L34.0586 173.996L36.6802 175.425Z" fill="#344054"/>
<path opacity="0.6" d="M34.0986 36.7867L34.0586 173.996L36.6802 175.425V38.2031" fill="white"/>
<path d="M129.215 30.0996C129.713 30.0587 130.214 30.0855 130.704 30.1792C131.176 30.2645 131.627 30.4291 132.037 30.6653C132.425 30.8889 132.757 31.1891 133.01 31.5453C133.238 31.8928 133.387 32.2814 133.447 32.6862C133.506 33.0911 133.476 33.5032 133.357 33.8962C133.253 34.1948 133.104 34.4772 132.912 34.7343C132.727 34.9869 132.519 35.2238 132.29 35.4425L131.641 36.0543C131.445 36.2387 131.267 36.4392 131.108 36.6535C130.967 36.8436 130.883 37.067 130.868 37.2989C130.856 37.4061 130.815 37.5086 130.748 37.5964C130.717 37.6385 130.676 37.6732 130.628 37.6979C130.58 37.7226 130.527 37.7366 130.473 37.7389L129.251 37.8352C129.193 37.8401 129.134 37.834 129.079 37.8175C129.023 37.8009 128.971 37.7742 128.926 37.7389C128.881 37.7068 128.844 37.665 128.818 37.617C128.793 37.569 128.78 37.516 128.78 37.4623C128.76 37.1014 128.819 36.7407 128.953 36.4021C129.078 36.1036 129.244 35.8219 129.446 35.564C129.641 35.3151 129.858 35.0824 130.095 34.8684C130.331 34.6547 130.539 34.4493 130.744 34.2608C130.927 34.0866 131.089 33.8941 131.228 33.6867C131.349 33.5088 131.404 33.2979 131.384 33.0874C131.37 32.9023 131.308 32.7232 131.204 32.5655C131.101 32.4078 130.958 32.2763 130.788 32.1823C130.365 31.9515 129.873 31.8587 129.389 31.9183C128.954 31.9461 128.539 32.1 128.201 32.3588C127.863 32.6176 127.618 32.9687 127.5 33.364C127.466 33.4587 127.417 33.5477 127.354 33.628C127.273 33.6954 127.168 33.7326 127.06 33.7328L125.763 33.8333C125.717 33.8387 125.67 33.8352 125.626 33.8229C125.582 33.8107 125.541 33.79 125.505 33.7621C125.468 33.7346 125.437 33.6997 125.416 33.6599C125.394 33.6201 125.382 33.5763 125.381 33.5316C125.365 33.1478 125.451 32.7663 125.629 32.4211C125.814 32.0168 126.072 31.6465 126.394 31.3274C126.755 30.9873 127.172 30.7043 127.629 30.4893C128.125 30.2611 128.664 30.1286 129.215 30.0996ZM130.619 38.644C130.734 38.6377 130.848 38.6738 130.935 38.7446C130.979 38.7779 131.016 38.8198 131.042 38.8675C131.068 38.9152 131.083 38.9676 131.086 39.0212L131.206 40.3537C131.214 40.4616 131.177 40.5682 131.104 40.6512C131.067 40.6932 131.022 40.7276 130.971 40.7521C130.92 40.7766 130.863 40.7908 130.806 40.7937L129.429 40.9027C129.372 40.908 129.314 40.9022 129.26 40.8856C129.206 40.8691 129.156 40.842 129.113 40.8063C129.069 40.7727 129.032 40.7308 129.005 40.6832C128.978 40.6356 128.962 40.5834 128.958 40.5297L128.842 39.1972C128.835 39.1435 128.841 39.0892 128.859 39.0378C128.876 38.9864 128.905 38.9393 128.944 38.8996C128.979 38.857 129.024 38.8219 129.074 38.7966C129.125 38.7713 129.18 38.7564 129.238 38.753L130.619 38.644Z" fill="#344054"/>
<path d="M139.168 44.5537C139.546 44.6527 139.907 44.8038 140.239 45.002C140.558 45.185 140.839 45.4206 141.07 45.6977C141.285 45.9661 141.436 46.2747 141.514 46.6028C141.599 46.9537 141.583 47.3195 141.47 47.663C141.396 47.9384 141.263 48.1966 141.079 48.4215C140.916 48.6156 140.725 48.7864 140.51 48.9285C140.299 49.0649 140.076 49.1841 139.843 49.2847L139.186 49.5697C138.988 49.6533 138.799 49.7543 138.622 49.8714C138.459 49.9746 138.333 50.1203 138.257 50.2904C138.216 50.3668 138.155 50.4318 138.079 50.479C138.044 50.5018 138.004 50.5167 137.961 50.5226C137.919 50.5284 137.876 50.5249 137.835 50.5125L136.906 50.2653C136.862 50.2551 136.82 50.2359 136.784 50.2092C136.748 50.1824 136.719 50.1487 136.698 50.1102C136.674 50.0751 136.659 50.0352 136.654 49.9938C136.65 49.9523 136.655 49.9104 136.671 49.8714C136.765 49.601 136.916 49.3515 137.115 49.138C137.295 48.9485 137.5 48.781 137.724 48.6394C137.941 48.5061 138.17 48.3911 138.408 48.2958C138.644 48.1994 138.853 48.1072 139.061 48.015C139.247 47.9357 139.423 47.8373 139.586 47.7217C139.73 47.617 139.832 47.4692 139.875 47.3026C139.922 47.1604 139.931 47.0092 139.901 46.8628C139.871 46.7163 139.802 46.5794 139.701 46.4645C139.458 46.1854 139.124 45.9895 138.75 45.9072C138.422 45.8142 138.071 45.8195 137.745 45.9223C137.42 46.0251 137.136 46.2203 136.933 46.4813C136.882 46.5422 136.82 46.5946 136.751 46.6363C136.672 46.6643 136.585 46.6643 136.507 46.6363L135.52 46.3723C135.485 46.3643 135.452 46.3498 135.423 46.3297C135.394 46.3095 135.37 46.2842 135.351 46.255C135.332 46.2245 135.319 46.1904 135.314 46.155C135.31 46.1196 135.313 46.0837 135.325 46.0497C135.426 45.763 135.6 45.5041 135.831 45.2954C136.09 45.0558 136.39 44.8602 136.72 44.7171C137.086 44.5612 137.476 44.4608 137.875 44.4196C138.311 44.3847 138.75 44.4303 139.168 44.5537ZM137.706 51.2123C137.749 51.2233 137.79 51.2423 137.825 51.2682C137.86 51.2941 137.889 51.3264 137.911 51.3632C137.933 51.4003 137.948 51.4413 137.953 51.4838C137.958 51.5263 137.954 51.5694 137.942 51.6104L137.64 52.6203C137.628 52.6609 137.608 52.6989 137.58 52.732C137.553 52.7651 137.519 52.7927 137.48 52.8131C137.44 52.8341 137.397 52.8475 137.352 52.8526C137.307 52.8576 137.261 52.8542 137.217 52.8424L136.169 52.5659C136.126 52.5546 136.086 52.535 136.051 52.5083C136.017 52.4816 135.989 52.4484 135.969 52.4108C135.946 52.3747 135.931 52.3345 135.925 52.2927C135.918 52.251 135.921 52.2084 135.933 52.1678L136.235 51.1537C136.248 51.1129 136.269 51.0749 136.297 51.0418C136.326 51.0088 136.36 50.9813 136.4 50.9609C136.438 50.9398 136.481 50.9263 136.526 50.9212C136.57 50.9162 136.615 50.9197 136.658 50.9316L137.706 51.2123Z" fill="#344054"/>
<g opacity="0.2">
<path d="M139.168 44.5511C139.546 44.6502 139.907 44.8012 140.239 44.9995C140.558 45.1824 140.839 45.4181 141.07 45.6951C141.285 45.9635 141.436 46.2721 141.514 46.6002C141.599 46.9512 141.583 47.3169 141.47 47.6604C141.396 47.9359 141.263 48.1941 141.079 48.4189C140.916 48.6131 140.725 48.7839 140.51 48.926C140.299 49.0623 140.076 49.1815 139.843 49.2821L139.186 49.5671C138.988 49.6507 138.799 49.7518 138.622 49.8688C138.459 49.972 138.333 50.1177 138.257 50.2879C138.216 50.3643 138.155 50.4293 138.079 50.4764C138.044 50.4993 138.004 50.5142 137.961 50.52C137.919 50.5258 137.876 50.5224 137.835 50.51L136.906 50.2627C136.862 50.2525 136.82 50.2334 136.784 50.2066C136.748 50.1799 136.719 50.1461 136.698 50.1077C136.674 50.0726 136.659 50.0327 136.654 49.9912C136.65 49.9498 136.655 49.9078 136.671 49.8688C136.765 49.5985 136.916 49.3489 137.115 49.1355C137.295 48.9459 137.5 48.7784 137.724 48.6368C137.941 48.5036 138.17 48.3886 138.408 48.2932C138.644 48.1968 138.853 48.1046 139.061 48.0124C139.247 47.9332 139.423 47.8348 139.586 47.7191C139.73 47.6144 139.832 47.4666 139.875 47.3001C139.922 47.1578 139.931 47.0066 139.901 46.8602C139.871 46.7138 139.802 46.5769 139.701 46.462C139.458 46.1828 139.124 45.9869 138.75 45.9046C138.422 45.8116 138.071 45.8169 137.745 45.9197C137.42 46.0225 137.136 46.2178 136.933 46.4787C136.882 46.5396 136.82 46.592 136.751 46.6338C136.672 46.6618 136.585 46.6618 136.507 46.6338L135.52 46.3698C135.485 46.3618 135.452 46.3473 135.423 46.3271C135.394 46.307 135.37 46.2816 135.351 46.2524C135.332 46.2219 135.319 46.1879 135.314 46.1525C135.31 46.1171 135.313 46.0811 135.325 46.0471C135.426 45.7605 135.6 45.5015 135.831 45.2928C136.09 45.0533 136.39 44.8576 136.72 44.7145C137.086 44.5586 137.476 44.4582 137.875 44.417C138.311 44.3821 138.75 44.4277 139.168 44.5511ZM137.706 51.2098C137.749 51.2207 137.79 51.2397 137.825 51.2657C137.86 51.2916 137.889 51.3239 137.911 51.3606C137.933 51.3978 137.948 51.4388 137.953 51.4813C137.958 51.5237 137.954 51.5668 137.942 51.6079L137.64 52.6178C137.628 52.6584 137.608 52.6963 137.58 52.7294C137.553 52.7625 137.519 52.7901 137.48 52.8105C137.44 52.8315 137.397 52.845 137.352 52.85C137.307 52.855 137.261 52.8516 137.217 52.8399L136.169 52.5633C136.126 52.552 136.086 52.5324 136.051 52.5057C136.017 52.479 135.989 52.4458 135.969 52.4082C135.946 52.3721 135.931 52.332 135.925 52.2902C135.918 52.2484 135.921 52.2059 135.933 52.1652L136.235 51.1511C136.248 51.1104 136.269 51.0723 136.297 51.0393C136.326 51.0062 136.36 50.9787 136.4 50.9583C136.438 50.9372 136.481 50.9237 136.526 50.9187C136.57 50.9136 136.615 50.9171 136.658 50.929L137.706 51.2098Z" fill="black"/>
</g>
<path d="M143.979 39.7791C144.017 39.8014 144.049 39.8308 144.073 39.8654C144.098 39.9001 144.114 39.9392 144.122 39.9802C144.131 40.0204 144.131 40.0619 144.122 40.1023C144.114 40.1426 144.097 40.1809 144.073 40.2149L143.464 41.053C143.44 41.0882 143.409 41.1183 143.372 41.1414C143.336 41.1645 143.294 41.1801 143.251 41.1871C143.208 41.1953 143.164 41.1955 143.121 41.1876C143.079 41.1797 143.038 41.1638 143.002 41.141L142.113 40.5795C142.077 40.557 142.045 40.5274 142.022 40.4928C141.998 40.4581 141.982 40.4191 141.975 40.3783C141.967 40.3381 141.967 40.2967 141.975 40.2564C141.983 40.2161 142 40.1778 142.024 40.1437L142.633 39.3056C142.683 39.2421 142.756 39.1984 142.838 39.1829C142.92 39.1675 143.005 39.1813 143.077 39.2218L143.979 39.7791ZM147.49 34.0423C147.806 34.2441 148.09 34.4867 148.334 34.7631C148.569 35.0249 148.753 35.3244 148.876 35.6473C148.995 35.9568 149.041 36.2873 149.009 36.6153C148.974 36.9652 148.842 37.3003 148.627 37.5875C148.468 37.8193 148.263 38.02 148.023 38.1783C147.808 38.3092 147.575 38.4108 147.33 38.48C147.09 38.5466 146.845 38.5929 146.597 38.6183L145.899 38.6896C145.688 38.7114 145.48 38.7521 145.277 38.8111C145.096 38.8594 144.933 38.9536 144.806 39.0835C144.747 39.1453 144.669 39.189 144.584 39.2092C144.543 39.22 144.5 39.2219 144.459 39.2147C144.417 39.2074 144.378 39.1912 144.344 39.1673L143.566 38.6728C143.529 38.65 143.498 38.6204 143.473 38.5858C143.449 38.5513 143.432 38.5125 143.424 38.4717C143.412 38.4314 143.411 38.389 143.42 38.3482C143.429 38.3073 143.449 38.2692 143.477 38.237C143.652 38.0162 143.869 37.8285 144.117 37.6838C144.345 37.5615 144.588 37.4672 144.841 37.4031C145.085 37.3413 145.333 37.2993 145.583 37.2774C145.832 37.2774 146.063 37.2355 146.281 37.2103C146.478 37.1888 146.671 37.1481 146.859 37.0888C147.021 37.0348 147.161 36.9335 147.259 36.7997C147.344 36.6827 147.398 36.548 147.415 36.4072C147.433 36.2663 147.415 36.1234 147.361 35.9909C147.228 35.6613 146.982 35.3828 146.663 35.1989C146.39 35.0188 146.064 34.9222 145.73 34.9222C145.396 34.9222 145.071 35.0188 144.797 35.1989C144.731 35.2413 144.657 35.2725 144.579 35.2911C144.496 35.2956 144.414 35.2718 144.348 35.224L143.522 34.7086C143.492 34.6911 143.466 34.6679 143.446 34.6405C143.426 34.6131 143.413 34.582 143.406 34.5494C143.397 34.5155 143.397 34.4802 143.404 34.4461C143.412 34.412 143.428 34.3799 143.451 34.3524C143.637 34.1179 143.881 33.9295 144.162 33.8035C144.48 33.6534 144.825 33.5596 145.179 33.5269C145.568 33.4866 145.961 33.5064 146.343 33.5856C146.753 33.6677 147.142 33.8227 147.49 34.0423Z" fill="#344054"/>
<g opacity="0.6">
<path d="M143.983 39.7803C144.021 39.8026 144.053 39.832 144.077 39.8666C144.102 39.9013 144.118 39.9404 144.125 39.9815C144.134 40.0217 144.135 40.0632 144.126 40.1035C144.118 40.1438 144.101 40.1821 144.077 40.2161L143.468 41.0542C143.444 41.0894 143.413 41.1195 143.376 41.1426C143.34 41.1657 143.298 41.1813 143.255 41.1883C143.212 41.1965 143.168 41.1967 143.125 41.1888C143.083 41.1809 143.042 41.165 143.006 41.1422L142.117 40.5807C142.08 40.5582 142.049 40.5286 142.025 40.494C142.002 40.4593 141.986 40.4203 141.979 40.3795C141.971 40.3393 141.97 40.2979 141.979 40.2576C141.987 40.2173 142.004 40.179 142.028 40.1449L142.637 39.3068C142.687 39.2434 142.76 39.1996 142.842 39.1842C142.924 39.1687 143.009 39.1825 143.081 39.223L143.983 39.7803ZM147.494 34.0435C147.809 34.2453 148.094 34.4879 148.338 34.7643C148.573 35.0261 148.757 35.3256 148.88 35.6485C148.999 35.958 149.045 36.2885 149.013 36.6165C148.978 36.9664 148.846 37.3015 148.631 37.5887C148.472 37.8206 148.267 38.0212 148.027 38.1795C147.812 38.3105 147.579 38.412 147.334 38.4813C147.094 38.5478 146.849 38.5941 146.6 38.6195L145.903 38.6908C145.692 38.7126 145.484 38.7533 145.281 38.8123C145.1 38.8606 144.937 38.9548 144.81 39.0847C144.751 39.1465 144.673 39.1902 144.588 39.2104C144.547 39.2213 144.504 39.2231 144.462 39.2159C144.421 39.2086 144.382 39.1924 144.348 39.1685L143.57 38.674C143.533 38.6512 143.502 38.6216 143.477 38.5871C143.453 38.5525 143.436 38.5137 143.428 38.4729C143.416 38.4326 143.415 38.3902 143.424 38.3494C143.433 38.3085 143.453 38.2704 143.481 38.2382C143.656 38.0174 143.873 37.8298 144.121 37.6851C144.349 37.5628 144.592 37.4684 144.845 37.4043C145.088 37.3425 145.337 37.3005 145.587 37.2786C145.836 37.2786 146.067 37.2367 146.285 37.2115C146.481 37.1901 146.675 37.1493 146.863 37.09C147.025 37.036 147.165 36.9348 147.263 36.8009C147.348 36.684 147.402 36.5493 147.419 36.4084C147.437 36.2675 147.418 36.1246 147.365 35.9921C147.232 35.6625 146.986 35.384 146.667 35.2001C146.393 35.02 146.068 34.9235 145.734 34.9235C145.4 34.9235 145.075 35.02 144.801 35.2001C144.735 35.2426 144.661 35.2738 144.583 35.2923C144.5 35.2968 144.418 35.273 144.352 35.2253L143.526 34.7098C143.496 34.6923 143.47 34.6691 143.45 34.6417C143.43 34.6143 143.417 34.5833 143.41 34.5506C143.401 34.5167 143.401 34.4814 143.408 34.4473C143.416 34.4132 143.432 34.3812 143.455 34.3536C143.641 34.1191 143.885 33.9307 144.165 33.8047C144.484 33.6546 144.829 33.5608 145.183 33.5281C145.572 33.4878 145.965 33.5076 146.347 33.5868C146.757 33.6689 147.146 33.8239 147.494 34.0435Z" fill="white"/>
</g>
<path d="M107.334 153.293C107.236 154.29 107.925 156.888 107.925 156.888C107.925 156.888 108.511 157.726 110.182 158.112L110.297 154.34L107.334 153.293Z" fill="#263238"/>
<path d="M110.184 158.092L113.481 156.52L113.845 153.499L110.25 155.917L110.184 158.092Z" fill="black"/>
<path d="M112.689 148.938L112.623 148.306C113.129 148.456 114.458 151.989 116.257 154.243C117.901 156.301 120.638 157.177 121.62 158.04C122.931 159.184 121.065 161.174 117.515 160.973C115.737 160.873 113.005 160.219 112.129 159.234C111.254 158.25 110.69 156.301 109.988 155.572C109.286 154.843 107.766 154.134 107.344 153.267C107.104 152.789 107.193 151.683 107.344 150.753C107.477 149.885 107.624 148.934 107.939 148.98C107.939 149.085 108.015 149.512 108.015 149.512C108.121 149.931 108.712 150.376 110.556 150.187C111.374 150.095 112.836 149.797 112.689 148.938Z" fill="#455A64"/>
<path d="M76.3253 133.974C75.7609 134.707 74.7656 139.841 74.7656 139.841C74.7656 139.841 76.0675 141.634 76.8185 142.179L79.2312 137.352L76.3253 133.974Z" fill="#263238"/>
<path d="M76.8203 142.158L81.2459 141.198L82.89 137.984L78.2822 139.195L76.8203 142.158Z" fill="black"/>
<path d="M79.6221 130.717C79.3688 130.537 79.0045 131.006 78.1202 131.752C77.4982 132.276 76.1562 132.77 76.1562 134.266C76.1562 135.343 76.9161 136.672 77.6448 137.786C78.3735 138.901 78.4801 139.902 78.4757 141.486C78.4757 143.401 78.1025 144.575 80.5996 146.28C82.5992 147.642 86.6604 147.894 87.5535 147.118C89.0821 145.769 85.514 143.917 84.9319 141.155C84.1321 137.346 84.0433 136.709 84.1543 134.032L79.6221 130.717Z" fill="#455A64"/>
<path d="M118.696 83.8976C116.75 84.8907 110.84 85.1547 102.549 83.4785L103.531 106.107C103.531 106.107 96.2656 110.968 94.0306 113.621C91.7955 116.273 81.047 129.159 81.047 129.159L79.5629 130.781C78.6431 131.786 79.1186 133.144 80.185 134.012C81.2114 134.808 82.5489 135.369 83.5486 134.548L84.775 133.542C84.775 133.542 108.796 116.08 109.658 114.966C110.52 113.851 112.542 111.085 114.723 105.248C117.541 97.7597 118.012 92.3372 118.696 83.8976Z" fill="#FFA8A7"/>
<path d="M118.692 83.8975C113.444 86.1687 102.895 85.3935 102.895 85.3935L103.38 106.073C100.727 107.595 98.244 109.366 95.9682 111.358C92.8223 114.216 88.0234 120.158 88.0234 120.158C89.6675 124.52 94.3508 126.557 94.3508 126.557C94.3508 126.557 104.202 120.049 109.712 116.365C112.595 114.442 114.764 113.369 115.63 110.239C116.312 107.842 116.837 105.409 117.203 102.952C117.674 100.249 117.901 97.1729 118.176 94.8975C118.646 91.2486 118.818 87.5712 118.692 83.8975Z" fill="#344054"/>
<path opacity="0.4" d="M118.692 83.8975C113.444 86.1687 102.895 85.3935 102.895 85.3935L103.38 106.073C100.727 107.595 98.244 109.366 95.9682 111.358C92.8223 114.216 88.0234 120.158 88.0234 120.158C89.6675 124.52 94.3508 126.557 94.3508 126.557C94.3508 126.557 104.202 120.049 109.712 116.365C112.595 114.442 114.764 113.369 115.63 110.239C116.312 107.842 116.837 105.409 117.203 102.952C117.674 100.249 117.901 97.1729 118.176 94.8975C118.646 91.2486 118.818 87.5712 118.692 83.8975Z" fill="black"/>
<path opacity="0.1" d="M109.933 110.728L109.098 99.2968L105.987 96.5688L103.321 103.295L103.388 106.073C101.667 107.065 100.013 108.155 98.4336 109.337L98.8779 110.347L101.406 116.109C101.406 116.109 100.518 120.04 100.891 122.21C103.801 120.283 107.112 118.083 109.595 116.428L109.933 110.728Z" fill="black"/>
<path d="M112.857 149.437V148.968C112.475 144.74 113.093 121.491 113.066 115.218C113.035 108.425 111.733 91.9689 111.733 91.9689C111.733 91.9689 115.99 86.7266 118.731 83.898C116.141 86.6931 103.077 85.2767 102.291 79.8961C101.22 82.0165 97.4032 84.2039 97.0877 91.1727C96.6433 100.052 103.308 115.754 103.308 115.754C103.055 116.94 101.913 121.91 102.584 126.498C103.642 133.74 107.436 146.541 107.836 148.289L108.081 149.777C108.912 150.749 112.257 150.602 112.857 149.437Z" fill="#FFA8A7"/>
<path d="M113.161 102.793L112.779 93.5194C112.779 93.5194 116.738 92.5472 118.342 89.4085C118.642 87.586 118.761 85.7413 118.698 83.898C118.698 83.898 115.237 85.4108 110.371 84.2919C107.304 83.5192 104.504 82.0039 102.248 79.8961C102.248 79.8961 101.315 80.7635 99.4003 83.458C98.4849 84.7445 96.9386 88.0675 96.8053 90.6615C96.4988 96.5826 98.5027 102.902 98.5027 102.902C99.5247 107.537 102.626 115.972 102.626 115.972C102.626 115.972 101.444 122.115 102.04 126.519C102.635 130.924 104.523 135.902 104.523 135.902C104.523 135.902 109.789 137.578 113.25 135.634C113.25 135.634 113.415 120.317 113.477 114.342C113.539 108.366 113.161 102.793 113.161 102.793Z" fill="#344054"/>
<path opacity="0.3" d="M113.161 102.793L112.779 93.5194C112.779 93.5194 116.738 92.5472 118.342 89.4085C118.642 87.586 118.761 85.7413 118.698 83.898C118.698 83.898 115.237 85.4108 110.371 84.2919C107.304 83.5192 104.504 82.0039 102.248 79.8961C102.248 79.8961 101.315 80.7635 99.4003 83.458C98.4849 84.7445 96.9386 88.0675 96.8053 90.6615C96.4988 96.5826 98.5027 102.902 98.5027 102.902C99.5247 107.537 102.626 115.972 102.626 115.972C102.626 115.972 101.444 122.115 102.04 126.519C102.635 130.924 104.523 135.902 104.523 135.902C104.523 135.902 109.789 137.578 113.25 135.634C113.25 135.634 113.415 120.317 113.477 114.342C113.539 108.366 113.161 102.793 113.161 102.793Z" fill="black"/>
<path d="M131.004 63.9302C131.605 63.288 131.955 62.4722 131.999 61.617C132.043 60.7617 131.776 59.9179 131.244 59.2243C129.418 56.5299 125.108 57.5775 125.108 57.5775L123.957 55.8301C124.391 55.7213 124.845 55.6956 125.29 55.7546C126.098 55.7837 126.904 55.6759 127.672 55.4361C128.495 55.2216 129.211 54.7391 129.693 54.0742C129.922 53.7375 130.026 53.3382 129.987 52.9397C129.949 52.5412 129.77 52.1663 129.48 51.8742C129.907 51.8771 130.331 51.7941 130.721 51.6308C131.112 51.4675 131.462 51.2277 131.746 50.9273C132.031 50.6269 132.245 50.2727 132.374 49.8883C132.503 49.5039 132.543 49.0981 132.493 48.6979C132.476 48.453 132.38 48.2189 132.217 48.0274C131.987 47.8352 131.709 47.7011 131.408 47.6377C130.597 47.3694 129.857 46.9408 129.236 46.3805C128.005 45.27 127.485 43.9668 125.783 42.9234C124.343 42.0296 122.655 41.5573 120.931 41.5657C118.98 41.5657 117.221 42.0937 115.901 43.6148C113.724 43.6148 110.889 44.8342 108.952 49.9005C107.045 54.8872 107.738 60.712 111.342 65.9207C113.719 69.3569 123.197 75.0644 129.973 72.8141C136.749 70.5638 133.901 64.0895 131.004 63.9302Z" fill="#263238"/>
<path d="M119.701 62.5802C124.962 63.5021 125.264 65.9787 125.53 68.1452C126.219 73.7897 125.033 83.1135 124.62 85.1669C124.62 85.1669 117.546 83.1303 117.626 82.7993C117.706 82.4682 119.701 62.5802 119.701 62.5802Z" fill="#FFA8A7"/>
<path d="M119.785 81.8955C119.785 81.8955 122.167 81.3717 123.967 81.8955C123.967 81.8955 122.487 80.4456 119.105 81.3885L119.785 81.8955Z" fill="#F28F8F"/>
<path d="M119.179 83.4959C119.941 81.6912 120.535 79.8279 120.957 77.9268C124.471 76.2213 125.24 73.6776 124.511 71.2933C123.001 66.3862 121.53 63.9976 120.179 62.5812C119.131 61.8814 115.398 60.9051 115.398 60.9051C114.732 60.8045 108.693 60.0879 106.849 59.9454C105.852 60.6729 105.094 61.6523 104.663 62.7698C104.307 63.8091 103.685 64.6932 103.685 68.2468L104.387 74.5995C104.387 74.5995 104.574 76.502 103.868 77.6083C103.161 78.7146 100.282 80.7386 98.9531 83.475C98.9531 83.475 99.1131 87.6403 107.236 89.3794C113.843 90.7957 118.744 88.5413 118.744 88.5413C119.034 86.8734 119.179 85.186 119.179 83.4959Z" fill="#F5F5F5"/>
<path d="M124.698 73.6315C124.478 73.3684 124.16 73.1945 123.809 73.1454C123.045 73.0574 122.321 73.4345 121.614 73.7321C120.308 74.281 118.806 74.5702 117.442 74.1721C115.967 73.7237 114.776 72.4959 113.243 72.3702C111.781 72.2612 110.475 73.2083 109.399 74.1344C107.809 75.5298 106.333 77.0677 104.512 78.1949C103.73 78.6676 102.92 79.0971 102.086 79.4814L101.73 79.8334L101.659 79.9046C101.388 80.177 101.108 80.4662 100.837 80.7679L100.735 80.8852L100.442 81.2204L100.299 81.3923L100.055 81.6982L99.9083 81.8909L99.6817 82.2094L99.5484 82.4064C99.4684 82.5237 99.3973 82.641 99.3218 82.7625L99.2151 82.9385C99.1129 83.1187 99.0107 83.3031 98.9219 83.4917C98.9503 83.7788 99.0206 84.0608 99.1307 84.3298C99.3057 84.7646 99.5403 85.1759 99.8283 85.5534C99.9483 85.7085 100.077 85.8635 100.224 86.0227C101.339 87.2254 103.396 88.5747 107.2 89.3751C108.705 89.6992 110.246 89.8553 111.79 89.8403C112.31 89.8403 112.807 89.8109 113.283 89.769C113.758 89.7271 114.207 89.6768 114.616 89.614C115.176 89.5302 115.691 89.4296 116.153 89.3248C117.028 89.1369 117.881 88.8674 118.699 88.5203C118.902 87.3832 119.033 86.2358 119.09 85.0841C119.09 84.8368 119.117 84.5812 119.126 84.313C119.135 84.0448 119.126 83.7641 119.126 83.4749C119.57 82.289 119.979 81.2121 120.281 80.2734C120.357 80.0387 120.428 79.8124 120.49 79.5945C120.662 79.0438 120.8 78.4841 120.903 77.9184C123.329 76.7744 124.449 75.2406 124.698 73.6315Z" fill="#EBEBEB"/>
<path d="M127.009 48.3453C127.396 49.1624 128 50.4699 126.632 55.599C125.472 59.9445 123.712 60.703 122.882 60.8497C122.051 60.9964 120.66 60.5019 119.665 60.1415L118.038 62.8653C118.185 64.0386 118.611 66.4021 117.789 67.8939C115.399 66.1758 112.955 64.0973 111.28 60.8455L113.901 55.4356C113.901 55.4356 112.382 56.1228 111.569 54.4802C110.818 52.9674 111.098 51.7061 112.213 51.0314C112.473 50.8745 112.771 50.782 113.079 50.7625C113.387 50.7431 113.696 50.7973 113.976 50.9202C114.256 51.043 114.498 51.2305 114.681 51.4653C114.864 51.7001 114.981 51.9746 115.021 52.2634C115.261 53.5583 116.594 53.6546 116.963 51.7312C117.074 51.1445 117.598 47.9598 120.002 47.2516C122.842 50.6249 126.458 50.1514 127.009 48.3453Z" fill="#FFA8A7"/>
<path d="M120.797 52.7805C120.771 52.8936 120.71 52.9969 120.623 53.0777C120.535 53.1585 120.424 53.2132 120.303 53.235C120.183 53.2568 120.058 53.2447 119.945 53.2003C119.831 53.1559 119.734 53.0811 119.666 52.9851C119.597 52.8892 119.56 52.7764 119.559 52.6606C119.557 52.5449 119.592 52.4314 119.659 52.3342C119.725 52.237 119.821 52.1603 119.933 52.1138C120.045 52.0672 120.17 52.0528 120.291 52.0723C120.373 52.0874 120.452 52.1176 120.522 52.1614C120.592 52.2051 120.653 52.2615 120.7 52.3273C120.747 52.3931 120.78 52.467 120.796 52.5447C120.813 52.6225 120.813 52.7026 120.797 52.7805Z" fill="#263238"/>
<path d="M121.508 57.3875C121.496 57.462 121.468 57.5334 121.427 57.5978C121.386 57.6622 121.331 57.7182 121.267 57.7627C121.202 57.8071 121.129 57.839 121.052 57.8566C120.974 57.8742 120.893 57.8772 120.815 57.8652C120.691 57.85 120.576 57.8003 120.483 57.7225C120.39 57.6447 120.324 57.5425 120.293 57.4289C120.262 57.3153 120.268 57.1956 120.31 57.0853C120.352 56.975 120.428 56.8791 120.528 56.8099C120.629 56.7407 120.749 56.7015 120.873 56.6973C120.997 56.6931 121.12 56.724 121.225 56.7862C121.331 56.8483 121.414 56.9388 121.464 57.046C121.515 57.1532 121.53 57.2722 121.508 57.3875Z" fill="#B16668"/>
<path d="M126.077 51.9749L125.086 50.9482C125.152 50.8831 125.231 50.8312 125.319 50.7958C125.407 50.7603 125.501 50.7421 125.597 50.7421C125.692 50.7421 125.787 50.7603 125.875 50.7958C125.963 50.8312 126.042 50.8831 126.108 50.9482C126.247 51.0886 126.322 51.2753 126.317 51.4676C126.311 51.6599 126.225 51.8423 126.077 51.9749Z" fill="#263238"/>
<path d="M120.593 50.3371L119.238 50.8734C119.196 50.7916 119.172 50.7026 119.169 50.6118C119.165 50.5211 119.18 50.4306 119.215 50.3458C119.25 50.261 119.302 50.1838 119.369 50.1189C119.437 50.054 119.517 50.0027 119.607 49.9683C119.79 49.8984 119.994 49.8978 120.178 49.9664C120.362 50.0351 120.51 50.1678 120.593 50.3371Z" fill="#263238"/>
<path d="M125.456 53.5959C125.441 53.6723 125.411 53.7454 125.367 53.8109C125.323 53.8765 125.265 53.9331 125.198 53.9777C125.13 54.0222 125.054 54.0538 124.974 54.0706C124.893 54.0874 124.81 54.0892 124.729 54.0757C124.648 54.0622 124.571 54.0338 124.501 53.992C124.432 53.9503 124.372 53.8961 124.324 53.8325C124.277 53.7688 124.244 53.6971 124.226 53.6212C124.208 53.5454 124.206 53.467 124.22 53.3905C124.249 53.236 124.342 53.0987 124.478 53.0087C124.615 52.9187 124.783 52.8835 124.947 52.9107C125.111 52.9379 125.256 53.0254 125.352 53.1539C125.447 53.2824 125.485 53.4414 125.456 53.5959Z" fill="#263238"/>
<path d="M122.598 52.4358L122.305 56.3287L124.504 55.8887L122.598 52.4358Z" fill="#F28F8F"/>
<path d="M119.665 60.1422C118.221 59.6393 114.973 57.9841 114.777 56.7395C114.832 57.3539 115.083 57.9383 115.497 58.4157C116.235 59.3502 119.127 61.0306 119.127 61.0306L119.665 60.1422Z" fill="#F28F8F"/>
<path d="M121.408 62.1204C121.252 61.6552 120.617 61.6091 120.617 61.6091C120.666 61.427 120.671 61.2369 120.632 61.0527C120.593 60.8685 120.51 60.6949 120.39 60.5448C120.174 60.3956 119.912 60.3189 119.644 60.3269C119.804 59.9958 119.595 59.2415 119.16 59.1493C118.746 59.108 118.328 59.1264 117.92 59.2038C117.495 59.4724 117.128 59.8135 116.836 60.2095L117.507 59.0069C118.099 58.862 118.681 58.6814 119.248 58.4663C119.915 58.1478 119.884 57.4606 119.626 57.4229C119.043 57.4332 118.462 57.4892 117.889 57.5905C117.16 57.7036 116.24 57.6994 115.991 58.1268C115.743 58.5543 115.467 59.0655 114.956 60.0461C114.445 61.0267 114.303 61.3242 114.37 61.8857C114.436 62.4472 114.427 63.5619 114.61 64.9573C114.792 66.3528 114.499 66.6796 113.845 67.4716C113.401 68.0038 110.655 70.5726 107.758 73.0701L108.153 67.6434C108.153 67.6434 109.095 62.0617 106.851 59.9749C103.83 59.5139 102.364 60.813 101.693 62.3425C100.515 65.0495 100.862 72.7642 101.088 76.8248C101.315 80.8853 103.008 82.4233 104.305 82.6914C105.603 82.9596 109.158 81.5474 111.486 78.6602C113.317 76.6781 117.236 70.1493 117.809 69.24C118.227 68.5374 118.74 67.8882 119.333 67.3082C119.777 66.8891 120.133 65.213 120.133 64.2114C120.23 64.5257 120.577 64.7771 120.857 64.5802C120.915 64.0648 121.452 62.4598 121.408 62.1204Z" fill="#FFA8A7"/>
<path d="M113.832 67.4581C114.064 67.1986 114.268 66.9178 114.441 66.62C114.588 66.3052 114.654 65.9619 114.632 65.6185C114.632 65.2748 114.57 64.9312 114.53 64.5918C114.49 64.2524 114.459 63.9046 114.432 63.5609L114.37 62.5301L114.334 62.0146C114.309 61.8411 114.301 61.6657 114.312 61.4908C114.374 61.1468 114.494 60.8143 114.667 60.5061C114.818 60.1918 114.983 59.8859 115.152 59.58L115.645 58.6539L115.894 58.1929C115.972 58.0247 116.117 57.8923 116.298 57.8242C116.646 57.7078 117.009 57.636 117.378 57.6105C117.742 57.5727 118.098 57.5057 118.462 57.4638C118.826 57.4219 119.186 57.38 119.56 57.3716C119.619 57.3689 119.677 57.3868 119.724 57.4219C119.765 57.4575 119.795 57.5022 119.813 57.5518C119.837 57.644 119.837 57.7404 119.813 57.8326C119.782 58.0141 119.69 58.1814 119.551 58.3103C119.256 58.5296 118.915 58.6868 118.551 58.7712C118.2 58.8802 117.849 58.9765 117.498 59.0687L117.538 59.0394L116.876 60.2505L116.774 60.1918C116.933 60.0015 117.104 59.8196 117.285 59.647C117.373 59.5604 117.467 59.4766 117.564 59.3956C117.66 59.3081 117.767 59.2334 117.884 59.1735C118.109 59.1323 118.336 59.1057 118.564 59.0939C118.799 59.0667 119.038 59.0896 119.262 59.1609C119.465 59.2871 119.608 59.4823 119.662 59.7057C119.737 59.9206 119.737 60.1528 119.662 60.3678L119.613 60.3007C119.785 60.3005 119.956 60.326 120.119 60.3762C120.206 60.4016 120.286 60.4429 120.355 60.4977C120.417 60.5567 120.471 60.6229 120.515 60.6946C120.676 60.9844 120.718 61.3206 120.63 61.6375L120.59 61.583C120.766 61.6022 120.936 61.6565 121.088 61.7423C121.243 61.8293 121.36 61.9662 121.417 62.1278C121.41 62.3402 121.377 62.5511 121.319 62.7564L121.155 63.364C121.048 63.783 120.919 64.1686 120.844 64.5708C120.771 64.6168 120.685 64.6413 120.597 64.6413C120.509 64.6413 120.423 64.6168 120.35 64.5708C120.21 64.4783 120.109 64.3416 120.066 64.1853H120.133C120.122 64.6583 120.067 65.1295 119.968 65.5933C119.874 66.0587 119.725 66.5127 119.524 66.9468C119.414 67.1581 119.263 67.3484 119.08 67.5084C118.911 67.6844 118.746 67.8604 118.595 68.0448C118.291 68.4172 118.012 68.8077 117.76 69.2139C118.006 68.8045 118.279 68.4098 118.578 68.0322C118.729 67.8478 118.889 67.6676 119.057 67.4916C119.241 67.3323 119.392 67.1418 119.502 66.9301C119.692 66.4963 119.829 66.0436 119.911 65.5807C120.005 65.1206 120.057 64.6538 120.066 64.1853V63.9632L120.133 64.1769C120.175 64.3157 120.266 64.4369 120.39 64.5206C120.449 64.5634 120.521 64.5866 120.595 64.5866C120.669 64.5866 120.741 64.5634 120.799 64.5206V64.5457C120.879 64.1267 121.004 63.7327 121.11 63.3263L121.266 62.7228C121.322 62.5259 121.354 62.3233 121.359 62.1194C121.294 61.9802 121.189 61.8612 121.055 61.7759C120.921 61.6907 120.765 61.6427 120.604 61.6375H120.55V61.5872C120.627 61.2922 120.587 60.9811 120.439 60.7114C120.405 60.6459 120.357 60.5876 120.298 60.5401C120.239 60.4926 120.171 60.4567 120.097 60.4348C119.943 60.3895 119.783 60.3668 119.622 60.3678H119.551L119.577 60.3007C119.644 60.1074 119.644 59.8991 119.577 59.7057C119.531 59.5082 119.405 59.3354 119.226 59.2238C119.018 59.1627 118.798 59.1442 118.582 59.1693C118.36 59.1832 118.139 59.2098 117.92 59.2489C117.817 59.3092 117.721 59.3779 117.631 59.4543C117.538 59.5339 117.445 59.6177 117.36 59.7015C117.182 59.8733 117.018 60.0535 116.858 60.2421L116.494 60.6611L116.756 60.175L117.418 58.9598V58.9346H117.444C117.796 58.8425 118.147 58.7503 118.489 58.6413C118.837 58.568 119.164 58.4251 119.448 58.2223C119.568 58.1069 119.65 57.9614 119.684 57.8032C119.711 57.6566 119.684 57.447 119.524 57.4638C119.161 57.4711 118.799 57.499 118.44 57.5476C118.08 57.5895 117.72 57.6524 117.356 57.6901C116.995 57.7118 116.639 57.7794 116.298 57.8912C116.135 57.9525 116.005 58.0713 115.934 58.2223L115.685 58.6832L115.187 59.6009C115.023 59.9068 114.854 60.2127 114.698 60.527C114.528 60.8268 114.411 61.151 114.352 61.4866C114.332 61.6551 114.332 61.8252 114.352 61.9937L114.383 62.5133L114.436 63.5442C114.459 63.8878 114.485 64.2314 114.521 64.575C114.556 64.9186 114.605 65.2581 114.61 65.6059C114.626 65.952 114.554 66.2967 114.401 66.6116C114.242 66.9112 114.051 67.1948 113.832 67.4581Z" fill="#B16668"/>
<path d="M119.662 60.3773C119.698 60.2589 119.71 60.1352 119.698 60.0127C119.334 60.1049 118.863 60.151 118.56 60.2516C118.315 60.3374 118.113 60.5082 117.996 60.7293C118.152 60.5742 118.596 60.3731 119.662 60.3773Z" fill="#B16668"/>
<path d="M119.336 61.9107C119.726 61.7073 120.171 61.6169 120.616 61.6509C120.638 61.5361 120.651 61.4198 120.656 61.3031C119.616 61.4456 119.336 61.9107 119.336 61.9107Z" fill="#B16668"/>
<path d="M120.079 64.4551C120.12 64.0125 120.108 63.5669 120.043 63.1268C119.994 62.8628 119.976 62.7077 120.292 62.7538C120.607 62.7999 121.043 62.4353 120.958 62.6826C120.914 62.8167 120.354 63.0388 120.319 63.2273C120.282 63.6431 120.201 64.0543 120.079 64.4551Z" fill="#B16668"/>
<path d="M107.733 73.0567C106.933 73.681 104.223 75.6338 103.845 77.6243C103.845 77.6243 103.467 76.1325 105.023 74.4731C105.897 73.53 106.832 72.6385 107.822 71.8037L107.733 73.0567Z" fill="#F28F8F"/>
<path d="M124.62 85.1694C124.349 86.6571 123.847 87.2018 122.238 87.8681C119.617 88.9535 109.117 91.7569 106.016 91.7778C104.254 91.8086 102.5 91.5593 100.826 91.0403C100.525 90.9729 100.257 90.8138 100.061 90.5877C99.9486 90.395 99.7978 90.2244 99.6172 90.0849C99.3937 89.9585 99.1622 89.8452 98.924 89.7455C98.6442 89.5811 98.4421 89.3215 98.3597 89.0205C98.3444 88.8229 98.2789 88.6318 98.1686 88.4632C98.0362 88.3345 97.9171 88.1942 97.8131 88.0441C97.6936 87.8435 97.6338 87.6162 97.6398 87.3862C97.6498 87.2708 97.6392 87.1547 97.6087 87.0426C97.5608 86.9409 97.4912 86.8497 97.4043 86.7744C97.3123 86.6772 97.2262 86.5751 97.1466 86.4685C97.0652 86.3817 97.0141 86.2735 97 86.1584C97.0159 86.0656 97.0556 85.9779 97.1155 85.9028C97.4799 85.3622 98.2975 85.4837 98.8929 85.5424C99.5994 85.6178 100.293 85.7477 100.999 85.8274C101.982 85.9384 102.975 85.9594 103.963 85.8902V84.1679C104.678 84.3173 105.355 84.5962 105.958 84.9893C107.113 85.6597 107.811 86.5649 109.957 86.0285C112.103 85.4921 117.217 82.7515 119.786 81.9051C122.354 81.0586 124.776 84.2894 124.62 85.1694Z" fill="#FFA8A7"/>
<path d="M41.0273 170.944L103.95 161.734V33.1361L41.0273 42.3677V170.944Z" fill="#455A64"/>
<path d="M102.035 32.092L103.95 33.1355L41.0273 42.3671L44.3554 40.5526L102.035 32.092Z" fill="#37474F"/>
<path d="M48.4141 108.947L92.448 102.493V154.761L48.4141 161.21V108.947Z" fill="#455A64"/>
<path opacity="0.1" d="M48.4141 108.947L92.448 102.493V154.761L48.4141 161.21V108.947Z" fill="black"/>
<path d="M51.7188 111.614L89.1454 106.125V152.086L51.7188 157.575V111.614Z" fill="#455A64"/>
<path d="M48.4141 161.208L51.7199 157.575L89.1466 152.086L92.448 154.759L48.4141 161.208Z" fill="#263238"/>
<path d="M48.4141 108.945L51.7199 111.615V157.576L48.4141 161.209V108.945Z" fill="#37474F"/>
<path d="M89.1445 106.126L92.446 102.493V154.761L89.1445 152.087V106.126Z" fill="#37474F"/>
<path d="M73.4297 45.6523L92.4474 42.8615V95.1293L73.4341 97.916L73.4297 45.6523Z" fill="#455A64"/>
<path opacity="0.1" d="M73.4297 45.6523L92.4474 42.8615V95.1293L73.4341 97.916L73.4297 45.6523Z" fill="black"/>
<path d="M76.7344 48.3226L89.1447 46.4998V92.4609L76.7344 94.2838V48.3226Z" fill="#455A64"/>
<path d="M73.4336 97.9168L76.735 94.2837L89.1454 92.4608L92.4468 95.1301L73.4336 97.9168Z" fill="#263238"/>
<path d="M73.4297 45.653L76.7356 48.3223V94.2835L73.4341 97.9166L73.4297 45.653Z" fill="#37474F"/>
<path d="M89.1445 46.4988L92.446 42.8615V95.1293L89.1445 92.46V46.4988Z" fill="#37474F"/>
<path d="M48.4453 49.3018L67.463 46.511V98.7788L48.4453 101.566V49.3018Z" fill="#455A64"/>
<path opacity="0.1" d="M48.4453 49.3018L67.463 46.511V98.7788L48.4453 101.566V49.3018Z" fill="black"/>
<path d="M51.7461 51.9719L64.1565 50.1449L64.1609 96.1103L51.7461 97.9331V51.9719Z" fill="#455A64"/>
<path d="M48.4453 101.566L51.7467 97.9332L64.1616 96.1104L67.463 98.7797L48.4453 101.566Z" fill="#263238"/>
<path d="M48.4453 49.3025L51.7467 51.9718V97.933L48.4453 101.566V49.3025Z" fill="#37474F"/>
<path d="M64.1562 50.1441L67.4621 46.511V98.7788L64.1607 96.1095L64.1562 50.1441Z" fill="#37474F"/>
<path d="M95.4688 92.9729L96.3263 93.79V107.216L95.4688 106.403V92.9729Z" fill="#E0E0E0"/>
<path d="M96.3281 93.7902L100.954 93.1365V106.567L96.3281 107.216V93.7902Z" fill="#FAFAFA"/>
<path opacity="0.05" d="M100.954 96.8331L96.3281 97.4701V100.098L100.954 99.4648V96.8331Z" fill="black"/>
<path d="M100.952 93.1362L100.094 92.3232L95.4688 92.9728L96.3263 93.7899L100.952 93.1362Z" fill="#EBEBEB"/>
<path d="M98.0995 96.3335L100.223 98.3449L101.072 97.2973L98.9482 95.2901C98.8943 95.2375 98.8279 95.1979 98.7544 95.1745C98.681 95.1512 98.6026 95.1448 98.526 95.156C98.3511 95.1946 98.1957 95.2892 98.0864 95.4236C97.977 95.5581 97.9204 95.7241 97.9262 95.8935C97.9215 96.0558 97.9836 96.2134 98.0995 96.3335Z" fill="#E0E0E0"/>
<path opacity="0.1" d="M96.3281 97.4943L99.7007 97.8463V96.8909L100.523 96.7778L99.7495 96.0444L96.3281 96.5347V97.4943Z" fill="black"/>
<path d="M89.3828 98.6464V100.742L101.433 99.0403V96.9451L89.3828 98.6464Z" fill="#FAFAFA"/>
<path d="M89.382 98.6463L88.6133 97.913V100.012L89.382 100.742V98.6463Z" fill="#E0E0E0"/>
<path d="M101.432 96.9459L100.659 96.2125L88.6133 97.9139L89.382 98.6472L101.432 96.9459Z" fill="#EBEBEB"/>
<path d="M97.86 102.166C97.8545 101.946 97.9291 101.731 98.0714 101.556C98.2137 101.382 98.4151 101.258 98.6421 101.207C98.7474 101.198 98.8536 101.211 98.953 101.245C99.0524 101.279 99.1425 101.333 99.2168 101.404C99.2912 101.475 99.348 101.561 99.383 101.655C99.4181 101.749 99.4306 101.849 99.4196 101.949C99.4188 102.114 99.3755 102.276 99.2934 102.422C99.2114 102.568 99.0931 102.693 98.9486 102.787V104.157C98.951 104.231 98.9263 104.305 98.8786 104.364C98.831 104.423 98.7632 104.466 98.6865 104.484H98.5932C98.5575 104.487 98.5214 104.483 98.4877 104.471C98.454 104.46 98.4234 104.441 98.3983 104.417C98.3731 104.393 98.354 104.364 98.3424 104.332C98.3307 104.3 98.3269 104.266 98.331 104.232V102.862C98.1864 102.806 98.0637 102.709 97.9795 102.584C97.8953 102.46 97.8536 102.314 97.86 102.166Z" fill="#455A64"/>
<path d="M34.2586 182.975C38.0399 179.296 40.2616 164.311 36.5736 161.39H17.7959C14.1079 164.323 16.3251 179.288 20.1064 182.971L20.2131 183.076L20.3419 183.197C20.4486 183.294 20.5641 183.39 20.6841 183.486C20.7156 183.506 20.7453 183.529 20.7729 183.553C20.8663 183.621 20.9596 183.692 21.0618 183.759C21.2182 183.867 21.3814 183.967 21.5505 184.056C24.6609 185.77 29.7086 185.77 32.819 184.056C32.9906 183.967 33.1554 183.866 33.3122 183.755C33.4055 183.696 33.4899 183.629 33.5788 183.566L33.6899 183.482C33.8054 183.39 33.9165 183.298 34.0187 183.201L34.1698 183.063L34.2586 182.975Z" fill="#455A64"/>
<path d="M19.4274 160.211C15.144 162.57 15.144 166.396 19.4274 168.755C23.7108 171.115 30.6558 171.115 34.9437 168.755C39.2316 166.396 39.2271 162.57 34.9437 160.211C30.6603 157.852 23.7108 157.852 19.4274 160.211Z" fill="#455A64"/>
<g opacity="0.1">
<path d="M19.4235 160.211C15.1401 162.57 15.1401 166.396 19.4235 168.755C23.7069 171.114 30.6519 171.114 34.9398 168.755C39.2277 166.396 39.2232 162.57 34.9398 160.211C30.6564 157.851 23.7069 157.851 19.4235 160.211Z" fill="white"/>
</g>
<path d="M21.4883 161.348C18.3424 163.079 18.3424 165.891 21.4883 167.634C24.6343 169.377 29.7353 169.369 32.8812 167.634C36.0271 165.899 36.0271 163.092 32.8812 161.348C29.7353 159.605 24.6431 159.618 21.4883 161.348Z" fill="#263238"/>
<path d="M32.8823 164.327C29.7364 162.592 24.6354 162.592 21.4895 164.327C20.7244 164.717 20.0763 165.284 19.6055 165.974C20.079 166.661 20.7264 167.227 21.4895 167.62C24.6354 169.355 29.7364 169.355 32.8823 167.62C33.6454 167.227 34.2928 166.661 34.7663 165.974C34.2954 165.284 33.6474 164.717 32.8823 164.327Z" fill="#F5F5F5"/>
<path d="M16.7754 132.321L24.2847 137.166L17.1753 134.63C17.2368 136.422 17.7162 138.179 18.5794 139.776C18.5794 139.776 23.2672 141.922 25.8177 144.185L19.5791 142.332C19.3835 143.359 19.4505 144.415 19.7747 145.412C19.8146 145.547 19.8591 145.689 19.908 145.832C20.2368 146.774 20.7078 148.555 21.5076 150.667C22.1858 152.515 23.0503 154.297 24.0892 155.989C24.6032 156.822 25.1762 157.622 25.8043 158.382C25.8399 158.432 25.8799 158.478 25.9199 158.525C27.0781 157.795 28.2837 157.082 29.5368 156.383C30.261 154.648 31.0564 150.424 31.1986 146.996C31.754 133.88 20.7566 127.117 12.2031 125.172C12.2031 125.172 15.3135 128.391 16.7754 132.321Z" fill="#344054"/>
<path opacity="0.3" d="M16.7754 132.321L24.2847 137.166L17.1753 134.63C17.2368 136.422 17.7162 138.179 18.5794 139.776C18.5794 139.776 23.2672 141.922 25.8177 144.185L19.5791 142.332C19.3835 143.359 19.4505 144.415 19.7747 145.412C19.8146 145.547 19.8591 145.689 19.908 145.832C20.2368 146.774 20.7078 148.555 21.5076 150.667C22.1858 152.515 23.0503 154.297 24.0892 155.989C24.6032 156.822 25.1762 157.622 25.8043 158.382C25.8399 158.432 25.8799 158.478 25.9199 158.525C27.0781 157.795 28.2837 157.082 29.5368 156.383C30.261 154.648 31.0564 150.424 31.1986 146.996C31.754 133.88 20.7566 127.117 12.2031 125.172C12.2031 125.172 15.3135 128.391 16.7754 132.321Z" fill="black"/>
<path d="M22.7656 132.472C23.5287 133.115 24.1861 133.862 24.7163 134.688C25.2417 135.517 25.7007 136.381 26.0893 137.274C26.8585 139.06 27.4173 140.921 27.7555 142.822C28.4941 146.617 28.2672 150.524 27.0935 154.22C27.0781 154.268 27.0835 154.321 27.1084 154.365C27.1333 154.41 27.1758 154.444 27.2268 154.459C27.2775 154.473 27.3321 154.468 27.3787 154.445C27.4254 154.421 27.4602 154.381 27.4756 154.333C28.6002 150.575 28.7631 146.618 27.9511 142.789C27.5747 140.882 26.9787 139.02 26.1737 137.236C25.7674 136.347 25.2921 135.487 24.7518 134.663C24.2064 133.845 23.5373 133.107 22.7656 132.472Z" fill="#FAFAFA"/>
<path d="M49.0159 139.022C48.847 139.228 46.1855 141.415 42.1064 147.957L33.8328 149.947L40.5601 150.517L37.4498 155.613L30.4203 157.238L35.9968 157.909C35.9968 157.909 34.6638 163.08 30.7802 165.355C28.6296 166.613 27.5677 166.83 26.8834 166.265C26.4035 165.867 26.1991 163.419 25.7237 161.236C25.2482 159.053 25.0705 155.504 27.0833 151.133C27.6325 149.962 28.3568 148.871 29.2339 147.894C34.2683 142.161 44.0971 139.136 49.0159 139.022Z" fill="#344054"/>
<path opacity="0.15" d="M49.0159 139.022C48.847 139.228 46.1855 141.415 42.1064 147.957L33.8328 149.947L40.5601 150.517L37.4498 155.613L30.4203 157.238L35.9968 157.909C35.9968 157.909 34.6638 163.08 30.7802 165.355C28.6296 166.613 27.5677 166.83 26.8834 166.265C26.4035 165.867 26.1991 163.419 25.7237 161.236C25.2482 159.053 25.0705 155.504 27.0833 151.133C27.6325 149.962 28.3568 148.871 29.2339 147.894C34.2683 142.161 44.0971 139.136 49.0159 139.022Z" fill="black"/>
<path opacity="0.1" d="M28.6447 153.341C27.8839 155.167 27.4036 157.086 27.2184 159.04C27.0894 161.512 27.1206 163.989 27.3117 166.457C27.1618 166.412 27.0229 166.339 26.9029 166.243C26.423 165.845 26.2186 163.398 25.7432 161.215C25.2678 159.031 25.09 155.482 27.1029 151.111C27.6521 149.94 28.3763 148.849 29.2535 147.872C34.2878 142.152 44.1166 139.127 49.0354 139.013C41.535 140.451 33.6169 145.484 29.8356 151.136C29.3735 151.838 28.9751 152.576 28.6447 153.341Z" fill="black"/>
<path d="M41.5279 141.527C37.8532 143.203 34.4185 145.462 31.7525 148.441C30.3997 149.918 29.3047 151.589 28.5088 153.39C27.7361 155.194 27.2856 157.105 27.1758 159.047C27.1829 159.05 27.1908 159.05 27.198 159.047C27.5046 157.15 28.066 155.297 28.8687 153.533C29.667 151.774 30.7133 150.125 31.9791 148.63C33.2718 147.144 34.7453 145.806 36.3691 144.645C37.9991 143.473 39.7376 142.442 41.5635 141.565V141.531L41.5279 141.527Z" fill="#FAFAFA"/>
<path d="M5.19531 143.975C5.80203 143.94 6.41038 143.94 7.0171 143.975C9.4093 144.112 11.7746 144.526 14.0599 145.207C14.9086 145.458 15.7617 145.743 16.6015 146.07C17.0236 146.233 17.4413 146.405 17.8501 146.59C19.895 147.463 21.7707 148.653 23.3999 150.11C24.1599 150.806 24.8242 151.591 25.3772 152.444C25.4483 152.553 25.5238 152.662 25.5904 152.775C25.7593 153.068 25.9193 153.353 26.0659 153.638C27.4527 156.093 28.156 158.84 28.1098 161.621C28.1498 163.582 27.5722 165.853 27.1945 166.23C27.142 166.282 27.084 166.328 27.0212 166.369C26.448 166.754 25.4971 166.595 23.6887 165.761C20.0584 164.085 18.4011 159.475 18.4011 159.475L23.2443 158.436L16.8947 157.598L14.1221 153.977L18.7743 152.879L12.3403 152.293C10.1402 149.391 7.7572 146.616 5.2042 143.983L5.19531 143.975Z" fill="#344054"/>
<path opacity="0.05" d="M7.01656 143.959C9.40877 144.096 11.774 144.51 14.0593 145.191C14.908 145.442 15.7611 145.727 16.6009 146.054C17.0231 146.218 17.4407 146.389 17.8495 146.574C19.8944 147.447 21.7702 148.637 23.3993 150.094C24.1594 150.791 24.8237 151.575 25.3766 152.428C25.4477 152.537 25.5233 152.646 25.5899 152.759C25.7588 153.052 25.9187 153.337 26.0654 153.622C27.4522 156.077 28.1555 158.824 28.1093 161.605C28.1493 163.566 27.5717 165.837 27.194 166.215C27.1415 166.266 27.0834 166.313 27.0207 166.353C26.904 166.425 26.7746 166.478 26.6385 166.508C26.8963 163.453 24.8612 155.851 22.284 152.813C19.618 149.658 13.3973 145.195 5.19922 143.976C5.80418 143.938 6.41093 143.932 7.01656 143.959Z" fill="black"/>
<path d="M154.779 134.247C154.264 135.785 151.322 139.695 150.336 140.763C149.349 141.832 149.198 146.437 149.207 147.397C149.216 148.356 149.896 149.266 150.327 149.882C150.758 150.498 150.011 151.558 148.443 151.072C146.874 150.586 146.399 149.09 146.168 148.088C145.937 147.087 145.417 141.346 146.061 137.779C146.061 137.792 149.26 133.949 154.779 134.247Z" fill="#37474F"/>
<path d="M130.7 119.834C128.216 119.885 124.786 118.02 123.591 114.806C122.396 111.592 123.111 106.844 124.395 104.145C125.128 102.611 124.902 101.631 124.28 101.342C123.364 100.923 122.444 101.396 121.765 102.754C120.903 104.497 119.17 111.001 120.729 114.961C122.289 118.921 125.128 121.05 126.799 121.666L130.7 119.834Z" fill="#37474F"/>
<path d="M129.918 128.86C130.069 132.012 131.669 137.589 132.584 138.951C133.544 140.388 134.29 140.799 135.841 140.841C137.392 140.883 137.618 139.613 135.65 138.478C135.277 137.979 135.139 135.544 135.352 133.009C135.566 130.474 129.918 128.86 129.918 128.86Z" fill="#37474F"/>
<path d="M156.987 122.57C156.987 124.247 157.307 128.73 156.188 131.63C155.121 134.392 153.179 136.923 148.82 137.564C144.462 138.205 140.618 137.325 138.103 135.955C135.588 134.584 133.131 131.823 131.358 131.509C130.154 132.567 128.651 133.273 127.03 133.541C124.146 134.098 122.693 133.411 122.693 133.411C122.693 133.411 121.849 135.632 121.805 136.763C121.76 137.895 121.805 138.972 122.72 139.559C123.635 140.145 124.084 140.443 123.986 141.063C123.986 141.063 123.986 141.75 122.107 141.7C120.227 141.65 120.178 141.365 119.614 139.772C119.05 138.18 118.33 134.048 118.223 132.669C118.117 131.291 119.903 131.111 120.792 129.975C121.786 128.748 122.539 127.363 123.013 125.885C123.618 124.071 125.026 121.255 128.079 120.324C131.131 119.394 134.224 119.645 138.503 121.41C142.782 123.174 144.919 123.924 147.021 122.83C149.874 121.33 149.585 118.967 149.585 118.967C152.673 118.56 156.188 117.026 156.987 122.57Z" fill="#455A64"/>
<path d="M146.735 137.757L146.49 136.772L144.451 135.817L143.824 136.198C144.197 136.676 144.511 137.194 144.757 137.74C145.416 137.779 146.076 137.785 146.735 137.757Z" fill="#37474F"/>
<path d="M143.824 136.199C145.051 136.97 146.024 138.68 147.752 139.694C148.727 140.285 149.813 140.692 150.951 140.893C151.441 141.664 151.809 142.498 152.044 143.369C152.435 144.819 152.884 146.621 154.191 147.422C155.497 148.222 157.572 147.69 156.497 146.269C155.732 145.259 155.373 143.973 155.008 142.678C154.524 140.968 154.942 140.164 154.026 139.028C152.969 137.808 152.19 136.396 151.738 134.879C151.738 134.879 145.673 133.647 143.824 136.199Z" fill="#455A64"/>
<path d="M132.044 131.728C132.55 130.837 132.741 129.816 132.59 128.816C132.411 129.793 131.989 130.716 131.359 131.51C131.596 131.555 131.826 131.629 132.044 131.728Z" fill="#37474F"/>
<path d="M150.834 121.062C154.513 124.381 149.972 126.51 150.088 130.797C150.123 132.213 150.808 133.73 152.31 136.416C154.198 135.328 155.628 133.656 156.357 131.685C157.202 129.498 157.193 125.97 157.02 124.256C156.88 122.899 156.425 121.589 155.687 120.417C155.687 120.417 147.146 117.744 150.834 121.062Z" fill="#E0E0E0"/>
<path d="M147.203 122.739C148.695 123.399 150.365 123.611 151.989 123.347C152.832 123.227 153.624 122.889 154.277 122.371C154.93 121.854 155.419 121.176 155.69 120.414L149.403 120.275C149.018 121.325 148.235 122.203 147.203 122.739Z" fill="#37474F"/>
<path d="M152.922 112.443C153.891 111.37 156.401 110.523 157.725 111.584C158.472 112.183 156.481 115.435 156.481 115.435C156.481 115.435 153.908 114.131 152.922 112.443Z" fill="#37474F"/>
<path d="M153.941 113.566C155.168 114.53 156.47 115.435 156.47 115.435C156.47 115.435 158.46 112.183 157.714 111.584C157.203 111.286 155.492 111.55 153.941 113.566Z" fill="#FFA8A7"/>
<path d="M156.412 114.644C156.519 114.507 156.649 114.388 156.798 114.292C156.909 114.086 157.038 113.843 157.167 113.584C156.782 113.358 156.353 113.208 155.905 113.144C155.957 112.863 156.115 112.61 156.35 112.431C155.998 112.347 155.625 112.39 155.305 112.552C154.985 112.714 154.741 112.984 154.621 113.307C154.717 113.627 154.881 113.926 155.105 114.183C155.381 114.359 155.634 114.505 155.839 114.627C156.026 114.672 156.222 114.677 156.412 114.644Z" fill="#F28F8F"/>
<path d="M154.832 113.604C154.948 113.342 155.147 113.121 155.401 112.971C155.656 112.821 155.954 112.749 156.254 112.766C156.06 112.976 155.956 113.246 155.961 113.524C155.961 113.524 157.383 113.453 157.738 114.14C157.467 114.142 157.201 114.212 156.967 114.341C156.733 114.471 156.539 114.656 156.405 114.878C155.183 115.326 154.832 113.604 154.832 113.604Z" fill="#455A64"/>
<path d="M144.84 111.39C145.866 112.398 146.441 113.739 146.448 115.136L147.497 114.424C147.497 114.424 147.524 112.681 146.742 112.065C146.189 111.672 145.529 111.438 144.84 111.39Z" fill="#F28F8F"/>
<path d="M149.648 112.531C149.145 111.58 146.537 110.344 144.84 111.408C144.84 111.408 147.062 112.083 147.168 114.262L149.648 112.531Z" fill="#37474F"/>
<path d="M156.988 122.61C156.846 120.615 157.388 117.954 157.055 116.437C156.664 114.669 155.517 112.414 151.869 112.226C148.221 112.037 146.444 113.864 145.809 116.152C145.431 117.292 144.92 117.786 145.076 119.048C145.147 119.835 145.483 120.58 146.036 121.174C146.588 121.768 147.328 122.18 148.146 122.35C149.683 122.769 153.767 122.886 155.7 120.418L156.997 122.61" fill="#455A64"/>
<path d="M147.14 113.959C147.14 113.959 147.082 113.616 146.46 113.251C146.228 113.129 145.973 113.05 145.709 113.021C145.445 112.991 145.178 113.011 144.922 113.079C144.922 113.079 145.758 113.725 145.851 114.248C145.539 114.155 145.205 114.145 144.887 114.219C144.887 114.219 146.109 115.011 145.873 116.23C145.873 116.23 147.166 114.793 147.14 113.959Z" fill="#455A64"/>
<path d="M149.304 119.634C149.261 119.632 149.221 119.614 149.191 119.585C149.161 119.555 149.144 119.516 149.145 119.475L149.171 118.683C149.173 118.642 149.192 118.604 149.224 118.576C149.255 118.548 149.297 118.532 149.34 118.532C149.362 118.533 149.383 118.537 149.403 118.546C149.422 118.554 149.44 118.566 149.455 118.581C149.47 118.595 149.481 118.613 149.489 118.632C149.497 118.651 149.501 118.671 149.5 118.691L149.473 119.483C149.471 119.524 149.452 119.563 149.421 119.591C149.389 119.619 149.348 119.634 149.304 119.634Z" fill="#263238"/>
<path d="M150.08 120.132C150.05 120.131 150.021 120.123 149.996 120.107L149.307 119.663L148.605 120.082C148.568 120.098 148.526 120.1 148.487 120.089C148.449 120.078 148.416 120.054 148.395 120.021C148.374 119.988 148.366 119.949 148.374 119.912C148.382 119.874 148.404 119.841 148.436 119.818L149.227 119.365C149.253 119.348 149.284 119.339 149.316 119.339C149.348 119.339 149.379 119.348 149.405 119.365L150.178 119.864C150.213 119.887 150.238 119.922 150.246 119.962C150.255 120.002 150.246 120.043 150.222 120.077C150.205 120.097 150.183 120.112 150.159 120.122C150.134 120.131 150.107 120.135 150.08 120.132Z" fill="#263238"/>
<path d="M149.351 117.739C148.507 117.701 148.405 117.94 148.489 118.225C148.666 118.53 148.955 118.764 149.302 118.883C149.502 118.912 150.266 118.556 150.298 118.25C150.329 117.944 150.146 117.776 149.351 117.739Z" fill="#F28F8F"/>
<path d="M152.252 118.514C152.241 118.5 152.232 118.484 152.227 118.467C152.223 118.45 152.221 118.432 152.224 118.414C152.226 118.397 152.233 118.38 152.242 118.365C152.251 118.349 152.264 118.336 152.279 118.325C152.672 117.985 153.166 117.767 153.694 117.7C154.223 117.634 154.76 117.722 155.234 117.952C155.268 117.969 155.295 117.998 155.307 118.033C155.319 118.068 155.316 118.106 155.298 118.139C155.28 118.171 155.25 118.196 155.213 118.208C155.176 118.219 155.135 118.216 155.1 118.199C154.673 117.99 154.188 117.91 153.711 117.97C153.234 118.03 152.788 118.227 152.434 118.535C152.407 118.554 152.373 118.562 152.339 118.558C152.305 118.555 152.274 118.539 152.252 118.514Z" fill="#263238"/>
<path d="M152.496 118.935L152.469 118.893C152.457 118.859 152.458 118.822 152.473 118.788C152.488 118.755 152.515 118.728 152.549 118.713C152.871 118.597 153.215 118.546 153.559 118.565C153.903 118.584 154.239 118.671 154.545 118.822C154.578 118.841 154.602 118.871 154.612 118.907C154.622 118.943 154.616 118.981 154.596 119.012C154.586 119.028 154.573 119.042 154.557 119.053C154.542 119.063 154.524 119.071 154.505 119.076C154.467 119.085 154.427 119.079 154.393 119.06C154.127 118.93 153.834 118.853 153.534 118.836C153.234 118.818 152.933 118.861 152.652 118.96C152.626 118.972 152.597 118.976 152.57 118.971C152.542 118.967 152.516 118.954 152.496 118.935Z" fill="#263238"/>
<path d="M152.238 119.454C152.228 119.444 152.22 119.432 152.215 119.419C152.209 119.406 152.207 119.392 152.207 119.378C152.205 119.342 152.217 119.306 152.242 119.278C152.267 119.25 152.302 119.232 152.341 119.227C152.792 119.207 153.241 119.29 153.651 119.47C154.06 119.649 154.417 119.92 154.691 120.258C154.703 120.272 154.711 120.288 154.716 120.305C154.721 120.323 154.722 120.34 154.719 120.358C154.717 120.375 154.711 120.392 154.701 120.408C154.692 120.423 154.679 120.436 154.665 120.447C154.652 120.46 154.637 120.47 154.62 120.477C154.603 120.484 154.585 120.487 154.567 120.487C154.548 120.487 154.53 120.484 154.513 120.477C154.497 120.47 154.482 120.46 154.469 120.447C154.223 120.142 153.902 119.897 153.533 119.735C153.165 119.572 152.76 119.496 152.354 119.512C152.331 119.514 152.308 119.509 152.287 119.499C152.267 119.488 152.25 119.473 152.238 119.454Z" fill="#263238"/>
<path d="M147.278 118.293C147.304 118.268 147.319 118.233 147.319 118.197C147.319 118.161 147.304 118.126 147.278 118.101C146.965 117.694 146.526 117.388 146.022 117.225C145.518 117.061 144.973 117.048 144.461 117.187C144.428 117.2 144.401 117.224 144.385 117.255C144.37 117.285 144.367 117.32 144.377 117.353C144.387 117.385 144.409 117.413 144.439 117.431C144.469 117.449 144.505 117.456 144.541 117.451C145.003 117.329 145.494 117.344 145.947 117.494C146.4 117.644 146.793 117.922 147.073 118.289C147.086 118.303 147.102 118.314 147.119 118.322C147.136 118.33 147.155 118.334 147.175 118.334C147.194 118.335 147.213 118.331 147.231 118.324C147.249 118.317 147.265 118.307 147.278 118.293Z" fill="#263238"/>
<path d="M146.972 118.637C146.985 118.627 146.995 118.616 147.003 118.603C147.022 118.572 147.027 118.535 147.018 118.5C147.009 118.465 146.986 118.434 146.954 118.415C146.651 118.259 146.315 118.166 145.97 118.142C145.626 118.118 145.279 118.164 144.955 118.276C144.921 118.292 144.896 118.32 144.883 118.354C144.871 118.387 144.873 118.424 144.888 118.456C144.904 118.489 144.932 118.514 144.966 118.527C145.001 118.54 145.04 118.54 145.075 118.528C145.357 118.432 145.657 118.393 145.957 118.413C146.256 118.434 146.547 118.512 146.812 118.645C146.836 118.661 146.865 118.669 146.894 118.667C146.923 118.666 146.95 118.655 146.972 118.637Z" fill="#263238"/>
<path d="M147.18 119.197C147.202 119.177 147.216 119.151 147.22 119.122C147.225 119.087 147.216 119.051 147.195 119.021C147.173 118.992 147.141 118.971 147.104 118.963C146.659 118.895 146.202 118.93 145.774 119.065C145.346 119.2 144.959 119.431 144.647 119.738C144.62 119.764 144.605 119.798 144.605 119.834C144.605 119.87 144.62 119.905 144.647 119.931C144.659 119.943 144.674 119.953 144.69 119.96C144.707 119.967 144.724 119.971 144.742 119.971C144.76 119.971 144.778 119.967 144.795 119.96C144.811 119.953 144.826 119.943 144.838 119.931C145.12 119.652 145.469 119.442 145.856 119.318C146.243 119.195 146.656 119.162 147.06 119.223C147.08 119.229 147.102 119.23 147.123 119.226C147.144 119.221 147.164 119.211 147.18 119.197Z" fill="#263238"/>
<path d="M152.833 116.418C152.83 116.522 152.794 116.622 152.73 116.706C152.666 116.79 152.577 116.855 152.474 116.891C152.371 116.928 152.259 116.935 152.152 116.911C152.045 116.888 151.948 116.835 151.873 116.76C151.798 116.684 151.748 116.589 151.73 116.487C151.712 116.385 151.727 116.28 151.772 116.186C151.817 116.091 151.891 116.012 151.984 115.957C152.077 115.902 152.186 115.874 152.296 115.878C152.369 115.88 152.44 115.896 152.507 115.924C152.573 115.952 152.633 115.993 152.683 116.043C152.733 116.093 152.772 116.152 152.798 116.217C152.824 116.281 152.836 116.349 152.833 116.418Z" fill="#263238"/>
<path d="M148.353 116.253C148.35 116.357 148.315 116.458 148.251 116.542C148.187 116.627 148.098 116.692 147.995 116.729C147.892 116.766 147.78 116.774 147.673 116.75C147.565 116.727 147.468 116.674 147.392 116.598C147.317 116.522 147.267 116.427 147.249 116.324C147.232 116.222 147.247 116.117 147.292 116.022C147.338 115.928 147.413 115.848 147.507 115.794C147.601 115.739 147.71 115.712 147.82 115.716C147.892 115.719 147.963 115.734 148.029 115.762C148.095 115.791 148.155 115.831 148.204 115.88C148.254 115.93 148.292 115.989 148.318 116.053C148.343 116.117 148.355 116.185 148.353 116.253Z" fill="#263238"/>
</svg>
