<svg width="952" height="764" viewBox="0 0 952 764" fill="none" xmlns="http://www.w3.org/2000/svg">
<g filter="url(#filter0_d_1037_40214)">
<g clip-path="url(#clip0_1037_40214)">
<rect x="9" y="9" width="934" height="746" rx="43" fill="white"/>
<path d="M365.21 89.5936C353.293 180.466 233.067 127.874 188.355 75.0205C143.642 22.1674 150.33 -56.9997 203.292 -101.804C256.255 -146.609 388.711 -185.154 433.424 -132.301C478.136 -79.448 383.085 -46.7146 365.21 89.5936Z" fill="#AA9EE2" fill-opacity="0.48"/>
<path d="M160.703 250.473C151.1 355.214 11.2873 288.966 -42.1834 225.76C-95.654 162.554 -91.5115 71.1408 -32.9309 21.5832C25.6498 -27.9745 175.413 -66.7613 228.884 -3.55517C282.354 59.651 175.109 93.3614 160.703 250.473Z" fill="#AA9EE2" fill-opacity="0.17"/>
<path d="M1087.06 512.04C1043.21 444.297 987.538 380.226 913.313 348.43C894.033 340.124 872.853 334.106 852.113 337.476C827.32 341.506 806.734 358.447 789.721 376.819C736.582 434.155 708.213 512.915 708.677 591.036C709.14 669.156 737.83 746.432 785.682 808.315C792.873 817.725 800.605 826.868 811.05 832.644C858.691 859.079 918.665 816.217 960.659 797.934C993.66 783.603 1038.97 780.861 1069.02 762.604C1156.44 709.171 1133.06 582.761 1087.26 512.108L1087.06 512.04Z" fill="#ECE8FF" fill-opacity="0.79"/>
</g>
</g>
<path d="M757.791 570.548C757.792 570.574 757.775 570.597 757.75 570.604C756.405 570.987 755.153 571.536 753.902 572.086C733.958 581.738 742.515 608.566 735.366 628.663C730.263 643.142 711.401 655.446 698.384 664.395C683.212 674.791 662.129 682.822 659.667 700.448C657.59 715.283 671.456 728.22 686.212 733.309C716.092 743.565 764.488 717.603 786.352 735.808C818.588 762.694 861.28 744.239 880.054 742.268C898.829 740.297 921.957 738.504 930.028 722.209C943.39 695.081 926.056 661.456 899.408 645.551C878.613 633.23 853.178 628.682 833.793 614.412C820.841 604.928 811.534 591.61 799.025 581.593C787.645 572.425 771.599 566.157 757.831 570.492C757.807 570.5 757.79 570.523 757.791 570.548V570.548Z" fill="#AA9EE2" fill-opacity="0.7"/>
<path d="M807.017 754.742C806.874 755.1 807.375 755.243 807.518 754.885C807.661 754.527 807.16 754.384 807.017 754.742C806.874 755.1 807.375 755.243 807.518 754.885C807.661 754.527 807.16 754.384 807.017 754.742Z" fill="#231F20" fill-opacity="0.56"/>
<path d="M812.916 741.299C812.936 741.299 812.951 741.282 812.95 741.263C812.807 738.629 812.593 735.996 812.309 733.433C811.951 730.644 811.522 727.927 810.807 725.21C810.163 722.564 809.305 719.989 808.161 717.487C807.088 715.198 805.801 712.982 804.085 711.122C802.512 709.335 800.51 707.905 798.364 707.046C795.933 706.045 793.216 705.831 790.57 706.045C787.066 706.403 783.705 707.547 780.487 709.049C779.683 709.42 778.878 709.791 778.074 710.209C777.827 710.337 777.59 710.497 777.341 710.622V710.622V710.622C777.254 710.665 777.286 710.728 777.378 710.697C778.404 710.359 779.474 710.176 780.487 710.05C783.205 709.692 786.065 709.835 788.711 710.55C792.429 711.623 795.647 713.84 798.15 716.772C802.011 721.42 804.085 727.355 805.301 733.147C806.23 737.509 806.731 742.014 806.945 746.448C806.945 747.735 807.088 749.093 807.088 750.381C807.088 751.024 807.088 751.668 807.088 752.383V754.027C807.088 754.155 807.032 754.452 807.07 754.617C807.073 754.631 807.088 754.694 807.088 754.709V754.709C807.088 754.716 807.095 754.743 807.102 754.743C807.15 754.743 807.314 754.743 807.374 754.743H810.664V754.743C811.77 754.743 812.786 753.851 812.808 752.746C812.809 752.719 812.809 752.694 812.809 752.669C812.881 751.096 812.952 749.594 812.952 748.021C812.952 745.816 812.952 743.54 812.882 741.334C812.881 741.315 812.897 741.299 812.916 741.299V741.299ZM777.207 710.899C777.249 710.891 777.302 710.837 777.26 710.845V710.845C777.219 710.854 777.165 710.907 777.207 710.899V710.899ZM808.983 754.421C809.003 754.427 808.998 754.456 808.978 754.456H808.233V754.456C807.898 754.456 807.875 754.073 807.875 753.738C807.875 753.519 807.875 753.297 807.875 753.098V752.025C807.875 751.31 807.875 750.595 807.875 749.88C807.804 745.089 807.446 740.369 806.659 735.65C805.587 729.429 803.799 722.993 800.009 717.773C797.649 714.555 794.503 711.909 790.713 710.55C787.996 709.621 785.064 709.263 782.132 709.549C780.773 709.692 779.343 709.907 778.056 710.407C781.131 708.834 784.42 707.547 787.781 706.832C790.498 706.331 793.359 706.26 796.005 706.975C798.293 707.618 800.438 708.834 802.154 710.407C803.942 712.052 805.372 714.126 806.516 716.271C807.804 718.631 808.733 721.134 809.448 723.708C810.235 726.425 810.807 729.143 811.164 731.86C811.593 734.506 811.808 737.223 811.951 739.869C812.094 742.229 812.166 744.588 812.166 746.948C812.166 749.308 812.166 750.452 812.023 752.168C812.023 752.746 811.929 753.37 811.893 753.966C811.879 754.197 811.692 754.385 811.46 754.385H808.989C808.968 754.385 808.964 754.414 808.983 754.421V754.421Z" fill="#231F20" fill-opacity="0.56"/>
<path d="M813.199 741.262C813.212 741.275 813.235 741.266 813.234 741.247C812.874 732.824 811.798 723.835 807.873 716.2C806.157 712.839 803.797 709.764 800.507 707.833C797.218 705.902 793.071 705.402 789.209 706.045C784.776 706.761 780.914 708.691 776.91 710.694C776.624 710.837 776.838 711.266 777.124 711.194C781.772 709.549 787.421 709.907 791.855 712.124C795.931 714.197 799.006 717.773 801.151 721.777C803.296 725.782 804.583 730.501 805.442 735.078C806.371 740.155 806.8 745.375 806.872 750.524C806.872 751.811 806.943 753.027 806.872 754.314C806.872 754.814 806.872 755.1 807.372 755.172C808.516 755.315 809.875 755.172 811.019 755.172C811.499 755.172 812.129 755.272 812.615 755.178C812.794 755.144 813.021 755.067 813.021 754.886V754.886C813.379 750.381 813.379 745.876 813.236 741.442C813.236 741.085 812.664 741.085 812.664 741.442C812.807 744.517 812.807 747.592 812.664 750.667C812.664 751.382 812.664 752.097 812.592 752.812C812.592 753.267 812.651 753.958 812.501 754.402C812.472 754.488 812.472 754.589 812.404 754.648V754.648C812.285 754.751 812.084 754.671 811.927 754.671C811.799 754.671 811.681 754.671 811.591 754.671H808.087C808.056 754.671 808 754.671 807.934 754.671C807.618 754.671 807.372 754.415 807.372 754.099V754.099C807.372 752.74 807.372 751.31 807.372 749.952C807.301 746.948 807.158 743.873 806.8 740.87C805.728 730.859 803.082 718.845 794.143 712.839C789.284 709.529 782.761 708.647 777.169 710.532C777.028 710.58 776.959 710.738 777.018 710.874V710.874C777.076 711.009 777.235 711.068 777.367 711.004C780.64 709.396 783.791 707.741 787.35 706.904C791.354 705.974 795.645 705.974 799.363 707.833C806.371 711.409 809.374 719.847 810.876 727.069C811.877 731.717 812.378 736.508 812.592 741.228C812.592 741.568 813.111 741.584 813.161 741.277C813.163 741.259 813.186 741.249 813.199 741.262V741.262Z" fill="#231F20" fill-opacity="0.56"/>
<path d="M777.128 710.515C777.146 710.524 777.14 710.556 777.121 710.561C777.09 710.57 777.062 710.586 777.057 710.614C777.056 710.619 777.058 710.625 777.06 710.629L777.215 710.992C777.249 711.071 777.33 711.128 777.41 711.097C777.416 711.095 777.421 711.093 777.426 711.09C777.468 711.072 777.511 711.051 777.557 711.051V711.051C777.629 711.051 777.557 711.051 777.557 710.98V710.98C777.557 710.98 777.557 710.98 777.557 710.837V710.765V710.765V710.765C777.557 710.765 777.486 710.622 777.414 710.622H777.343C777.343 710.622 777.343 710.622 777.343 710.622C777.343 710.622 777.271 710.622 777.2 710.622C777.2 710.622 777.2 710.622 777.2 710.622C777.199 710.622 777.116 710.622 777.044 710.654C777.02 710.665 776.94 710.694 776.914 710.694V710.694C776.842 710.694 776.914 710.694 776.914 710.765C776.914 710.79 776.914 710.815 776.914 710.837C776.914 710.876 776.946 710.908 776.985 710.908V710.908C776.985 710.908 776.985 710.908 776.985 710.908C776.985 710.908 777.057 710.908 777.128 710.908V710.908C777.128 710.908 777.2 710.908 777.271 710.908H777.343V710.908V710.908C777.343 710.908 777.343 710.908 777.414 710.908C777.486 710.908 777.414 710.908 777.414 710.837V710.694V710.694V710.694C777.414 710.694 777.414 710.694 777.414 710.622C777.414 710.622 777.343 710.479 777.271 710.479H777.2C777.2 710.479 777.2 710.479 777.2 710.479C777.2 710.479 777.173 710.479 777.137 710.479C777.117 710.479 777.11 710.506 777.128 710.515V710.515Z" fill="#231F20" fill-opacity="0.56"/>
<path d="M809.159 754.099C809.113 754.145 809.051 754.171 808.987 754.176C808.769 754.19 808.349 754.231 808.229 754.171C807.943 754.028 808.229 754.457 808.158 753.956C808.086 753.527 808.158 753.027 808.158 752.526C808.158 751.311 808.158 750.023 808.158 748.808C808.158 746.519 807.943 744.16 807.729 741.8C807.3 737.509 806.656 733.147 805.512 728.928C803.438 721.492 799.362 713.84 791.925 710.622C787.789 708.87 782.554 708.492 778.307 709.959C778.168 710.007 778.101 710.164 778.159 710.299V710.299C778.218 710.435 778.379 710.494 778.512 710.427C782.523 708.409 786.941 706.759 791.496 706.689C796.144 706.618 800.363 708.477 803.367 711.909C806.37 715.342 808.229 719.775 809.445 724.137C810.732 728.857 811.447 733.719 811.805 738.51C812.019 741.228 812.091 743.874 812.091 746.591C812.091 749.238 811.887 751.613 811.811 754.179C811.808 754.253 811.898 754.292 811.95 754.24V754.24C812.002 754.188 811.966 754.099 811.892 754.099H809.159C808.801 754.099 808.801 754.671 809.159 754.671H812.091C812.234 754.671 812.377 754.528 812.377 754.385C812.377 751.883 812.663 749.451 812.663 746.948C812.663 744.446 812.591 741.8 812.377 739.226C812.019 734.22 811.376 729.143 810.017 724.352C808.801 719.99 807.085 715.556 804.153 712.052C801.364 708.691 797.503 706.618 793.141 706.26C787.849 705.831 782.629 707.833 777.981 710.193C777.695 710.336 777.91 710.765 778.196 710.694C782.343 709.192 787.42 709.478 791.496 711.123C795.286 712.696 798.29 715.556 800.578 718.917C805.297 726.068 806.799 735.15 807.443 743.588C807.657 746.162 807.729 748.736 807.729 751.311C807.729 751.883 807.729 752.526 807.729 753.098C807.729 753.456 807.586 753.956 807.729 754.314C807.943 754.957 808.587 754.671 809.159 754.671C809.731 754.671 809.516 754.099 809.159 754.099V754.099Z" fill="#231F20" fill-opacity="0.56"/>
<path d="M812.515 737.589C812.635 737.623 812.76 737.55 812.788 737.427C815.142 727.277 818.278 717.132 823.105 707.833C826.323 701.54 830.399 695.605 835.619 690.814C839.194 687.453 843.27 684.736 847.918 683.091C850.922 682.018 854.14 681.375 857.357 681.232C858.359 681.232 859.36 681.232 860.289 681.303C860.718 681.303 861.219 681.518 861.648 681.518V681.518C861.96 681.518 861.986 680.712 861.765 680.491C861.678 680.404 861.592 680.317 861.505 680.231C860.79 679.516 860.003 678.872 859.145 678.3C858.001 677.442 856.785 676.727 855.498 676.083C853.997 675.368 852.423 674.796 850.779 674.438C848.919 674.081 847.06 674.009 845.129 674.224C842.984 674.51 840.839 675.225 838.908 676.226C836.405 677.513 834.189 679.158 832.115 681.089C829.469 683.592 827.252 686.523 825.25 689.598C822.533 693.746 820.316 698.251 818.385 702.827C815.74 708.906 813.594 715.198 811.735 721.562C811.251 723.075 810.818 724.638 810.394 726.166C810.357 726.299 810.859 726.716 810.876 726.58V726.58C810.878 726.569 810.878 726.563 810.881 726.553C812.739 719.836 814.812 713.263 817.313 706.76C819.243 701.826 821.389 697.035 824.034 692.459C825.965 689.026 828.182 685.808 830.756 682.805C832.676 680.601 834.879 678.609 837.364 677.11C837.392 677.093 837.392 677.092 837.421 677.077V677.077C837.543 677.012 837.684 676.91 837.808 676.848C837.889 676.807 837.97 676.767 838.05 676.727V676.727C838.584 676.46 839.109 676.171 839.657 675.935C839.914 675.824 840.17 675.723 840.41 675.654C841.411 675.297 842.412 675.011 843.413 674.796C845.273 674.438 847.132 674.438 848.991 674.796C850.636 675.082 852.28 675.511 853.782 676.226C855.141 676.798 856.356 677.513 857.572 678.3C858.502 678.943 859.36 679.587 860.146 680.302C860.469 680.625 860.851 681.007 861.186 681.341C861.247 681.403 861.343 681.415 861.418 681.37V681.37C861.583 681.271 861.519 680.945 861.33 680.909C861.232 680.89 861.132 680.876 861.025 680.874C861.011 680.874 860.997 680.873 860.984 680.871C860.062 680.731 859.21 680.731 858.287 680.731C856.928 680.731 855.498 680.874 854.14 681.089C852.352 681.375 850.636 681.804 848.919 682.376C846.846 683.091 844.915 683.949 842.984 684.95C840.696 686.237 838.551 687.596 836.548 689.241C834.117 691.171 831.972 693.388 829.97 695.748C827.538 698.608 825.465 701.755 823.605 704.973C821.317 708.906 819.386 713.125 817.67 717.344C815.597 722.564 813.952 727.927 812.593 733.361C812.296 734.61 811.949 735.907 811.676 737.172C811.658 737.26 812.154 737.642 812.211 737.573V737.573C812.242 737.535 812.282 737.522 812.33 737.536L812.515 737.589Z" fill="#231F20" fill-opacity="0.56"/>
<path d="M813.099 737.907C813.051 737.788 813.041 737.657 813.07 737.531C815.568 726.727 818.921 715.999 824.324 706.26C829.33 697.179 836.337 688.526 845.991 684.235C848.994 682.948 852.212 682.019 855.43 681.733C857.075 681.59 858.72 681.518 860.364 681.733C860.54 681.733 860.751 681.781 860.97 681.832C861.558 681.972 862.066 681.665 862.653 681.518V681.518V681.518C863.01 681.518 862.672 680.956 862.421 680.702C858.792 677.042 853.679 674.429 848.565 674.153C843.274 673.867 838.34 676.155 834.264 679.444C829.973 682.877 826.612 687.525 823.823 692.316C821.035 697.107 818.603 702.47 816.53 707.833C814.177 713.991 812.226 720.216 810.418 726.573C810.297 726.997 810.422 727.865 810.666 727.498V727.498C810.952 727.141 811.31 727.284 811.524 726.783C811.882 725.853 812.096 724.781 812.382 723.78C812.954 721.849 813.526 719.918 814.17 717.987C815.385 714.197 816.673 710.408 818.103 706.689C820.963 699.467 824.324 692.244 829.044 686.095C831.618 682.734 834.55 679.73 838.125 677.514C838.402 677.306 838.143 676.897 837.866 677.001C837.848 677.008 837.854 677.013 837.834 677.013V677.013C837.807 677.013 837.755 677.021 837.736 677.04C837.505 677.262 837.779 677.651 838.054 677.514C841.987 675.368 846.563 674.582 850.925 675.654C854.93 676.656 858.791 678.944 861.58 681.947C861.651 682.019 861.794 682.019 861.937 681.947L862.653 681.518V681.518C862.981 681.299 862.457 680.976 862.067 680.914C857.073 680.109 851.602 681.308 846.992 683.234C842.201 685.237 837.625 688.383 833.906 692.03C826.112 699.681 820.963 709.621 817.173 719.775C815.033 725.574 813.36 731.505 811.96 737.506C811.86 737.936 811.994 738.806 812.239 738.439V738.439C812.382 738.224 812.811 738.224 812.954 738.01C813.169 737.724 812.811 737.366 812.597 737.652C812.491 737.811 812.23 737.852 812.043 737.949C811.939 738.003 811.96 738.134 812.057 738.198V738.198C812.179 738.28 812.346 738.214 812.379 738.07C814.802 727.589 818.008 717.254 823.108 707.762C828.042 698.466 834.907 690.099 844.346 685.165C849.649 682.337 856.28 680.487 862.304 681.552C862.411 681.571 862.51 681.489 862.51 681.381V681.358C862.51 681.237 862.38 681.16 862.273 681.218L861.92 681.411C861.868 681.439 861.888 681.518 861.947 681.518V681.518C861.997 681.518 862.023 681.458 861.988 681.422C859.062 678.393 854.958 676.002 850.854 675.011C846.54 674.037 842.091 674.755 838.165 676.77C837.986 676.863 837.922 677.086 838.022 677.262L838.116 677.427C838.122 677.436 838.115 677.442 838.126 677.442V677.442C838.15 677.442 838.182 677.416 838.17 677.396L838.019 677.131C837.96 677.028 837.827 676.995 837.727 677.059C831.602 680.995 827.221 687.016 823.752 693.317C819.891 700.253 816.959 707.619 814.527 715.127C813.812 717.344 813.097 719.561 812.454 721.777C812.168 722.85 811.81 723.923 811.524 724.924C811.381 725.424 811.31 726.211 810.952 726.64C810.788 726.803 810.625 726.842 810.461 726.978C810.368 727.056 810.393 727.197 810.494 727.264V727.264C810.614 727.344 810.777 727.284 810.815 727.145C813.803 716.368 817.362 705.53 822.608 695.605C825.111 690.886 828.114 686.238 831.904 682.376C835.694 678.515 840.413 675.44 845.705 674.868C851.772 674.233 858.048 677.078 862.267 681.412C862.345 681.492 862.481 681.462 862.516 681.356V681.356C862.548 681.26 862.474 681.164 862.383 681.21C862.216 681.295 862.096 681.465 861.937 681.518C861.58 681.661 860.865 681.375 860.507 681.375C859.077 681.232 857.647 681.232 856.217 681.375C853.356 681.59 850.568 682.233 847.85 683.234C842.988 685.022 838.626 688.025 834.907 691.601C827.041 699.181 821.893 709.12 818.103 719.275C815.815 725.353 814.098 731.574 812.668 737.938C812.611 738.222 812.915 738.371 813.078 738.241C813.174 738.165 813.145 738.021 813.099 737.907V737.907Z" fill="#231F20" fill-opacity="0.56"/>
<path d="M808.014 716.915C807.975 716.915 807.943 716.884 807.941 716.844C807.725 711.004 807.154 705.164 806.228 699.324C805.441 694.318 804.297 689.384 802.795 684.521C801.508 680.302 799.935 676.226 798.147 672.222C796.574 668.789 794.715 665.429 792.641 662.282C790.854 659.493 788.923 656.848 786.706 654.345C784.918 652.199 782.916 650.197 780.842 648.338C779.126 646.765 777.267 645.335 775.408 643.976C773.978 642.903 772.404 641.974 770.831 641.116C769.759 640.544 768.686 639.972 767.542 639.471C767.06 639.264 766.578 638.992 766.096 638.844C766.06 638.833 766.022 638.838 765.99 638.857V638.857C765.861 638.935 765.94 639.146 766.09 639.132C766.211 639.12 766.337 639.113 766.469 639.113V639.113C768.499 638.968 770.575 639.073 772.583 639.401C773.115 639.488 773.649 639.587 774.192 639.686C776.123 640.115 778.054 640.758 779.913 641.545C782.129 642.546 784.275 643.762 786.277 645.263C788.708 647.051 790.925 649.125 792.856 651.341C795.287 654.13 797.361 657.205 799.22 660.423C801.508 664.499 803.367 668.789 804.941 673.151C806.943 678.658 808.445 684.307 809.589 690.027C811.09 697.178 812.092 704.401 812.735 711.694C812.95 713.697 813.093 715.699 813.236 717.701C813.236 717.558 813.951 717.415 813.951 717.272C813.45 709.621 812.592 701.969 811.233 694.389C810.161 688.311 808.731 682.305 806.871 676.369C805.37 671.65 803.582 667.073 801.365 662.711C799.578 659.207 797.504 655.918 795.144 652.843C793.213 650.34 790.997 648.052 788.565 646.05C786.563 644.405 784.418 642.975 782.129 641.831C780.27 640.901 778.268 640.115 776.266 639.614C774.621 639.185 772.976 638.899 771.332 638.756C770.188 638.684 768.972 638.613 767.828 638.756C767.349 638.756 766.74 638.756 766.249 638.944C766.205 638.96 766.159 638.97 766.112 638.97V638.97C765.969 638.97 765.54 639.471 765.397 639.4C765.754 639.543 766.112 639.686 766.469 639.829C767.47 640.258 768.4 640.687 769.329 641.187C770.831 641.974 772.19 642.832 773.62 643.761C775.408 644.977 777.195 646.336 778.84 647.694C780.914 649.411 782.845 651.341 784.632 653.272C786.778 655.56 788.708 658.063 790.567 660.638C792.641 663.641 794.572 666.859 796.217 670.077C798.147 673.867 799.721 677.728 801.079 681.732C802.652 686.381 803.94 691.1 804.869 695.963C805.942 701.54 806.657 707.118 807.086 712.767C807.157 714.269 807.3 715.842 807.372 717.344C807.372 717.221 807.902 717.097 808.05 716.974C808.08 716.948 808.054 716.915 808.014 716.915V716.915Z" fill="#231F20" fill-opacity="0.56"/>
<path d="M808.3 716.88C808.267 716.896 808.228 716.873 808.227 716.837C807.65 703.991 805.718 691.147 801.222 679.087C796.717 667.002 790.353 656.704 781.2 648.338C778.697 646.05 775.98 643.976 773.048 642.117C771.546 641.187 769.973 640.257 768.4 639.542C767.828 639.256 767.184 638.97 766.612 638.756C765.969 638.541 765.826 638.756 765.182 639.042C764.896 639.185 765.111 639.614 765.397 639.542C768.686 638.97 772.19 639.399 775.408 640.257C778.626 641.116 781.558 642.403 784.275 644.19C789.638 647.623 794 652.557 797.432 657.92C804.44 669.004 808.087 682.09 810.304 694.89C811.663 702.47 812.449 710.05 813.021 717.773C813.021 718.059 813.379 718.13 813.522 717.916C813.665 717.701 814.094 717.773 814.237 717.487C814.308 717.344 814.237 716.986 814.237 716.843C814.237 716.342 814.165 715.77 814.094 715.27C813.951 713.411 813.808 711.551 813.593 709.692C813.236 706.045 812.807 702.47 812.235 698.894C811.162 691.6 809.66 684.45 807.444 677.37C803.511 664.57 797.075 651.127 785.562 643.547C782.344 641.402 778.769 639.828 774.979 639.042C773.12 638.613 771.26 638.398 769.33 638.398C768.5 638.398 767.671 638.398 766.892 638.5C766.705 638.524 766.531 638.533 766.343 638.549V638.549C766.041 638.575 765.764 638.759 765.516 638.933C765.428 638.994 765.341 639.042 765.254 639.042C764.968 639.042 764.896 639.471 765.182 639.542C767.899 640.543 770.474 642.045 772.905 643.618C775.336 645.191 777.768 647.122 780.056 649.124C784.489 653.129 788.351 657.777 791.64 662.783C798.219 672.937 802.295 684.521 804.583 696.32C805.942 703.256 806.657 710.264 806.943 717.272C806.943 717.558 807.301 717.63 807.444 717.415C807.45 717.406 807.457 717.397 807.464 717.388C807.825 716.977 807.974 716.21 807.73 716.7V716.7C807.632 716.846 807.401 716.893 807.219 716.976C807.103 717.029 807.14 717.165 807.264 717.2V717.2C807.388 717.236 807.51 717.14 807.504 717.011C806.988 704.512 805.054 692.019 800.793 680.231C796.503 668.36 790.496 658.349 781.844 649.983C779.412 647.694 776.838 645.549 774.121 643.69C771.485 641.886 768.715 640.218 765.744 639.075C765.611 639.023 765.468 639.123 765.468 639.266V639.266C765.468 639.379 765.564 639.473 765.665 639.422C765.841 639.334 765.989 639.148 766.255 639.042C766.898 638.756 768.042 638.827 768.758 638.827C770.545 638.827 772.333 638.97 774.121 639.256C777.553 639.9 780.771 641.116 783.774 642.832C789.566 646.193 794.215 651.198 797.861 656.776C805.37 668.289 809.017 682.09 811.305 695.533C812.02 699.538 812.521 703.542 812.95 707.547C813.164 709.549 813.379 711.48 813.522 713.482C813.593 714.483 813.665 715.484 813.736 716.414C813.736 716.491 813.757 716.629 813.765 716.752C813.775 716.905 813.632 716.962 813.51 717.057C813.5 717.065 813.49 717.074 813.481 717.084C813.457 717.111 813.438 717.143 813.41 717.166C813.36 717.207 813.312 717.234 813.267 717.259C813.159 717.32 813.203 717.446 813.322 717.48V717.48C813.454 717.518 813.583 717.413 813.573 717.276C812.567 703.497 810.704 689.651 806.514 676.441C802.653 664.284 796.503 651.699 785.705 644.19C782.773 642.188 779.555 640.615 776.123 639.614C772.786 638.641 769.112 638.208 765.691 638.71C765.541 638.732 765.454 638.89 765.514 639.029V639.029C765.567 639.152 765.707 639.196 765.814 639.117C765.953 639.014 766.118 638.899 766.255 638.899C766.541 638.899 767.041 639.185 767.327 639.328C768.042 639.614 768.686 639.971 769.33 640.329C770.688 641.044 771.975 641.759 773.263 642.617C775.837 644.262 778.268 646.121 780.485 648.123C784.99 652.128 788.923 656.704 792.212 661.781C798.934 672.007 803.153 683.735 805.441 695.748C806.8 702.684 807.515 709.764 807.801 716.843C807.801 717.171 808.283 717.198 808.362 716.924C808.373 716.888 808.334 716.863 808.3 716.88V716.88Z" fill="#231F20" fill-opacity="0.56"/>
<path d="M816.813 708.905C816.027 698.465 816.313 687.953 818.244 677.656C819.745 669.647 822.248 661.781 825.824 654.487C828.612 648.838 831.973 643.475 835.978 638.612C838.767 635.251 841.77 632.105 845.131 629.387C846.555 628.177 848.264 626.966 849.761 626.038C849.773 626.03 849.81 626.024 849.797 626.028C849.79 626.029 849.755 626.035 849.717 626.049C849.684 626.061 849.672 626.09 849.7 626.069V626.069C849.736 626.042 849.746 626.019 849.705 626.034C848.569 626.461 847.494 627.066 846.418 627.671C843.343 629.387 840.483 631.247 837.765 633.463C833.761 636.681 830.186 640.328 827.039 644.404C822.892 649.767 819.459 655.703 816.885 661.995C813.524 670.076 811.45 678.585 810.306 687.238C810.163 688.453 810.02 689.669 809.877 690.956C809.877 690.813 810.592 690.67 810.592 690.527C811.45 681.732 813.31 673.008 816.384 664.784C818.816 658.348 821.962 652.199 825.895 646.55C828.97 642.259 832.474 638.326 836.407 634.822C839.124 632.462 842.127 630.174 845.202 628.386C846.418 627.671 847.848 627.028 849.135 626.384L849.421 626.241C848.063 627.028 846.775 627.957 845.56 628.958C842.342 631.461 839.482 634.322 836.764 637.325C832.76 641.901 829.327 646.907 826.467 652.27C822.749 659.278 820.031 666.858 818.244 674.652C816.027 684.663 815.312 694.961 815.812 705.186C815.884 706.617 815.955 708.047 816.098 709.477C816.098 709.369 816.547 709.261 816.736 709.153C816.818 709.106 816.813 708.999 816.813 708.905V708.905Z" fill="#231F20" fill-opacity="0.56"/>
<path d="M817.13 708.973C817.066 708.93 817.025 708.86 817.019 708.783C816.032 696.308 816.752 683.623 819.817 671.435C822.749 659.85 827.969 648.91 835.478 639.542C837.551 637.039 839.697 634.608 842.056 632.391C844.416 630.174 847.133 628.172 849.851 626.241C850.123 626.037 849.876 625.637 849.604 625.787C849.578 625.801 849.579 625.809 849.548 625.814V625.814C849.482 625.825 849.449 625.924 849.486 625.98L849.595 626.143C849.665 626.249 849.767 626.269 849.877 626.204C849.883 626.2 849.89 626.196 849.897 626.193C849.956 626.164 850.03 626.159 850.073 626.11C850.229 625.935 850.032 625.606 849.779 625.669C847.348 626.599 845.06 627.958 842.843 629.388C840.626 630.818 838.695 632.248 836.765 633.821C832.832 637.111 829.256 640.829 826.181 644.977C819.889 653.272 815.527 662.925 812.738 673.008C811.165 678.872 810.092 684.878 809.52 690.885V690.885C809.52 691.35 810.311 691.063 810.655 690.75C810.658 690.748 810.661 690.745 810.664 690.742V690.742C811.121 690.285 810.907 689.489 810.981 688.847C811.114 687.689 811.283 686.556 811.451 685.379C811.808 682.733 812.309 680.087 812.881 677.441C814.025 672.221 815.598 667.001 817.672 662.067C821.676 652.414 827.469 643.403 835.192 636.253C837.408 634.179 839.84 632.248 842.342 630.532C843.486 629.745 844.702 628.959 845.918 628.315C847.133 627.672 848.492 627.171 849.708 626.456C849.994 626.313 849.708 625.812 849.422 626.027C844.273 629.102 839.768 633.535 835.907 638.112C832.045 642.688 828.827 647.551 826.038 652.771C820.318 663.64 817.171 675.725 816.027 687.953C815.384 695.104 815.384 702.326 815.956 709.477C815.956 709.763 816.313 709.835 816.456 709.62C816.463 709.611 816.469 709.602 816.477 709.593C816.838 709.182 816.987 708.416 816.742 708.905V708.905C816.644 709.053 816.41 709.099 816.227 709.183C816.113 709.236 816.15 709.369 816.271 709.404V709.404C816.395 709.439 816.517 709.34 816.507 709.211C815.536 696.784 816.193 684.22 819.317 672.15C822.248 660.637 827.397 649.625 834.834 640.329C838.927 635.177 843.855 630.096 849.55 626.664C849.675 626.589 849.712 626.426 849.631 626.305V626.305C849.555 626.191 849.4 626.159 849.281 626.229C848.333 626.793 847.273 627.139 846.275 627.672C845.06 628.315 843.844 629.03 842.7 629.817C840.555 631.247 838.409 632.892 836.479 634.608C832.546 638.04 829.042 641.973 825.967 646.192C819.817 654.773 815.598 664.713 813.095 674.939C812.38 677.871 811.808 680.802 811.308 683.806C811.143 684.905 810.978 686.047 810.813 687.165C810.715 687.833 810.653 688.507 810.521 689.169V689.169C810.454 689.504 810.513 690.091 810.343 690.399C810.322 690.438 810.288 690.469 810.249 690.491C810.137 690.554 810.025 690.587 809.913 690.64C809.789 690.699 809.825 690.86 809.957 690.897V690.897C810.065 690.928 810.174 690.854 810.185 690.743C812.29 670.362 819.8 649.933 835.335 635.967C837.48 634.036 839.768 632.248 842.199 630.675C844.54 629.16 847.147 627.513 849.827 626.435C849.996 626.367 850.077 626.174 850.006 626.007V626.007C849.955 625.889 849.836 625.819 849.726 625.886C849.702 625.901 849.679 625.918 849.66 625.934C849.643 625.948 849.627 625.961 849.612 625.975C849.379 626.185 849.62 626.555 849.882 626.41C849.909 626.395 849.908 626.388 849.938 626.383V626.383C850.005 626.371 850.038 626.272 850.001 626.216L849.939 626.123C849.852 625.992 849.673 625.96 849.545 626.052C847.335 627.636 845.132 629.168 843.129 631.032C840.841 633.106 838.767 635.251 836.765 637.611C832.975 642.045 829.685 646.907 826.968 652.056C821.247 662.925 818.029 674.939 816.814 687.095C816.099 694.389 816.099 701.754 816.671 709.048C816.671 709.355 817.092 709.399 817.212 709.179C817.252 709.104 817.201 709.02 817.13 708.973V708.973Z" fill="#231F20" fill-opacity="0.56"/>
<path d="M810.124 688.311C810.064 688.311 810.016 688.263 810.016 688.203C810.016 686.952 810.016 685.703 810.016 684.521C810.016 681.374 810.016 678.156 810.088 675.01C810.088 670.934 810.159 666.787 810.231 662.711C810.302 658.635 810.302 654.487 810.374 650.411V641.044C810.445 639.613 810.517 638.112 810.445 636.61C810.159 630.389 810.445 624.096 811.518 617.875C812.376 612.583 813.806 607.363 815.737 602.358C817.453 598.067 819.527 593.92 822.03 589.987C824.175 586.626 826.535 583.479 829.181 580.547C831.326 578.116 833.686 575.899 836.188 573.826C837.976 572.324 839.907 570.894 841.838 569.607C842.474 569.183 843.11 568.759 843.746 568.403C843.761 568.395 843.756 568.392 843.773 568.391V568.391C843.841 568.385 843.974 568.288 844.034 568.258C844.041 568.255 844.047 568.252 844.054 568.248C844.197 568.176 844.34 568.105 844.483 568.033C844.841 567.89 844.626 568.033 844.483 568.319C843.84 569.607 843.268 570.965 842.767 572.252C841.837 574.827 841.051 577.473 840.479 580.118C839.692 583.551 839.406 586.983 839.049 590.487C838.477 596.494 836.903 602.358 834.973 608.007C832.684 614.514 829.753 620.807 826.177 626.599C824.389 629.531 822.316 632.248 820.242 634.965C818.526 637.254 817.167 639.756 816.094 642.402C814.092 647.479 813.234 652.914 812.948 658.349C812.734 662.067 812.877 665.857 813.234 669.647C813.234 669.917 813.282 670.299 813.34 670.68C813.355 670.778 814.154 670.963 814.164 670.864V670.864C814.164 670.86 814.163 670.86 814.163 670.856C813.52 666.997 813.449 662.994 813.592 659.064C813.878 651.484 815.236 643.546 819.241 636.968C820.385 635.108 821.744 633.464 823.031 631.747C824.461 629.817 825.82 627.815 827.107 625.741C829.61 621.593 831.826 617.231 833.686 612.798C835.473 608.579 836.903 604.217 838.048 599.783C839.049 595.779 839.621 591.774 840.05 587.698C840.479 583.122 841.408 578.545 842.767 574.112C843.481 571.899 844.266 569.757 845.336 567.687C845.339 567.68 845.341 567.676 845.342 567.667V567.667C845.346 567.61 845.257 567.505 845.206 567.532C844.155 568.078 843.103 568.735 842.052 569.392C839.478 571.037 837.046 572.896 834.758 574.898C831.326 577.902 828.179 581.191 825.391 584.766C821.887 589.271 818.883 594.206 816.524 599.497C813.663 605.861 811.732 612.655 810.731 619.591C810.159 623.596 809.802 627.743 809.802 631.819C809.802 634.036 809.945 636.252 809.945 638.398V638.398C809.945 643.532 809.851 651.855 809.796 656.989C809.761 660.165 809.735 663.042 809.731 663.504C809.73 663.552 809.73 663.592 809.73 663.64C809.73 668.836 809.658 674.033 809.587 679.301C809.587 682.304 809.587 685.307 809.516 688.311V688.74C809.516 688.623 809.989 688.507 810.165 688.391C810.215 688.358 810.183 688.311 810.124 688.311V688.311Z" fill="#231F20" fill-opacity="0.56"/>
<path d="M810.482 688.275C810.39 688.293 810.303 688.222 810.304 688.128C810.375 679.393 810.447 670.659 810.589 661.996C810.589 657.705 810.66 653.343 810.732 649.053C810.803 644.762 810.946 640.472 810.732 636.181C810.088 619.091 814.093 601.929 823.889 587.77C826.607 583.908 829.681 580.262 833.114 576.972C836.546 573.683 840.05 570.822 844.055 568.534C844.254 568.435 844.176 568.162 844.013 568.077C843.881 568.009 843.824 568.202 843.898 568.331L843.952 568.426C844.008 568.523 844.133 568.552 844.228 568.493C844.311 568.44 844.397 568.391 844.489 568.348C844.574 568.309 844.58 568.172 844.493 568.137V568.137C844.447 568.119 844.395 568.138 844.372 568.182C844.201 568.51 843.535 569.787 843.411 570.036C843.054 570.822 842.767 571.609 842.481 572.396C841.838 574.183 841.266 575.971 840.765 577.759C839.836 581.406 839.335 585.053 838.906 588.771C838.477 592.489 837.976 596.351 837.047 600.141C836.189 603.645 835.045 607.149 833.757 610.581C831.183 617.374 827.894 623.882 823.746 629.817C821.673 632.749 819.313 635.466 817.597 638.612C815.88 641.759 814.736 645.048 814.021 648.481C812.355 655.838 812.104 663.803 813.203 671.327C813.269 671.78 813.662 672.441 813.807 672.007V672.007C813.87 671.849 813.988 671.719 814.108 671.599C814.375 671.329 814.45 670.957 814.45 670.577V670.577C814.379 669.933 814.307 669.29 814.164 668.574C813.95 666.644 813.878 664.785 813.878 662.854C813.878 659.207 814.021 655.56 814.593 651.984C815.094 648.624 815.88 645.334 817.167 642.188C818.526 638.755 820.457 635.895 822.674 632.963C827.107 627.171 830.754 620.735 833.614 614.014C836.475 607.292 838.835 599.855 839.836 592.346C840.408 588.199 840.694 584.052 841.552 579.904C842.481 575.757 843.769 571.466 845.699 567.676C845.842 567.462 845.556 567.176 845.342 567.319C841.695 569.035 838.334 571.609 835.331 574.183C832.041 576.972 829.038 579.976 826.321 583.265C821.029 589.629 816.953 596.923 814.164 604.717C811.232 612.941 809.731 621.665 809.516 630.46C809.516 632.677 809.516 634.894 809.588 637.039C809.588 639.399 809.588 641.759 809.588 644.119C809.588 648.695 809.516 653.272 809.445 657.92C809.373 668.217 809.23 678.443 809.159 688.74C809.159 689.026 809.516 689.097 809.659 688.883C809.665 688.873 809.672 688.864 809.68 688.856C810.041 688.445 810.19 687.678 809.945 688.168V688.168C809.849 688.313 809.622 688.36 809.441 688.441C809.321 688.495 809.359 688.634 809.485 688.67V688.67C809.609 688.705 809.732 688.613 809.733 688.485C809.803 679.63 809.875 670.706 810.017 661.781C810.017 657.348 810.088 652.843 810.16 648.409C810.231 643.976 810.303 639.328 810.16 634.822C809.588 617.589 814.379 600.141 824.747 586.268C827.536 582.55 830.683 579.046 834.186 575.9C837.69 572.753 841.48 569.75 845.699 567.676L845.342 567.319C841.909 573.826 840.479 581.334 839.764 588.628C838.978 596.422 837.047 603.931 834.186 611.225C831.326 618.519 827.894 624.883 823.532 630.89C821.458 633.821 819.17 636.467 817.668 639.757C816.238 642.76 815.237 646.049 814.593 649.267C813.878 653.057 813.521 656.919 813.449 660.852C813.449 663.068 813.449 665.285 813.664 667.43C813.735 668.36 813.878 669.29 813.95 670.291C814.021 670.863 813.95 670.934 813.664 671.363C813.643 671.405 813.622 671.441 813.601 671.474C813.53 671.587 813.606 671.721 813.739 671.721V671.721C813.85 671.721 813.934 671.622 813.917 671.513C812.808 664.425 812.962 656.993 814.307 649.982C815.022 646.407 816.095 642.903 817.74 639.614C819.384 636.324 821.673 633.678 823.746 630.818C827.822 625.097 831.112 618.805 833.757 612.297C836.475 605.576 838.548 598.496 839.407 591.274C839.907 586.983 840.265 582.693 841.337 578.474C841.838 576.472 842.41 574.541 843.125 572.61C843.483 571.538 843.912 570.465 844.412 569.464C844.555 569.106 845.27 568.248 845.127 567.891V567.891C844.999 567.633 844.632 567.794 844.38 567.932C844.28 567.986 844.174 568.046 844.055 568.105C843.859 568.203 843.931 568.469 844.089 568.558C844.223 568.633 844.283 568.434 844.207 568.301V568.301C844.123 568.154 843.935 568.103 843.79 568.189C840.457 570.165 837.329 572.607 834.473 575.184C831.326 578.045 828.466 581.12 825.891 584.481C820.814 591.059 816.881 598.496 814.307 606.434C811.661 614.586 810.446 623.167 810.374 631.748C810.374 633.964 810.517 636.11 810.517 638.326C810.517 640.543 810.517 642.688 810.517 644.834C810.517 649.267 810.446 653.701 810.374 658.063C810.303 668.145 810.16 678.228 810.088 688.239C810.088 688.527 810.458 688.583 810.603 688.408C810.663 688.335 810.574 688.256 810.482 688.275V688.275Z" fill="#231F20" fill-opacity="0.56"/>
<path d="M844.986 567.635C844.986 567.624 844.973 567.618 844.965 567.626C842.113 570.338 839.617 573.477 837.192 576.544C832.043 583.266 827.538 590.703 824.678 598.712C823.247 602.716 822.461 606.935 821.46 611.083C820.602 614.586 819.672 618.09 818.671 621.594C816.597 629.031 814.595 636.468 813.308 644.048C811.663 653.559 811.162 663.212 811.52 672.794C811.52 674.224 811.735 676.942 811.806 678.372V678.372C811.806 677.246 812.199 676.148 812.145 675.023C811.692 665.58 811.963 656.141 813.379 646.765C814.523 639.042 816.454 631.391 818.528 623.883C819.529 620.379 820.53 616.803 821.388 613.299C821.817 611.512 822.318 609.724 822.675 607.936C823.104 605.862 823.533 603.789 824.177 601.786C826.68 593.348 831.042 585.482 836.19 578.403C838.979 574.542 842.054 570.823 845.415 567.462L845.558 567.319C845.423 567.454 845.16 567.462 845.011 567.643C845.003 567.653 844.986 567.648 844.986 567.635V567.635Z" fill="#231F20" fill-opacity="0.56"/>
<path d="M844.688 567.423C844.756 567.44 844.779 567.525 844.729 567.574C839.414 572.771 834.805 578.949 830.971 585.267C829.04 588.485 827.253 591.846 825.822 595.35C824.392 598.854 823.32 602.43 822.39 606.148C818.743 621.88 813.38 637.254 811.807 653.415C811.02 661.781 811.02 670.076 811.521 678.443C811.521 678.729 812.021 678.801 812.021 678.443C812.021 678.085 812.236 677.656 812.379 677.299C812.522 676.727 812.45 676.155 812.379 675.511C812.307 673.509 812.236 671.435 812.164 669.433C812.164 665.357 812.164 661.281 812.45 657.205C813.022 649.053 814.381 640.973 816.312 632.964C818.243 625.098 820.674 617.375 822.533 609.437C823.391 605.647 824.178 601.929 825.465 598.282C826.752 594.635 828.325 591.346 830.113 588.128C834.26 580.619 839.481 573.469 845.63 567.462C845.667 567.425 845.691 567.384 845.704 567.343C845.838 566.914 845.074 567.142 844.701 567.39V567.39C844.415 567.605 844.701 568.034 844.987 567.819C845.113 567.735 845.214 567.676 845.32 567.612C845.449 567.535 845.475 567.361 845.378 567.245V567.245C845.283 567.131 845.111 567.122 845.005 567.227C839.723 572.478 835.071 578.696 831.186 585.053C827.324 591.417 824.392 598.211 822.748 605.504C820.96 613.585 818.6 621.451 816.526 629.46C814.524 637.254 812.879 645.12 812.093 653.129C811.664 657.706 811.449 662.282 811.449 666.859C811.449 669.147 811.449 671.507 811.592 673.866C811.592 674.796 811.878 675.869 811.735 676.798C811.676 677.212 811.47 677.577 811.361 677.974C811.324 678.106 811.429 678.228 811.567 678.228V678.228C811.697 678.228 811.8 678.119 811.792 677.989C811.375 670.916 811.241 663.775 811.807 656.633C812.379 648.552 813.809 640.615 815.74 632.821C817.67 625.026 820.102 617.375 821.889 609.509C822.748 605.719 823.534 601.929 824.893 598.354C826.251 594.778 827.825 591.417 829.612 588.128C831.615 584.481 833.903 581.048 836.406 577.688C838.98 574.184 841.769 570.823 844.915 567.748C845.16 567.565 844.882 567.225 844.662 567.308C844.602 567.331 844.626 567.408 844.688 567.423V567.423Z" fill="#231F20" fill-opacity="0.56"/>
<defs>
<filter id="filter0_d_1037_40214" x="0" y="0" width="952" height="764" filterUnits="userSpaceOnUse" color-interpolation-filters="sRGB">
<feFlood flood-opacity="0" result="BackgroundImageFix"/>
<feColorMatrix in="SourceAlpha" type="matrix" values="0 0 0 0 0 0 0 0 0 0 0 0 0 0 0 0 0 0 127 0" result="hardAlpha"/>
<feMorphology radius="5" operator="dilate" in="SourceAlpha" result="effect1_dropShadow_1037_40214"/>
<feOffset/>
<feGaussianBlur stdDeviation="2"/>
<feComposite in2="hardAlpha" operator="out"/>
<feColorMatrix type="matrix" values="0 0 0 0 1 0 0 0 0 1 0 0 0 0 1 0 0 0 0.1 0"/>
<feBlend mode="normal" in2="BackgroundImageFix" result="effect1_dropShadow_1037_40214"/>
<feBlend mode="normal" in="SourceGraphic" in2="effect1_dropShadow_1037_40214" result="shape"/>
</filter>
<clipPath id="clip0_1037_40214">
<rect x="9" y="9" width="934" height="746" rx="43" fill="white"/>
</clipPath>
</defs>
</svg>
