<svg width="33" height="33" viewBox="0 0 33 33" fill="none" xmlns="http://www.w3.org/2000/svg">
<path d="M18.0798 16.9163L26.4798 8.5296C26.7309 8.27852 26.8719 7.938 26.8719 7.58293C26.8719 7.22786 26.7309 6.88733 26.4798 6.63626C26.2287 6.38519 25.8882 6.24414 25.5331 6.24414C25.1781 6.24414 24.8375 6.38519 24.5865 6.63626L16.1998 15.0363L7.81312 6.63626C7.56205 6.38519 7.22152 6.24414 6.86646 6.24414C6.51139 6.24414 6.17086 6.38519 5.91979 6.63626C5.66872 6.88733 5.52767 7.22786 5.52767 7.58293C5.52767 7.938 5.66872 8.27852 5.91979 8.5296L14.3198 16.9163L5.91979 25.3029C5.79482 25.4269 5.69563 25.5743 5.62793 25.7368C5.56024 25.8993 5.52539 26.0736 5.52539 26.2496C5.52539 26.4256 5.56024 26.5999 5.62793 26.7624C5.69563 26.9248 5.79482 27.0723 5.91979 27.1963C6.04374 27.3212 6.19121 27.4204 6.35369 27.4881C6.51617 27.5558 6.69044 27.5907 6.86646 27.5907C7.04247 27.5907 7.21675 27.5558 7.37922 27.4881C7.5417 27.4204 7.68917 27.3212 7.81312 27.1963L16.1998 18.7963L24.5865 27.1963C24.7104 27.3212 24.8579 27.4204 25.0204 27.4881C25.1828 27.5558 25.3571 27.5907 25.5331 27.5907C25.7091 27.5907 25.8834 27.5558 26.0459 27.4881C26.2084 27.4204 26.3558 27.3212 26.4798 27.1963C26.6048 27.0723 26.704 26.9248 26.7716 26.7624C26.8393 26.5999 26.8742 26.4256 26.8742 26.2496C26.8742 26.0736 26.8393 25.8993 26.7716 25.7368C26.704 25.5743 26.6048 25.4269 26.4798 25.3029L18.0798 16.9163Z" fill="#181818"/>
</svg>
