<svg width="25" height="27" viewBox="0 0 25 27" fill="none" xmlns="http://www.w3.org/2000/svg">
<path d="M17.25 3.52539C21.4125 3.75039 23.5 5.28789 23.5 11.0004V18.5004C23.5 23.5004 22.25 26.0004 16 26.0004H8.5C2.25 26.0004 1 23.5004 1 18.5004V11.0004C1 5.30039 3.0875 3.75039 7.25 3.52539" stroke="white" strokeWidth="1.5" stroke-miterlimit="10" strokeLinecap="round" strokeLinejoin="round"/>
<path d="M9.75 6H14.75C17.25 6 17.25 4.75 17.25 3.5C17.25 1 16 1 14.75 1H9.75C8.5 1 7.25 1 7.25 3.5C7.25 6 8.5 6 9.75 6Z" stroke="white" strokeWidth="1.5" stroke-miterlimit="10" strokeLinecap="round" strokeLinejoin="round"/>
<path d="M8.8875 16.875L10.7625 18.75L15.7625 13.75" stroke="white" strokeWidth="1.5" strokeLinecap="round" strokeLinejoin="round"/>
</svg>
