<svg width="21" height="20" viewBox="0 0 21 20" fill="none" xmlns="http://www.w3.org/2000/svg">
<path d="M13.9915 1.66699H7.00817C3.97484 1.66699 2.1665 3.47533 2.1665 6.50866V13.4837C2.1665 16.5253 3.97484 18.3337 7.00817 18.3337H13.9832C17.0165 18.3337 18.8248 16.5253 18.8248 13.492V6.50866C18.8332 3.47533 17.0248 1.66699 13.9915 1.66699ZM13.8332 10.6253H11.1248V13.3337C11.1248 13.6753 10.8415 13.9587 10.4998 13.9587C10.1582 13.9587 9.87484 13.6753 9.87484 13.3337V10.6253H7.1665C6.82484 10.6253 6.5415 10.342 6.5415 10.0003C6.5415 9.65866 6.82484 9.37533 7.1665 9.37533H9.87484V6.66699C9.87484 6.32533 10.1582 6.04199 10.4998 6.04199C10.8415 6.04199 11.1248 6.32533 11.1248 6.66699V9.37533H13.8332C14.1748 9.37533 14.4582 9.65866 14.4582 10.0003C14.4582 10.342 14.1748 10.6253 13.8332 10.6253Z" fill="#8C59FE"/>
</svg>
