<svg width="40" height="36" viewBox="0 0 40 36" fill="none" xmlns="http://www.w3.org/2000/svg">
<path d="M29 12.7305C28.98 12.7305 28.95 12.7305 28.92 12.7305C23.63 12.2005 18.35 12.0005 13.12 12.5305L11.08 12.7305C10.66 12.7705 10.29 12.4705 10.25 12.0505C10.21 11.6305 10.51 11.2705 10.92 11.2305L12.96 11.0305C18.28 10.4905 23.67 10.7005 29.07 11.2305C29.48 11.2705 29.78 11.6405 29.74 12.0505C29.71 12.4405 29.38 12.7305 29 12.7305Z" fill="#F4485D"/>
<path d="M16.5 11.72C16.46 11.72 16.42 11.72 16.37 11.71C15.97 11.64 15.69 11.25 15.76 10.85L15.98 9.54C16.14 8.58 16.36 7.25 18.69 7.25H21.31C23.65 7.25 23.87 8.63 24.02 9.55L24.24 10.85C24.31 11.26 24.03 11.65 23.63 11.71C23.22 11.78 22.83 11.5 22.77 11.1L22.55 9.8C22.41 8.93 22.38 8.76 21.32 8.76H18.7C17.64 8.76 17.62 8.9 17.47 9.79L17.24 11.09C17.18 11.46 16.86 11.72 16.5 11.72Z" fill="#F4485D"/>
<path d="M23.21 28.7496H16.79C13.3 28.7496 13.16 26.8196 13.05 25.2596L12.4 15.1896C12.37 14.7796 12.69 14.4196 13.1 14.3896C13.52 14.3696 13.87 14.6796 13.9 15.0896L14.55 25.1596C14.66 26.6796 14.7 27.2496 16.79 27.2496H23.21C25.31 27.2496 25.35 26.6796 25.45 25.1596L26.1 15.0896C26.13 14.6796 26.49 14.3696 26.9 14.3896C27.31 14.4196 27.63 14.7696 27.6 15.1896L26.95 25.2596C26.84 26.8196 26.7 28.7496 23.21 28.7496Z" fill="#F4485D"/>
<path d="M21.66 23.25H18.33C17.92 23.25 17.58 22.91 17.58 22.5C17.58 22.09 17.92 21.75 18.33 21.75H21.66C22.07 21.75 22.41 22.09 22.41 22.5C22.41 22.91 22.07 23.25 21.66 23.25Z" fill="#F4485D"/>
<path d="M22.5 19.25H17.5C17.09 19.25 16.75 18.91 16.75 18.5C16.75 18.09 17.09 17.75 17.5 17.75H22.5C22.91 17.75 23.25 18.09 23.25 18.5C23.25 18.91 22.91 19.25 22.5 19.25Z" fill="#F4485D"/>
</svg>
