<svg width="25" height="24" viewBox="0 0 25 24" fill="none" xmlns="http://www.w3.org/2000/svg">
<path d="M21.2497 6.73046C21.2297 6.73046 21.1997 6.73046 21.1697 6.73046C15.8797 6.20046 10.5997 6.00046 5.36967 6.53046L3.32967 6.73046C2.90967 6.77046 2.53967 6.47046 2.49967 6.05046C2.45967 5.63046 2.75967 5.27046 3.16967 5.23046L5.20967 5.03046C10.5297 4.49046 15.9197 4.70046 21.3197 5.23046C21.7297 5.27046 22.0297 5.64046 21.9897 6.05046C21.9597 6.44046 21.6297 6.73046 21.2497 6.73046Z" fill="#F7F9FB"/>
<path d="M8.74977 5.72C8.70977 5.72 8.66977 5.72 8.61977 5.71C8.21977 5.64 7.93977 5.25 8.00977 4.85L8.22977 3.54C8.38977 2.58 8.60977 1.25 10.9398 1.25H13.5598C15.8998 1.25 16.1198 2.63 16.2698 3.55L16.4898 4.85C16.5598 5.26 16.2798 5.65 15.8798 5.71C15.4698 5.78 15.0798 5.5 15.0198 5.1L14.7998 3.8C14.6598 2.93 14.6298 2.76 13.5698 2.76H10.9498C9.88977 2.76 9.86977 2.9 9.71977 3.79L9.48977 5.09C9.42977 5.46 9.10977 5.72 8.74977 5.72Z" fill="#F7F9FB"/>
<path d="M15.4604 22.7496H9.04039C5.55039 22.7496 5.41039 20.8196 5.30039 19.2596L4.65039 9.18959C4.62039 8.77959 4.94039 8.41959 5.35039 8.38959C5.77039 8.36959 6.12039 8.67959 6.15039 9.08959L6.80039 19.1596C6.91039 20.6796 6.95039 21.2496 9.04039 21.2496H15.4604C17.5604 21.2496 17.6004 20.6796 17.7004 19.1596L18.3504 9.08959C18.3804 8.67959 18.7404 8.36959 19.1504 8.38959C19.5604 8.41959 19.8804 8.76959 19.8504 9.18959L19.2004 19.2596C19.0904 20.8196 18.9504 22.7496 15.4604 22.7496Z" fill="#F7F9FB"/>
<path d="M13.9101 17.25H10.5801C10.1701 17.25 9.83008 16.91 9.83008 16.5C9.83008 16.09 10.1701 15.75 10.5801 15.75H13.9101C14.3201 15.75 14.6601 16.09 14.6601 16.5C14.6601 16.91 14.3201 17.25 13.9101 17.25Z" fill="#F7F9FB"/>
<path d="M14.75 13.25H9.75C9.34 13.25 9 12.91 9 12.5C9 12.09 9.34 11.75 9.75 11.75H14.75C15.16 11.75 15.5 12.09 15.5 12.5C15.5 12.91 15.16 13.25 14.75 13.25Z" fill="#F7F9FB"/>
</svg>
