<svg width="25" height="24" viewBox="0 0 25 24" fill="none" xmlns="http://www.w3.org/2000/svg">
<path d="M15.25 22.75H9.25C3.82 22.75 1.5 20.43 1.5 15V9C1.5 3.57 3.82 1.25 9.25 1.25H11.25C11.66 1.25 12 1.59 12 2C12 2.41 11.66 2.75 11.25 2.75H9.25C4.64 2.75 3 4.39 3 9V15C3 19.61 4.64 21.25 9.25 21.25H15.25C19.86 21.25 21.5 19.61 21.5 15V13C21.5 12.59 21.84 12.25 22.25 12.25C22.66 12.25 23 12.59 23 13V15C23 20.43 20.68 22.75 15.25 22.75Z" fill="white"/>
<path d="M8.75032 17.6905C8.14032 17.6905 7.58032 17.4705 7.17032 17.0705C6.68032 16.5805 6.47032 15.8705 6.58032 15.1205L7.01032 12.1105C7.09032 11.5305 7.47032 10.7805 7.88032 10.3705L15.7603 2.49055C17.7503 0.500547 19.7703 0.500547 21.7603 2.49055C22.8503 3.58055 23.3403 4.69055 23.2403 5.80055C23.1503 6.70055 22.6703 7.58055 21.7603 8.48055L13.8803 16.3605C13.4703 16.7705 12.7203 17.1505 12.1403 17.2305L9.13032 17.6605C9.00032 17.6905 8.87032 17.6905 8.75032 17.6905ZM16.8203 3.55055L8.94032 11.4305C8.75032 11.6205 8.53032 12.0605 8.49032 12.3205L8.06032 15.3305C8.02032 15.6205 8.08032 15.8605 8.23032 16.0105C8.38032 16.1605 8.62032 16.2205 8.91032 16.1805L11.9203 15.7505C12.1803 15.7105 12.6303 15.4905 12.8103 15.3005L20.6903 7.42055C21.3403 6.77055 21.6803 6.19055 21.7303 5.65055C21.7903 5.00055 21.4503 4.31055 20.6903 3.54055C19.0903 1.94055 17.9903 2.39055 16.8203 3.55055Z" fill="white"/>
<path d="M20.0996 9.83027C20.0296 9.83027 19.9596 9.82027 19.8996 9.80027C17.2696 9.06027 15.1796 6.97027 14.4396 4.34027C14.3296 3.94027 14.5596 3.53027 14.9596 3.41027C15.3596 3.30027 15.7696 3.53027 15.8796 3.93027C16.4796 6.06027 18.1696 7.75027 20.2996 8.35027C20.6996 8.46027 20.9296 8.88027 20.8196 9.28027C20.7296 9.62027 20.4296 9.83027 20.0996 9.83027Z" fill="white"/>
</svg>
