<svg width="24" height="24" viewBox="0 0 24 24" fill="none" xmlns="http://www.w3.org/2000/svg">
<path d="M11.793 22.8101C10.803 22.8101 9.84297 22.4101 9.14297 21.7101C8.44297 21.0101 8.04297 20.0501 8.04297 19.0601H9.54297C9.54297 19.6501 9.78297 20.2301 10.203 20.6501C10.623 21.0701 11.203 21.3101 11.793 21.3101C13.033 21.3101 14.043 20.3001 14.043 19.0601H15.543C15.543 21.1301 13.863 22.8101 11.793 22.8101Z" fill="#292D32"/>
<path d="M11.7933 20.5299C9.46331 20.5299 7.13331 20.1599 4.92331 19.4199C4.08331 19.1299 3.44331 18.5399 3.16331 17.7699C2.87331 16.9999 2.97331 16.1499 3.43331 15.3899L4.58331 13.4799C4.82331 13.0799 5.04331 12.2799 5.04331 11.8099V8.91992C5.04331 5.19992 8.07331 2.16992 11.7933 2.16992C15.5133 2.16992 18.5433 5.19992 18.5433 8.91992V11.8099C18.5433 12.2699 18.7633 13.0799 19.0033 13.4899L20.1433 15.3899C20.5733 16.1099 20.6533 16.9799 20.3633 17.7699C20.0733 18.5599 19.4433 19.1599 18.6533 19.4199C16.4533 20.1599 14.1233 20.5299 11.7933 20.5299ZM11.7933 3.66992C8.90331 3.66992 6.54331 6.01992 6.54331 8.91992V11.8099C6.54331 12.5399 6.24331 13.6199 5.87331 14.2499L4.72331 16.1599C4.50331 16.5299 4.44331 16.9199 4.57331 17.2499C4.69331 17.5899 4.99331 17.8499 5.40331 17.9899C9.58331 19.3899 14.0133 19.3899 18.1933 17.9899C18.5533 17.8699 18.8333 17.5999 18.9633 17.2399C19.0933 16.8799 19.0633 16.4899 18.8633 16.1599L17.7133 14.2499C17.3333 13.5999 17.0433 12.5299 17.0433 11.7999V8.91992C17.0433 6.01992 14.6933 3.66992 11.7933 3.66992Z" fill="#292D32"/>
<rect x="13.2734" y="0.5" width="7" height="7" rx="3.5" fill="#E03D19" stroke="#F7F9FB"/>
</svg>
