<svg width="17" height="26" viewBox="0 0 17 26" fill="none" xmlns="http://www.w3.org/2000/svg">
<path fill-rule="evenodd" clip-rule="evenodd" d="M4.2536 1.99573C6.87544 0.418705 10.0981 0.446269 12.6954 2.06793C15.2671 3.72262 16.8301 6.67576 16.8155 9.85251C16.7557 13.0084 15.0797 15.975 12.9847 18.2683C11.7755 19.5979 10.4228 20.7736 8.95429 21.7713C8.80304 21.8619 8.63738 21.9225 8.46546 21.9502C8.29999 21.9429 8.13885 21.8923 7.99658 21.8029C5.75457 20.3037 3.78765 18.3899 2.19044 16.1538C0.853936 14.2872 0.0946283 12.0321 0.0156264 9.69472C0.0138914 6.51187 1.63175 3.57275 4.2536 1.99573ZM5.76319 11.014C6.20422 12.1396 7.24522 12.8737 8.40013 12.8737C9.15674 12.8794 9.88404 12.5656 10.42 12.0025C10.9559 11.4393 11.256 10.6735 11.2533 9.87563C11.2574 8.6578 10.5648 7.55752 9.49893 7.08853C8.43309 6.61953 7.20425 6.87433 6.38618 7.73396C5.5681 8.59359 5.32216 9.88848 5.76319 11.014Z" fill="#492999"/>
<ellipse opacity="0.4" cx="8.42044" cy="24.4322" rx="6.00003" ry="1.24224" fill="#492999"/>
</svg>
