<svg width="18" height="19" viewBox="0 0 18 19" fill="none" xmlns="http://www.w3.org/2000/svg">
<path d="M7.51489 13.64C7.85989 14.0825 8.39989 14.375 8.99989 14.375C10.0349 14.375 10.8749 13.535 10.8749 12.5C10.8749 12.0725 10.7324 11.675 10.4924 11.36" stroke="#98A2B3" strokeWidth="1.5" strokeLinecap="round" strokeLinejoin="round"/>
<path d="M2.115 16.1C1.6575 15.53 1.5 14.6225 1.5 13.25V11.75C1.5 8.75 2.25 8 5.25 8H12.75C13.02 8 13.2675 8.0075 13.5 8.0225C15.8775 8.1575 16.5 9.02 16.5 11.75V13.25C16.5 16.25 15.75 17 12.75 17H5.25C4.98 17 4.7325 16.9925 4.5 16.9775" stroke="#98A2B3" strokeWidth="1.5" strokeLinecap="round" strokeLinejoin="round"/>
<path d="M4.5 8V6.5C4.5 4.0175 5.25 2 9 2C12.1125 2 13.155 3.035 13.425 4.67" stroke="#98A2B3" strokeWidth="1.5" strokeLinecap="round" strokeLinejoin="round"/>
<path d="M16.5 2L1.5 17" stroke="#98A2B3" strokeWidth="1.5" strokeLinecap="round" strokeLinejoin="round"/>
</svg>
