<svg width="1728" height="727" viewBox="0 0 1728 727" fill="none" xmlns="http://www.w3.org/2000/svg">
<path d="M0 13.0538H1728V654.598C1728 693.645 1694.74 724.419 1655.82 721.397L61.8151 597.675C26.9279 594.967 0 565.868 0 530.876V13.0538Z" fill="#ECE8FF"/>
<path d="M0 13.0538H1728V635.669C1728 674.661 1694.83 705.416 1655.95 702.479L61.953 582.063C27.0073 579.423 0 550.298 0 515.253V13.0538Z" fill="url(#paint0_linear_465_40199)"/>
<path opacity="0.05" d="M1539.8 105.717C1547.6 100.085 1558.5 106.015 1558.55 115.916L1559.06 217.04C1559.08 220.84 1560.82 224.449 1563.77 226.797L1641.13 288.422C1648.65 294.414 1646.85 306.479 1637.98 309.544L1545.14 341.621C1541.75 342.792 1539.09 345.502 1537.92 348.983L1505.65 445.074C1502.56 454.299 1490.59 455.928 1484.94 447.894L1427.71 366.509C1425.49 363.353 1421.96 361.437 1418.22 361.346L1321.56 359.001C1312.02 358.77 1306.45 347.598 1311.91 339.659L1368.79 256.96C1370.85 253.965 1371.46 250.138 1370.43 246.564L1342.38 148.712C1339.7 139.362 1348.13 130.907 1357.15 133.911L1449.83 164.803C1453.36 165.981 1457.19 165.403 1460.18 163.241L1539.8 105.717Z" fill="#ECE8FF"/>
<path opacity="0.8" d="M1527.96 145.397C1530.56 143.519 1534.19 145.496 1534.21 148.797L1534.64 233.782C1534.65 235.049 1535.23 236.252 1536.21 237.034L1601.03 288.672C1603.54 290.669 1602.94 294.691 1599.98 295.712L1522.43 322.507C1521.3 322.898 1520.41 323.801 1520.02 324.962L1493.01 405.379C1491.98 408.454 1488 408.997 1486.11 406.319L1437.97 337.866C1437.23 336.813 1436.05 336.175 1434.81 336.145L1353.51 334.172C1350.33 334.095 1348.47 330.371 1350.29 327.725L1397.9 258.515C1398.58 257.517 1398.79 256.241 1398.44 255.05L1375.01 173.31C1374.12 170.193 1376.93 167.375 1379.93 168.376L1457.6 194.262C1458.77 194.654 1460.05 194.461 1461.05 193.741L1527.96 145.397Z" fill="#8C59FE"/>
<defs>
<linearGradient id="paint0_linear_465_40199" x1="864" y1="13.0538" x2="864" y2="707.921" gradientUnits="userSpaceOnUse">
<stop stop-color="#8C59FE"/>
<stop offset="1" stop-color="#7939EF"/>
</linearGradient>
</defs>
</svg>
