<svg width="20" height="20" viewBox="0 0 20 20" fill="none" xmlns="http://www.w3.org/2000/svg">
<path d="M18.3333 12.5C18.3333 15.725 15.725 18.3333 12.5 18.3333L13.375 16.875" stroke="#344054" strokeWidth="1.5" strokeLinecap="round" strokeLinejoin="round"/>
<path d="M1.6665 7.49935C1.6665 4.27435 4.27484 1.66602 7.49984 1.66602L6.62483 3.12435" stroke="#344054" strokeWidth="1.5" strokeLinecap="round" strokeLinejoin="round"/>
<path d="M11.4165 3.70703L14.7332 5.62369L18.0165 3.71537" stroke="#344054" strokeWidth="1.5" strokeLinecap="round" strokeLinejoin="round"/>
<path d="M14.7334 9.01525V5.61523" stroke="#344054" strokeWidth="1.5" strokeLinecap="round" strokeLinejoin="round"/>
<path d="M13.95 1.84102L11.95 2.94931C11.5 3.19931 11.125 3.83264 11.125 4.34931V6.46601C11.125 6.98267 11.4917 7.616 11.95 7.866L13.95 8.97435C14.375 9.21601 15.075 9.21601 15.5083 8.97435L17.5083 7.866C17.9583 7.616 18.3333 6.98267 18.3333 6.46601V4.34931C18.3333 3.83264 17.9667 3.19931 17.5083 2.94931L15.5083 1.84102C15.0833 1.60768 14.3833 1.60768 13.95 1.84102Z" stroke="#344054" strokeWidth="1.5" strokeLinecap="round" strokeLinejoin="round"/>
<path d="M1.95801 12.875L5.26634 14.7917L8.55801 12.8833" stroke="#344054" strokeWidth="1.5" strokeLinecap="round" strokeLinejoin="round"/>
<path d="M5.26611 18.1832V14.7832" stroke="#344054" strokeWidth="1.5" strokeLinecap="round" strokeLinejoin="round"/>
<path d="M8.87483 13.5255C8.87483 13.0089 8.50817 12.3755 8.04984 12.1255L6.04983 11.0172C5.62483 10.7755 4.92484 10.7755 4.4915 11.0172L2.49151 12.1255C2.04151 12.3755 1.6665 13.0089 1.6665 13.5255V15.6422C1.6665 16.1589 2.03318 16.7922 2.49151 17.0422L4.4915 18.1506C4.9165 18.3922 5.6165 18.3922 6.04983 18.1506L8.04984 17.0422" stroke="#344054" strokeWidth="1.5" strokeLinecap="round" strokeLinejoin="round"/>
</svg>
