<svg width="30" height="30" viewBox="0 0 30 30" fill="none" xmlns="http://www.w3.org/2000/svg">
<path d="M10.8375 17.5H5C3.625 17.5 2.5 18.625 2.5 20V27.5H10.8375V17.5Z" stroke="white" strokeWidth="1.5" stroke-miterlimit="10" strokeLinecap="round" strokeLinejoin="round"/>
<path d="M16.6625 12.5H13.325C11.95 12.5 10.825 13.625 10.825 15V27.5H19.1625V15C19.1625 13.625 18.05 12.5 16.6625 12.5Z" stroke="white" strokeWidth="1.5" stroke-miterlimit="10" strokeLinecap="round" strokeLinejoin="round"/>
<path d="M25 21.25H19.1625V27.5H27.5V23.75C27.5 22.375 26.375 21.25 25 21.25Z" stroke="white" strokeWidth="1.5" stroke-miterlimit="10" strokeLinecap="round" strokeLinejoin="round"/>
<path d="M15.65 2.58752L16.3125 3.91252C16.4 4.10002 16.6375 4.27502 16.8375 4.30002L18.0375 4.50002C18.8 4.62502 18.9875 5.1875 18.4375 5.725L17.5 6.6625C17.3375 6.825 17.25 7.12501 17.3 7.33751L17.5625 8.48752C17.775 9.40002 17.2875 9.75003 16.4875 9.27503L15.3625 8.61253C15.1625 8.48753 14.825 8.48753 14.625 8.61253L13.5 9.27503C12.7 9.75003 12.2125 9.40002 12.425 8.48752L12.6875 7.33751C12.7375 7.12501 12.65 6.8125 12.4875 6.6625L11.5625 5.73751C11.0125 5.18751 11.1875 4.6375 11.9625 4.5125L13.1625 4.31253C13.3625 4.27503 13.6 4.10003 13.6875 3.92503L14.35 2.6C14.7125 1.875 15.2875 1.87502 15.65 2.58752Z" stroke="white" strokeWidth="1.5" strokeLinecap="round" strokeLinejoin="round"/>
</svg>
