<svg width="472" height="381" viewBox="0 0 472 381" fill="none" xmlns="http://www.w3.org/2000/svg">
<g clip-path="url(#clip0_496_40199)">
<path d="M18.698 0.00068978H160.382C167.219 0.000355007 173.853 2.32576 179.193 6.59464C184.533 10.8635 188.261 16.8218 189.765 23.4901L261.354 340.96C262.135 344.423 262.149 348.015 261.394 351.483C260.64 354.952 259.136 358.214 256.987 361.04C254.839 363.866 252.098 366.188 248.957 367.843C245.816 369.498 242.351 370.446 238.805 370.621L93.1522 377.795C85.3529 378.179 77.6803 375.713 71.5661 370.857C65.4519 366.001 61.3137 359.087 59.9239 351.405L19.3116 126.95L16.2902 127.813L8.51749 85.2707L11.6272 84.4936L0.291402 21.8399C-0.194361 19.1563 -0.0819752 16.3985 0.620613 13.7633C1.3232 11.128 2.59869 8.68018 4.35607 6.59429C6.11345 4.5084 8.30949 2.83582 10.7876 1.6958C13.2657 0.555772 15.9649 -0.0236212 18.6927 -0.00107537L18.698 0.00068978Z" fill="#3F3D56"/>
<path d="M141.732 6.84436H158.269C163.018 6.84441 167.625 8.46841 171.324 11.4468C175.023 14.4251 177.592 18.5787 178.605 23.218L247.322 338.098C247.718 339.911 247.718 341.788 247.322 343.601C246.925 345.414 246.142 347.12 245.026 348.602C243.909 350.085 242.486 351.309 240.853 352.191C239.22 353.073 237.416 353.592 235.564 353.713L90.3846 363.226C86.2888 363.495 82.2376 362.246 79.004 359.719C75.7704 357.191 73.5808 353.562 72.8531 349.523L14.2163 24.064C13.8368 21.9575 13.9244 19.7935 14.4728 17.7245C15.0212 15.6555 16.0171 13.7321 17.3902 12.09C18.7633 10.4478 20.4801 9.12694 22.4196 8.22057C24.359 7.31419 26.4738 6.84441 28.6146 6.84436H44.3031C45.8217 6.84432 47.2979 7.34475 48.5032 8.2682C49.7085 9.19165 50.5757 10.4866 50.9706 11.9526C51.3192 13.2472 52.0851 14.3908 53.1496 15.2061C54.2142 16.0215 55.5179 16.4631 56.859 16.4626H131.34C133.966 16.4626 136.494 15.4719 138.421 13.6888C140.347 11.9056 141.53 9.46131 141.732 6.84436Z" fill="white"/>
<path d="M61.4761 226.972C61.1938 226.982 60.9175 226.89 60.6974 226.713C60.4773 226.536 60.3282 226.286 60.2772 226.008L28.1719 48.8562C28.1413 48.6878 28.1474 48.5148 28.1898 48.349C28.2321 48.1832 28.3098 48.0285 28.4174 47.8954C28.5241 47.7634 28.6585 47.6565 28.8112 47.5823C28.9639 47.5082 29.131 47.4685 29.3007 47.4662L175.368 45.7413H175.381C175.647 45.7436 175.903 45.8358 176.109 46.0028C176.315 46.1699 176.458 46.4019 176.515 46.6609L214.363 218.063C214.4 218.23 214.401 218.403 214.365 218.571C214.328 218.738 214.256 218.896 214.154 219.033C214.052 219.169 213.921 219.281 213.772 219.361C213.622 219.44 213.456 219.486 213.286 219.495L61.4761 226.972Z" fill="#E6E6E6"/>
<path d="M188.233 238.426C188.366 238.426 188.495 238.471 188.599 238.554C188.703 238.636 188.776 238.752 188.806 238.881L190.174 244.742C190.193 244.825 190.194 244.911 190.177 244.994C190.16 245.078 190.125 245.156 190.075 245.225C190.025 245.293 189.96 245.35 189.886 245.391C189.811 245.433 189.729 245.457 189.644 245.463L112.37 250.954C112.227 250.963 112.085 250.92 111.971 250.833C111.857 250.746 111.779 250.62 111.75 250.479L110.435 243.698C110.419 243.616 110.421 243.531 110.44 243.449C110.46 243.368 110.496 243.291 110.548 243.225C110.599 243.159 110.664 243.105 110.738 243.065C110.812 243.026 110.894 243.004 110.978 242.999L188.197 238.427L188.233 238.426Z" fill="#E6E6E6"/>
<path d="M94.3499 272.725C94.2106 272.736 94.0718 272.698 93.9584 272.616C93.845 272.534 93.7645 272.415 93.7311 272.279L92.0564 265.484C92.0359 265.4 92.0338 265.313 92.0503 265.229C92.0668 265.145 92.1015 265.066 92.1519 264.996C92.2024 264.927 92.2675 264.869 92.3425 264.828C92.4175 264.786 92.5008 264.761 92.5863 264.755L191.27 257.855C191.403 257.844 191.537 257.88 191.647 257.957C191.758 258.033 191.838 258.146 191.875 258.275L193.616 264.147C193.64 264.231 193.646 264.32 193.632 264.406C193.619 264.492 193.586 264.575 193.536 264.647C193.487 264.719 193.422 264.779 193.346 264.823C193.27 264.867 193.186 264.894 193.099 264.901L94.3499 272.725Z" fill="#E6E6E6"/>
<path d="M99.6495 294.507C99.5101 294.518 99.3714 294.48 99.258 294.398C99.1446 294.316 99.064 294.197 99.0306 294.061L97.356 287.266C97.3354 287.182 97.3333 287.096 97.3498 287.011C97.3663 286.927 97.401 286.848 97.4515 286.778C97.502 286.709 97.567 286.651 97.6421 286.61C97.7171 286.568 97.8003 286.544 97.8859 286.537L196.569 279.637C196.703 279.627 196.837 279.663 196.947 279.739C197.057 279.816 197.138 279.928 197.175 280.057L198.915 285.929C198.94 286.013 198.946 286.102 198.932 286.188C198.918 286.275 198.885 286.357 198.836 286.429C198.786 286.501 198.721 286.561 198.646 286.605C198.57 286.649 198.485 286.676 198.398 286.683L99.6495 294.507Z" fill="#E6E6E6"/>
<path d="M270.747 371.191C270.747 376.118 315.855 376.642 371.374 380.112C426.842 383.577 472 376.118 472 371.191C472 366.264 426.632 356.352 371.374 362.27C315.855 368.218 270.747 366.264 270.747 371.191Z" fill="#E6E6E6"/>
<path d="M145.099 331.744C144.959 331.759 144.818 331.722 144.702 331.64C144.587 331.558 144.505 331.438 144.473 331.3L140.932 317.141C140.911 317.059 140.909 316.972 140.924 316.888C140.94 316.805 140.974 316.725 141.024 316.656C141.074 316.586 141.138 316.528 141.212 316.486C141.286 316.444 141.369 316.419 141.454 316.411L202.055 311.316C202.196 311.306 202.337 311.347 202.451 311.43C202.565 311.514 202.646 311.636 202.679 311.774L205.699 325.363C205.717 325.445 205.718 325.529 205.701 325.611C205.684 325.693 205.65 325.77 205.6 325.838C205.551 325.905 205.488 325.962 205.416 326.003C205.343 326.044 205.262 326.07 205.179 326.077L145.099 331.744Z" fill="#8C59FE"/>
<path d="M389.793 274.047C389.03 273.524 388.39 272.84 387.92 272.044C387.45 271.247 387.161 270.358 387.072 269.437C386.983 268.516 387.097 267.588 387.406 266.716C387.715 265.844 388.212 265.051 388.861 264.392L386.407 209.632L398.9 211.034L398.174 264.597C399.21 265.76 399.783 267.262 399.784 268.819C399.786 270.376 399.216 271.88 398.183 273.045C397.149 274.21 395.724 274.955 394.177 275.139C392.631 275.324 391.07 274.934 389.792 274.045L389.793 274.047Z" fill="#A0616A"/>
<path d="M367.003 366.744L359.892 367.994L352.865 341.17L362.181 339.326L367.003 366.744Z" fill="#A0616A"/>
<path d="M347.339 377.004L369.685 373.076L368.167 364.445L354.455 366.855C352.165 367.258 350.129 368.553 348.794 370.457C347.46 372.36 346.936 374.715 347.339 377.005L347.339 377.004Z" fill="#2F2E41"/>
<path d="M386.518 370.302H379.299L375.865 342.463H386.519L386.518 370.302Z" fill="#A0616A"/>
<path d="M365.379 377.005L388.067 377.006L388.068 368.242L374.145 368.241C371.82 368.241 369.591 369.164 367.947 370.808C366.302 372.451 365.379 374.681 365.379 377.005Z" fill="#2F2E41"/>
<path d="M356.399 360.323C356.512 360.324 356.624 360.317 356.736 360.303L365.233 359.605C365.62 359.559 365.994 359.436 366.331 359.241C366.669 359.047 366.963 358.786 367.197 358.475C367.431 358.163 367.598 357.807 367.69 357.429C367.782 357.05 367.796 356.657 367.732 356.273L359.296 314.663L364.596 286.715C364.639 286.487 364.763 286.284 364.945 286.141C365.126 285.998 365.354 285.925 365.585 285.937C365.816 285.948 366.035 286.043 366.201 286.203C366.368 286.363 366.471 286.579 366.491 286.809L374.3 357.823C374.373 358.571 374.734 359.261 375.306 359.749C375.878 360.236 376.618 360.482 377.368 360.435L385.373 360.137C386.075 360.087 386.734 359.782 387.226 359.28C387.718 358.778 388.009 358.113 388.044 357.411L387.405 271.596L345.903 266.41L343.003 311.175L343.015 311.223L353.609 358.128C353.761 358.753 354.119 359.31 354.625 359.708C355.131 360.106 355.756 360.322 356.399 360.323Z" fill="#2F2E41"/>
<path d="M373.718 174.149C365.731 174.149 359.256 167.675 359.256 159.69C359.256 151.704 365.731 145.23 373.718 145.23C381.706 145.23 388.181 151.704 388.181 159.69C388.181 167.675 381.706 174.149 373.718 174.149Z" fill="#A0616A"/>
<path d="M360.091 278.127C362.353 278.14 364.572 277.506 366.484 276.298C373.492 271.92 381.448 273.66 385.567 275.087C385.976 275.23 386.412 275.279 386.842 275.23C387.273 275.181 387.686 275.035 388.053 274.804C388.414 274.577 388.72 274.271 388.947 273.908C389.174 273.546 389.316 273.138 389.362 272.713L396.853 205.821C398.108 194.613 391.355 184.076 380.796 180.766C380.399 180.641 379.996 180.524 379.586 180.413C376.3 179.522 372.859 179.362 369.505 179.944C366.15 180.526 362.964 181.836 360.171 183.782C357.325 185.749 354.946 188.315 353.199 191.301C351.453 194.286 350.382 197.618 350.062 201.062L343.755 268.402C343.712 268.838 343.771 269.278 343.927 269.688C344.083 270.097 344.332 270.465 344.654 270.761C346.866 272.805 353.283 278.126 360.091 278.127Z" fill="#8C59FE"/>
<path d="M382.904 220.166L399.803 218.308C400.284 218.255 400.748 218.099 401.163 217.851C401.579 217.602 401.935 217.267 402.21 216.869C402.484 216.47 402.669 216.017 402.752 215.541C402.835 215.064 402.815 214.576 402.692 214.108L398.39 197.715C398.263 196.486 397.894 195.295 397.304 194.209C396.714 193.124 395.915 192.166 394.952 191.392C393.99 190.617 392.883 190.041 391.697 189.696C390.51 189.352 389.267 189.246 388.04 189.384C386.812 189.523 385.624 189.904 384.544 190.504C383.464 191.104 382.514 191.913 381.749 192.882C380.984 193.852 380.418 194.964 380.085 196.153C379.752 197.342 379.658 198.586 379.808 199.812L379.169 216.693C379.151 217.177 379.237 217.658 379.422 218.106C379.607 218.553 379.886 218.955 380.24 219.284C380.594 219.614 381.015 219.864 381.474 220.016C381.934 220.168 382.42 220.219 382.901 220.167L382.904 220.166Z" fill="#8C59FE"/>
<path d="M343.824 271.702C343.13 271.091 342.578 270.336 342.208 269.488C341.837 268.641 341.657 267.723 341.68 266.799C341.703 265.875 341.928 264.966 342.34 264.139C342.751 263.311 343.34 262.583 344.063 262.007L348.228 207.351L360.469 210.106L353.286 263.333C354.174 264.612 354.562 266.173 354.376 267.719C354.19 269.265 353.443 270.689 352.276 271.721C351.11 272.753 349.605 273.321 348.048 273.317C346.49 273.314 344.988 272.739 343.826 271.702H343.824Z" fill="#A0616A"/>
<path d="M365.162 216.73C365.516 216.401 365.795 215.999 365.98 215.552C366.165 215.105 366.251 214.623 366.232 214.14L365.594 197.258C365.731 196.039 365.627 194.804 365.288 193.624C364.948 192.444 364.379 191.343 363.614 190.383C362.849 189.423 361.902 188.624 360.827 188.029C359.753 187.435 358.572 187.059 357.352 186.921C356.132 186.783 354.896 186.887 353.717 187.227C352.537 187.566 351.435 188.135 350.475 188.9C349.515 189.665 348.715 190.612 348.121 191.686C347.527 192.76 347.15 193.941 347.012 195.161L342.71 211.554C342.587 212.022 342.567 212.511 342.65 212.987C342.733 213.464 342.918 213.917 343.192 214.315C343.466 214.714 343.823 215.049 344.238 215.297C344.653 215.545 345.117 215.701 345.598 215.754L362.498 217.612C362.979 217.665 363.466 217.613 363.925 217.461C364.385 217.308 364.806 217.059 365.16 216.729L365.162 216.73Z" fill="#8C59FE"/>
<path d="M374.579 174.693C374.836 174.693 375.093 174.663 375.344 174.604L375.418 174.587C388.133 172.644 390.944 165.278 391.56 162.203C392.199 159.02 391.472 155.946 389.829 154.753C390.725 151.927 390.581 149.418 389.401 147.298C387.34 143.601 382.876 142.353 382.276 142.198C378.709 139.567 374.441 141.323 373.664 141.679C366.764 139.127 364.125 141.251 363.649 141.726C360.565 142.28 358.685 143.471 358.061 145.267C356.888 148.641 360.596 152.838 360.754 153.015L360.836 153.107L366.36 153.37C366.884 153.395 367.397 153.53 367.865 153.766C368.334 154.002 368.748 154.334 369.08 154.74C369.412 155.146 369.655 155.618 369.793 156.124C369.931 156.63 369.961 157.159 369.882 157.678C369.732 158.347 369.543 159.006 369.316 159.653C368.374 162.6 367.668 165.118 368.578 166.075C368.784 166.26 369.039 166.384 369.312 166.431C369.586 166.478 369.867 166.448 370.124 166.343C370.987 166.112 371.573 166.161 371.865 166.487C372.319 166.993 372.18 168.274 371.476 170.093C371.254 170.668 371.195 171.293 371.303 171.9C371.412 172.507 371.685 173.072 372.091 173.535C372.398 173.897 372.779 174.187 373.209 174.387C373.638 174.587 374.106 174.691 374.58 174.693H374.579Z" fill="#2F2E41"/>
</g>
<defs>
<clipPath id="clip0_496_40199">
<rect width="472" height="381" fill="white" transform="matrix(-1 0 0 1 472 0)"/>
</clipPath>
</defs>
</svg>
