<svg width="1728" height="727" viewBox="0 0 1728 727" fill="none" xmlns="http://www.w3.org/2000/svg">
<path d="M0 16H1728V654.621C1728 693.659 1694.76 724.431 1655.84 721.422L61.8365 598.21C26.9403 595.513 0 566.41 0 531.41V16Z" fill="#ECE8FF"/>
<path d="M0 0H1728V619.77C1728 658.754 1694.85 689.506 1655.97 686.581L61.9737 566.662C27.0192 564.033 0 534.904 0 499.851V0Z" fill="url(#paint0_linear_429_40893)"/>
<path opacity="0.05" d="M690.942 201.742C697.187 194.386 709.118 197.035 711.665 206.341L738.485 304.365C739.467 307.954 742.059 310.885 745.5 312.298L839.506 350.911C848.431 354.577 849.6 366.743 841.536 372.041L756.597 427.84C753.487 429.883 751.501 433.253 751.22 436.963L743.546 538.3C742.818 547.921 731.609 552.792 724.078 546.76L644.763 483.221C641.859 480.895 638.04 480.047 634.424 480.927L535.676 504.943C526.3 507.224 518.204 498.068 521.614 489.042L557.533 393.974C558.848 390.493 558.474 386.599 556.521 383.433L503.165 296.939C498.099 288.727 504.304 278.198 513.942 278.652L615.457 283.435C619.174 283.61 622.761 282.051 625.17 279.215L690.942 201.742Z" fill="#ECE8FF"/>
<path opacity="0.8" d="M688.918 243.514C691 241.062 694.977 241.945 695.826 245.047L718.243 326.978C718.571 328.174 719.434 329.151 720.582 329.622L799.154 361.896C802.129 363.118 802.518 367.173 799.83 368.939L728.837 415.577C727.8 416.258 727.138 417.381 727.045 418.618L720.631 503.318C720.388 506.525 716.651 508.148 714.141 506.137L647.848 453.031C646.88 452.255 645.607 451.973 644.401 452.266L561.865 472.339C558.74 473.1 556.041 470.048 557.178 467.039L587.2 387.579C587.638 386.419 587.513 385.121 586.862 384.065L542.266 311.772C540.577 309.035 542.646 305.525 545.859 305.676L630.707 309.674C631.946 309.732 633.142 309.213 633.944 308.267L688.918 243.514Z" fill="#8C59FE"/>
<defs>
<linearGradient id="paint0_linear_429_40893" x1="864" y1="0" x2="864" y2="692" gradientUnits="userSpaceOnUse">
<stop stop-color="#8C59FE"/>
<stop offset="1" stop-color="#7939EF"/>
</linearGradient>
</defs>
</svg>
