<svg width="22" height="24" viewBox="0 0 22 24" fill="none" xmlns="http://www.w3.org/2000/svg">
<path d="M10.5885 12C13.0251 12 15.0003 9.76142 15.0003 7C15.0003 4.23858 13.0251 2 10.5885 2C8.15197 2 6.17676 4.23858 6.17676 7C6.17676 9.76142 8.15197 12 10.5885 12Z" stroke="#171717" strokeWidth="1.5" strokeLinecap="round" strokeLinejoin="round"/>
<path d="M16.9497 15.74L13.8261 19.2801C13.7026 19.4201 13.5879 19.68 13.5614 19.87L13.3938 21.22C13.332 21.71 13.632 22.05 14.0644 21.98L15.2556 21.79C15.4232 21.76 15.6615 21.63 15.7762 21.49L18.8997 17.95C19.4379 17.34 19.6938 16.63 18.8997 15.73C18.1144 14.84 17.4879 15.13 16.9497 15.74Z" stroke="#171717" strokeWidth="1.5" stroke-miterlimit="10" strokeLinecap="round" strokeLinejoin="round"/>
<path d="M16.5 16.25C16.7647 17.33 17.5059 18.17 18.4588 18.47" stroke="#171717" strokeWidth="1.5" stroke-miterlimit="10" strokeLinecap="round" strokeLinejoin="round"/>
<path d="M3.00879 22C3.00879 18.13 6.40587 15 10.5882 15C11.5059 15 12.3882 15.15 13.2088 15.43" stroke="#171717" strokeWidth="1.5" strokeLinecap="round" strokeLinejoin="round"/>
</svg>
