<svg width="63" height="61" viewBox="0 0 63 61" fill="none" xmlns="http://www.w3.org/2000/svg">
<path d="M63 30.5C63 47.3447 48.897 61 31.5 61C14.103 61 0 47.3447 0 30.5C0 13.6553 14.103 0 31.5 0C48.897 0 63 13.6553 63 30.5Z" fill="#306BFF" fill-opacity="0.07"/>
<path d="M37.0653 19.36L41.8346 14.5029L37.0653 19.36ZM41.8346 14.5029L46.6039 19.36L41.8346 14.5029ZM41.8346 14.5029V24.2171V14.5029ZM31.5012 16.122H24.0293C21.3582 16.122 20.0227 16.122 19.0025 16.6513C18.1051 17.117 17.3755 17.86 16.9183 18.774C16.3984 19.8129 16.3984 21.173 16.3984 23.8932V37.493C16.3984 40.2133 16.3984 41.5733 16.9183 42.6124C17.3755 43.5263 18.1051 44.2693 19.0025 44.7349C20.0227 45.2643 21.3582 45.2643 24.0293 45.2643H38.6551C40.1336 45.2643 40.8728 45.2643 41.4793 45.0989C43.125 44.6497 44.4107 43.3404 44.8517 41.6644C45.0142 41.0468 45.0142 40.2939 45.0142 38.7882M28.3217 25.0266C28.3217 26.8149 26.8981 28.2646 25.1421 28.2646C23.3861 28.2646 21.9626 26.8149 21.9626 25.0266C21.9626 23.2382 23.3861 21.7885 25.1421 21.7885C26.8981 21.7885 28.3217 23.2382 28.3217 25.0266ZM35.4597 30.5605L22.0121 43.0106C21.2557 43.711 20.8775 44.0611 20.8441 44.3645C20.8151 44.6274 20.9141 44.8881 21.1092 45.0628C21.3343 45.2643 21.8454 45.2643 22.8676 45.2643H37.7903C40.0781 45.2643 41.2221 45.2643 42.1206 44.8728C43.2486 44.3815 44.1473 43.4662 44.6297 42.3175C45.0142 41.4025 45.0142 40.2374 45.0142 37.9075C45.0142 37.1234 45.0142 36.7314 44.9301 36.3665C44.8242 35.9077 44.6215 35.478 44.3358 35.1072C44.1085 34.8122 43.8078 34.5673 43.2068 34.0777L38.7597 30.4547C38.1581 29.9644 37.8574 29.7193 37.5261 29.6328C37.234 29.5566 36.9269 29.5665 36.6401 29.6613C36.3148 29.7688 36.0298 30.0327 35.4597 30.5605Z" fill="#306BFF" fill-opacity="0.07"/>
<path d="M37.0653 19.36L41.8346 14.5029M41.8346 14.5029L46.6039 19.36M41.8346 14.5029V24.2171M31.5012 16.122H24.0293C21.3582 16.122 20.0227 16.122 19.0025 16.6513C18.1051 17.117 17.3755 17.86 16.9183 18.774C16.3984 19.8129 16.3984 21.173 16.3984 23.8932V37.493C16.3984 40.2133 16.3984 41.5733 16.9183 42.6124C17.3755 43.5263 18.1051 44.2693 19.0025 44.7349C20.0227 45.2643 21.3582 45.2643 24.0293 45.2643H38.6551C40.1336 45.2643 40.8728 45.2643 41.4793 45.0989C43.125 44.6497 44.4107 43.3404 44.8517 41.6644C45.0142 41.0468 45.0142 40.2939 45.0142 38.7882M28.3217 25.0266C28.3217 26.8149 26.8981 28.2646 25.1421 28.2646C23.3861 28.2646 21.9626 26.8149 21.9626 25.0266C21.9626 23.2382 23.3861 21.7885 25.1421 21.7885C26.8981 21.7885 28.3217 23.2382 28.3217 25.0266ZM35.4597 30.5605L22.0121 43.0106C21.2557 43.711 20.8775 44.0611 20.8441 44.3645C20.8151 44.6274 20.9141 44.8881 21.1092 45.0628C21.3343 45.2643 21.8454 45.2643 22.8676 45.2643H37.7903C40.0781 45.2643 41.2221 45.2643 42.1206 44.8728C43.2486 44.3815 44.1473 43.4662 44.6297 42.3175C45.0142 41.4025 45.0142 40.2374 45.0142 37.9075C45.0142 37.1234 45.0142 36.7314 44.9301 36.3665C44.8242 35.9077 44.6215 35.478 44.3358 35.1072C44.1085 34.8122 43.8078 34.5673 43.2068 34.0777L38.7597 30.4547C38.1581 29.9644 37.8574 29.7193 37.5261 29.6328C37.234 29.5566 36.9269 29.5665 36.6401 29.6613C36.3148 29.7688 36.0298 30.0327 35.4597 30.5605Z" stroke="#7939EF" strokeWidth="2" strokeLinecap="round" strokeLinejoin="round"/>
</svg>
