<svg width="535" height="48" viewBox="0 0 535 48" fill="none" xmlns="http://www.w3.org/2000/svg">
<rect x="420" y="23" width="56" height="2" fill="#D9D9D9"/>
<rect x="476" y="8" width="32" height="32" rx="16" fill="#D9D9D9"/>
<rect width="16" height="16" transform="translate(484 16)" fill="#D9D9D9"/>
<path d="M498.499 19.117L490.442 27.3241L487.501 24.2972C487.348 24.1723 487.103 24.1723 486.98 24.2972L486.092 25.2021C485.969 25.327 485.969 25.5766 486.092 25.7326L490.197 29.883C490.35 30.039 490.565 30.039 490.718 29.883L499.908 20.5213C500.031 20.3965 500.031 20.1468 499.908 19.9908L499.02 19.117C498.897 18.961 498.652 18.961 498.499 19.117Z" fill="#444444"/>
<rect x="120" y="23" width="59" height="2" fill="#8C59FE"/>
<rect x="179" y="8" width="32" height="32" rx="16" fill="#8C59FE"/>
<rect x="211" y="23" width="59" height="2" fill="#D9D9D9"/>
<rect x="270" y="23" width="59" height="2" fill="#D9D9D9"/>
<rect x="329" y="8" width="32" height="32" rx="16" fill="#D9D9D9"/>
<rect x="361" y="23" width="59" height="2" fill="#D9D9D9"/>
<rect x="270" y="23" width="59" height="2" fill="#D9D9D9"/>
<rect x="329" y="8" width="32" height="32" rx="16" fill="#D9D9D9"/>
<rect x="361" y="23" width="59" height="2" fill="#D9D9D9"/>
<rect x="44" y="8" width="32" height="32" rx="16" fill="#8C59FE"/>
<rect x="76" y="23" width="44" height="2" fill="#8C59FE"/>
<path d="M350.842 26.1977C349.297 27.7352 347.085 28.2077 345.142 27.6002L341.61 31.1252C341.355 31.3877 340.852 31.5452 340.492 31.4927L338.857 31.2677C338.317 31.1927 337.815 30.6827 337.732 30.1427L337.507 28.5077C337.455 28.1477 337.627 27.6452 337.875 27.3902L341.4 23.8652C340.8 21.9152 341.265 19.7027 342.81 18.1652C345.022 15.9527 348.615 15.9527 350.835 18.1652C353.055 20.3777 353.055 23.9852 350.842 26.1977Z" stroke="#444444" strokeWidth="1.5" stroke-miterlimit="10" strokeLinecap="round" strokeLinejoin="round"/>
<path d="M341.167 28.1177L342.892 29.8427" stroke="#444444" strokeWidth="1.5" stroke-miterlimit="10" strokeLinecap="round" strokeLinejoin="round"/>
<path d="M346.875 23.25C347.496 23.25 348 22.7463 348 22.125C348 21.5037 347.496 21 346.875 21C346.254 21 345.75 21.5037 345.75 22.125C345.75 22.7463 346.254 23.25 346.875 23.25Z" stroke="#444444" strokeWidth="1.5" strokeLinecap="round" strokeLinejoin="round"/>
<path d="M58.7417 15.8583L54.5833 17.425C53.625 17.7833 52.8417 18.9166 52.8417 19.9333V26.125C52.8417 27.1083 53.4917 28.4 54.2833 28.9916L57.8667 31.6666C59.0417 32.55 60.975 32.55 62.15 31.6666L65.7333 28.9916C66.525 28.4 67.175 27.1083 67.175 26.125V19.9333C67.175 18.9083 66.3917 17.775 65.4333 17.4166L61.275 15.8583C60.5667 15.6 59.4333 15.6 58.7417 15.8583Z" stroke="white" strokeWidth="1.5" strokeLinecap="round" strokeLinejoin="round"/>
<path d="M60 24.4168C60.9205 24.4168 61.6666 23.6706 61.6666 22.7502C61.6666 21.8297 60.9205 21.0835 60 21.0835C59.0795 21.0835 58.3333 21.8297 58.3333 22.7502C58.3333 23.6706 59.0795 24.4168 60 24.4168Z" stroke="white" strokeWidth="1.5" stroke-miterlimit="10" strokeLinecap="round" strokeLinejoin="round"/>
<path d="M60 24.4165V26.9165" stroke="white" strokeWidth="1.5" stroke-miterlimit="10" strokeLinecap="round" strokeLinejoin="round"/>
<path d="M200 24V23C200 22.7348 199.895 22.4804 199.707 22.2929C199.52 22.1054 199.265 22 199 22H189C188.735 22 188.48 22.1054 188.293 22.2929C188.105 22.4804 188 22.7348 188 23V29C188 29.2652 188.105 29.5196 188.293 29.7071C188.48 29.8946 188.735 30 189 30H199C199.265 30 199.52 29.8946 199.707 29.7071C199.895 29.5196 200 29.2652 200 29V28M200 24H196C195.47 24 194.961 24.2107 194.586 24.5858C194.211 24.9609 194 25.4696 194 26C194 26.5304 194.211 27.0391 194.586 27.4142C194.961 27.7893 195.47 28 196 28H200M200 24C200.53 24 201.039 24.2107 201.414 24.5858C201.789 24.9609 202 25.4696 202 26C202 26.5304 201.789 27.0391 201.414 27.4142C201.039 27.7893 200.53 28 200 28M191 22V19C191 18.2044 191.316 17.4413 191.879 16.8787C192.441 16.3161 193.204 16 194 16C194.796 16 195.559 16.3161 196.121 16.8787C196.684 17.4413 197 18.2044 197 19V22M199.5 26H200.5M197.5 26H198.5M195.5 26H196.5" stroke="white" strokeWidth="2"/>
</svg>
